<svg xmlns="http://www.w3.org/2000/svg" viewBox="0 -0.5 45 64" shape-rendering="crispEdges">
<metadata>Made with Pixels to Svg https://codepen.io/shshaw/pen/XbxvNj</metadata>
<path stroke="#f1ebe5" d="M0 0h45M0 1h45M0 2h2M6 2h39M0 3h5M6 3h39M0 4h2M6 4h39M0 5h2M3 5h42M0 6h2M6 6h39M0 7h45M0 8h3M5 8h40M0 9h2M6 9h39M0 10h2M6 10h39M0 11h3M5 11h40M0 12h2M6 12h39M0 13h45M0 14h45M0 15h45M0 16h45M0 17h45M0 18h45M0 19h45M0 20h18M28 20h17M0 21h18M28 21h17M0 22h16M28 22h17M0 23h16M29 23h16M0 24h16M29 24h16M0 25h16M29 25h16M0 26h16M28 26h17M0 27h16M28 27h17M0 28h16M29 28h16M0 29h16M29 29h16M0 30h16M28 30h17M0 31h17M27 31h18M0 32h17M28 32h17M0 33h15M29 33h16M0 34h15M30 34h15M0 35h14M30 35h15M0 36h14M30 36h15M0 37h14M30 37h15M0 38h14M17 38h1M30 38h15M0 39h18M30 39h15M0 40h18M30 40h15M0 41h18M29 41h16M0 42h18M29 42h16M0 43h18M21 43h3M27 43h18M0 44h18M21 44h4M27 44h18M0 45h18M20 45h5M27 45h18M0 46h18M20 46h5M27 46h18M0 47h18M21 47h4M28 47h17M0 48h45M0 49h45M0 50h45M0 51h39M43 51h2M0 52h40M42 52h3M0 53h39M43 53h2M0 54h39M43 54h2M0 55h40M42 55h3M0 56h45M0 57h39M43 57h2M0 58h42M43 58h2M0 59h39M43 59h2M0 60h39M40 60h5M0 61h39M43 61h2M0 62h45M0 63h45" />
<path stroke="#110f0f" d="M2 2h4M5 3h1M2 4h4M2 5h1M2 6h4M3 8h2M2 9h4M2 10h4M3 11h2M2 12h4M39 51h4M40 52h2M39 53h4M39 54h4M40 55h2M39 57h4M42 58h1M39 59h4M39 60h1M39 61h4" />
<path stroke="#465d49" d="M18 20h3M24 20h1M18 21h3M24 21h1M16 22h12M16 23h4M24 23h1M16 24h4M24 24h1M16 25h3M16 26h4M16 27h2M16 28h2M16 29h1M18 29h1M16 30h1M17 31h1M18 47h1M25 47h1" />
<path stroke="#5e934b" d="M21 20h3M25 20h3M21 21h3M25 21h3M20 23h4M25 23h4M20 24h4M25 24h4M20 26h8M21 27h7M22 30h6M21 31h6M17 32h3M17 33h3M18 34h1M27 41h2M27 42h2M19 47h2M26 47h2" />
<path stroke="#adadad" d="M19 25h1M24 25h1" />
<path stroke="#000000" d="M20 25h2M25 25h2M23 32h1" />
<path stroke="#ffffff" d="M22 25h2M27 25h2M21 32h1M25 32h1M21 33h1M23 33h1M25 33h1M22 34h3" />
<path stroke="#452a24" d="M18 27h2M18 28h2M19 29h2" />
<path stroke="#8c3522" d="M20 27h1M20 28h9M22 29h7" />
<path stroke="#e7ffff" d="M17 29h1M21 29h1M17 30h1M21 30h1M18 31h3M19 34h1M18 35h3" />
<path stroke="#deb93a" d="M18 30h3" />
<path stroke="#373a37" d="M20 32h1M22 32h1M24 32h1M26 32h1M20 33h1M22 33h1M24 33h1M26 33h1M28 33h1M17 34h1M20 34h2M25 34h2M28 34h2M16 35h2M28 35h2M16 36h2M21 36h7M29 36h1M16 37h2M21 37h7M29 37h1M21 38h7M29 38h1M21 39h3M26 39h2M29 39h1M29 40h1M20 42h2M25 42h2M19 43h2M26 43h1M19 44h2M26 44h1M19 45h1M26 45h1M19 46h1M26 46h1" />
<path stroke="#161616" d="M27 32h1M15 33h2M27 33h1M15 34h2M27 34h1M14 35h2M27 35h1M14 36h2M18 36h3M28 36h1M14 37h2M18 37h3M28 37h1M14 38h3M18 38h3M28 38h1M18 39h3M28 39h1M18 40h11M18 41h2M18 42h2M22 42h3M18 43h1M24 43h2M18 44h1M25 44h1M18 45h1M25 45h1M18 46h1M25 46h1" />
<path stroke="#2a2b2a" d="M21 35h6M24 39h2M20 41h7" />
</svg>