<svg xmlns="http://www.w3.org/2000/svg" viewBox="0 -0.5 45 64" shape-rendering="crispEdges">
<metadata>Made with Pixels to Svg https://codepen.io/shshaw/pen/XbxvNj</metadata>
<path stroke="#f1ebe5" d="M0 0h45M0 1h45M0 2h2M6 2h39M0 3h5M6 3h39M0 4h2M6 4h39M0 5h2M3 5h42M0 6h2M6 6h39M0 7h45M0 8h2M3 8h2M6 8h39M0 9h2M6 9h39M0 10h2M6 10h39M0 11h3M5 11h40M0 12h45M0 13h45M0 14h45M0 15h45M0 16h45M0 17h45M0 18h17M26 18h19M0 19h16M27 19h18M0 20h16M27 20h18M0 21h16M27 21h18M0 22h16M30 22h15M0 23h16M29 23h16M0 24h16M29 24h16M0 25h16M29 25h16M0 26h16M28 26h17M0 27h16M28 27h17M0 28h16M29 28h1M35 28h10M0 29h16M29 29h1M35 29h10M0 30h16M28 30h2M35 30h10M0 31h17M27 31h3M35 31h10M0 32h17M28 32h3M34 32h11M0 33h16M29 33h3M33 33h12M0 34h15M30 34h2M33 34h12M0 35h15M30 35h1M34 35h11M0 36h16M34 36h11M0 37h16M28 37h1M34 37h11M0 38h16M28 38h4M33 38h12M0 39h16M28 39h17M0 40h16M28 40h17M0 41h16M27 41h18M0 42h16M27 42h18M0 43h17M22 43h1M27 43h18M0 44h18M20 44h4M26 44h19M0 45h18M20 45h4M26 45h19M0 46h18M20 46h4M26 46h19M0 47h18M21 47h3M27 47h18M0 48h45M0 49h45M0 50h45M0 51h45M0 52h40M42 52h3M0 53h39M43 53h2M0 54h39M43 54h2M0 55h39M40 55h2M43 55h2M0 56h45M0 57h39M43 57h2M0 58h42M43 58h2M0 59h39M43 59h2M0 60h39M40 60h5M0 61h39M43 61h2M0 62h45M0 63h45" />
<path stroke="#bd1111" d="M2 2h4M5 3h1M2 4h4M2 5h1M2 6h4M2 8h1M5 8h1M2 9h4M2 10h4M3 11h2M40 52h2M39 53h4M39 54h4M39 55h1M42 55h1M39 57h4M42 58h1M39 59h4M39 60h1M39 61h4" />
<path stroke="#6b2e2e" d="M17 18h4M16 19h5M16 20h5M16 21h5M16 22h8M17 32h3M27 32h1M16 33h2M19 33h1M27 33h1M15 34h2M19 34h1M27 34h1M15 35h2M19 35h1M27 35h3M18 36h3M18 37h3M18 38h3M18 39h3" />
<path stroke="#ae2727" d="M21 18h5M21 19h1M26 19h1M21 20h1M26 20h1M21 21h6M24 22h6M20 32h2M25 32h2M18 33h1M20 33h7M28 33h1M17 34h2M20 34h7M28 34h2M17 35h2M21 36h7M21 37h7M21 38h7M21 39h3M26 39h2" />
<path stroke="#da7738" d="M22 19h1M24 19h1M22 20h1" />
<path stroke="#fcb744" d="M23 19h1M25 19h1M23 20h3" />
<path stroke="#465d49" d="M16 23h4M24 23h1M16 24h3M16 25h3M16 26h4M16 27h4M16 28h3M16 29h3M16 30h4M17 31h4M22 32h3M31 35h1M16 36h1M28 36h4M16 37h1M29 37h3M16 38h1M16 39h1M16 40h1M16 41h1M16 42h1M18 44h1M24 44h1M18 45h1M24 45h1M18 46h1M24 46h1M18 47h2M24 47h2" />
<path stroke="#5e934b" d="M20 23h4M25 23h4M20 26h8M20 27h8M20 30h8M21 31h6M32 35h2M17 36h1M32 36h2M17 37h1M32 37h2M17 38h1M17 39h1M17 40h1M17 41h2M17 42h2M19 44h1M25 44h1M19 45h1M25 45h1M19 46h1M25 46h1M20 47h1M26 47h1" />
<path stroke="#adadad" d="M19 24h1M24 24h1M19 25h1M24 25h1" />
<path stroke="#ffffff" d="M20 24h4M25 24h4M20 25h1M23 25h1M25 25h1M28 25h1" />
<path stroke="#000000" d="M21 25h2M26 25h2" />
<path stroke="#452a24" d="M19 28h2M19 29h2" />
<path stroke="#8c3522" d="M21 28h8M21 29h8" />
<path stroke="#bebebe" d="M30 28h5M32 30h1M34 30h1M32 31h1M34 31h1M32 32h2" />
<path stroke="#8c8c8c" d="M30 29h1M32 29h1M34 29h1M30 30h1M30 31h1M31 32h1M32 33h1" />
<path stroke="#575757" d="M31 29h1M33 29h1M31 30h1M33 30h1M31 31h1M33 31h1" />
<path stroke="#663838" d="M32 34h1M32 38h1" />
<path stroke="#8b2b2b" d="M20 35h7M24 39h2" />
<path stroke="#878976" d="M18 40h3M19 41h1M19 42h1M22 42h3M17 43h3M23 43h2" />
<path stroke="#cfd3a3" d="M21 40h7M20 42h2M25 42h2M20 43h2M25 43h2" />
<path stroke="#b1b491" d="M20 41h7" />
</svg>