<svg xmlns="http://www.w3.org/2000/svg" viewBox="0 -0.5 45 64" shape-rendering="crispEdges">
<metadata>Made with Pixels to Svg https://codepen.io/shshaw/pen/XbxvNj</metadata>
<path stroke="#f1ebe5" d="M0 0h45M0 1h45M0 2h2M6 2h39M0 3h5M6 3h39M0 4h2M6 4h39M0 5h2M3 5h42M0 6h2M6 6h39M0 7h45M0 8h3M5 8h40M0 9h2M6 9h39M0 10h2M6 10h39M0 11h45M0 12h3M5 12h40M0 13h45M0 14h45M0 15h45M0 16h45M0 17h45M0 18h45M0 19h45M0 20h18M28 20h17M0 21h18M28 21h17M0 22h16M28 22h17M0 23h16M29 23h16M0 24h16M29 24h16M0 25h16M29 25h16M0 26h16M28 26h17M0 27h16M28 27h17M0 28h16M29 28h16M0 29h16M29 29h16M0 30h16M28 30h17M0 31h17M27 31h18M0 32h17M28 32h17M0 33h16M29 33h16M0 34h15M30 34h15M0 35h15M30 35h15M0 36h16M29 36h16M0 37h16M29 37h16M0 38h16M29 38h16M0 39h16M29 39h16M0 40h16M29 40h16M0 41h16M29 41h16M0 42h16M29 42h16M0 43h17M22 43h1M27 43h18M0 44h18M20 44h4M26 44h19M0 45h18M20 45h4M26 45h19M0 46h18M20 46h4M26 46h19M0 47h18M21 47h3M27 47h18M0 48h45M0 49h45M0 50h45M0 51h40M42 51h3M0 52h45M0 53h39M43 53h2M0 54h39M43 54h2M0 55h40M42 55h3M0 56h45M0 57h39M43 57h2M0 58h42M43 58h2M0 59h39M43 59h2M0 60h39M40 60h5M0 61h39M43 61h2M0 62h45M0 63h45" />
<path stroke="#110f0f" d="M2 2h4M5 3h1M2 4h4M2 5h1M2 6h4M3 8h2M2 9h4M2 10h4M3 12h2M40 51h2M39 53h4M39 54h4M40 55h2M39 57h4M42 58h1M39 59h4M39 60h1M39 61h4" />
<path stroke="#465d49" d="M18 20h3M24 20h1M18 21h3M24 21h1M16 22h12M16 23h4M24 23h1M16 24h3M16 25h3M16 26h4M16 27h4M16 28h3M16 29h3M16 30h4M17 31h4M22 32h3M16 36h1M16 37h1M16 38h1M16 39h1M16 40h1M16 41h1M16 42h1M18 44h1M24 44h1M18 45h1M24 45h1M18 46h1M24 46h1M18 47h2M24 47h2" />
<path stroke="#5e934b" d="M21 20h3M25 20h3M21 21h3M25 21h3M20 23h4M25 23h4M20 26h8M20 27h8M20 30h8M21 31h6M17 36h1M28 36h1M17 37h1M28 37h1M17 38h1M28 38h1M17 39h1M28 39h1M17 40h1M28 40h1M17 41h2M27 41h2M17 42h2M27 42h2M19 44h1M25 44h1M19 45h1M25 45h1M19 46h1M25 46h1M20 47h1M26 47h1" />
<path stroke="#adadad" d="M19 24h1M24 24h1M19 25h1M24 25h1" />
<path stroke="#ffffff" d="M20 24h4M25 24h4M20 25h1M23 25h1M25 25h1M28 25h1" />
<path stroke="#000000" d="M21 25h2M26 25h2" />
<path stroke="#452a24" d="M19 28h2M19 29h2" />
<path stroke="#8c3522" d="M21 28h8M21 29h8" />
<path stroke="#212f68" d="M17 32h3M27 32h1M16 33h2M19 33h1M27 33h1M15 34h2M19 34h1M27 34h1M15 35h2M19 35h1M27 35h1M18 36h3M18 37h3M18 38h3M18 39h3" />
<path stroke="#374daa" d="M20 32h2M25 32h2M18 33h1M20 33h7M28 33h1M17 34h2M20 34h7M28 34h2M17 35h2M28 35h2M21 36h7M21 37h7M21 38h7M21 39h3M26 39h2" />
<path stroke="#2d3f8b" d="M20 35h7M24 39h2" />
<path stroke="#878976" d="M18 40h3M19 41h1M19 42h1M22 42h3M17 43h3M23 43h2" />
<path stroke="#cfd3a3" d="M21 40h7M20 42h2M25 42h2M20 43h2M25 43h2" />
<path stroke="#b1b491" d="M20 41h7" />
</svg>