<svg xmlns="http://www.w3.org/2000/svg" viewBox="0 -0.5 45 64" shape-rendering="crispEdges">
<metadata>Made with Pixels to Svg https://codepen.io/shshaw/pen/XbxvNj</metadata>
<path stroke="#f1ebe5" d="M0 0h45M0 1h45M0 2h2M6 2h39M0 3h5M6 3h39M0 4h2M6 4h39M0 5h5M6 5h39M0 6h2M6 6h39M0 7h45M0 8h3M5 8h40M0 9h2M6 9h39M0 10h2M6 10h39M0 11h3M5 11h40M0 12h2M6 12h39M0 13h45M0 14h45M0 15h16M17 15h28M0 16h15M17 16h28M0 17h11M16 17h29M0 18h10M14 18h31M0 19h10M13 19h5M27 19h18M0 20h10M13 20h4M28 20h17M0 21h11M13 21h3M29 21h16M0 22h12M14 22h2M29 22h16M0 23h12M14 23h2M30 23h15M0 24h12M14 24h1M30 24h15M0 25h12M14 25h1M30 25h15M0 26h12M14 26h2M30 26h3M37 26h8M0 27h12M14 27h2M29 27h4M35 27h10M0 28h12M14 28h2M29 28h5M36 28h9M0 29h9M14 29h2M36 29h9M0 30h8M14 30h2M32 30h13M0 31h8M14 31h3M29 31h16M0 32h8M13 32h4M28 32h17M0 33h9M14 33h2M29 33h16M0 34h9M30 34h15M0 35h9M30 35h15M0 36h10M30 36h15M0 37h11M30 37h15M0 38h12M30 38h15M0 39h17M30 39h15M0 40h17M30 40h15M0 41h17M30 41h15M0 42h17M30 42h15M0 43h17M21 43h2M27 43h18M0 44h17M21 44h2M27 44h18M0 45h17M21 45h2M27 45h18M0 46h17M21 46h2M27 46h18M0 47h17M22 47h1M28 47h17M0 48h45M0 49h45M0 50h45M0 51h39M43 51h2M0 52h40M42 52h3M0 53h39M43 53h2M0 54h39M43 54h2M0 55h40M42 55h3M0 56h45M0 57h39M43 57h2M0 58h39M40 58h5M0 59h39M43 59h2M0 60h39M40 60h5M0 61h39M43 61h2M0 62h45M0 63h45" />
<path stroke="#110f0f" d="M2 2h4M5 3h1M2 4h4M5 5h1M2 6h4M3 8h2M2 9h4M2 10h4M3 11h2M2 12h4M39 51h4M40 52h2M39 53h4M39 54h4M40 55h2M39 57h4M39 58h1M39 59h4M39 60h1M39 61h4" />
<path stroke="#ffffff" d="M16 15h1M15 16h2M11 17h5M10 18h4M10 19h3M10 20h3M11 21h2M12 22h2M33 26h4M33 27h2M34 28h2M32 29h4" />
<path stroke="#c55e23" d="M18 19h3M17 20h3M16 21h3M16 22h3M16 23h2M16 25h2M16 26h2M16 27h3M16 28h3M9 29h1M16 29h3M16 30h3M17 31h3M28 31h1M20 32h1M27 32h1M9 33h2M27 41h1M27 42h1M17 47h3M23 47h3" />
<path stroke="#fa9546" d="M21 19h6M20 20h8M19 21h10M19 22h10M24 26h1M19 27h10M19 28h1M28 28h1M10 29h1M19 29h1M19 30h1M12 31h1M20 31h1M27 31h1M11 32h2M21 32h6M11 33h1M28 41h2M28 42h2M20 47h2M26 47h2" />
<path stroke="#4b464f" d="M12 23h1M12 24h1M12 25h1M12 26h1M12 27h1M12 28h1" />
<path stroke="#776b7e" d="M13 23h1M13 24h1M13 25h1M13 26h1M13 27h1M13 28h1M13 29h1" />
<path stroke="#993932" d="M18 23h1M15 24h4M15 25h1M18 25h1M18 26h1" />
<path stroke="#ff3829" d="M19 23h11M19 24h1M24 24h1M29 24h1M19 25h1M24 25h1M29 25h1M19 26h5M25 26h5" />
<path stroke="#8b3271" d="M20 24h1M22 24h1M25 24h1M27 24h1" />
<path stroke="#f5eef4" d="M21 24h1M23 24h1M26 24h1M28 24h1M21 25h1M23 25h1M26 25h1M28 25h1M22 29h4M23 30h3" />
<path stroke="#c25888" d="M20 25h1M22 25h1M25 25h1" />
<path stroke="#f47a9c" d="M27 25h1" />
<path stroke="#8e453c" d="M20 28h1M20 29h1M20 30h1M21 31h1" />
<path stroke="#e35948" d="M21 28h7M21 29h1M21 30h2M22 31h5" />
<path stroke="#38303d" d="M11 29h2M8 30h6M8 31h4M13 31h1M8 32h3" />
<path stroke="#9a4f2d" d="M26 29h3M30 29h1M26 30h3M30 30h1" />
<path stroke="#6e3f2a" d="M29 29h1M29 30h1" />
<path stroke="#f1cc59" d="M31 29h1M31 30h1" />
<path stroke="#6b3b8e" d="M17 32h3M16 33h1M19 33h1M27 33h1M15 34h1M19 34h2M26 34h2M9 35h4M19 35h3M25 35h3M10 36h4M18 36h2M27 36h1M11 37h4M17 37h3M27 37h1M12 38h8M27 38h1M17 39h3M27 39h1M17 40h10M17 41h2M17 42h2M22 42h3M17 43h2M23 43h2M17 44h2M23 44h2M17 45h2M23 45h2M17 46h2M23 46h2" />
<path stroke="#e7e0eb" d="M12 33h1M11 34h1M22 38h1M24 38h1M22 39h3M28 40h2" />
<path stroke="#bc6ee8" d="M13 33h1M17 33h2M20 33h2M25 33h2M28 33h1M12 34h3M16 34h3M21 34h1M25 34h1M28 34h2M13 35h6M28 35h2M14 36h4M20 36h2M25 36h2M28 36h2M15 37h2M20 37h2M25 37h2M28 37h2M20 38h2M25 38h2M28 38h2M20 39h2M25 39h2M28 39h2M19 41h8M19 42h3M25 42h2M19 43h2M25 43h2M19 44h2M25 44h2M19 45h2M25 45h2M19 46h2M25 46h2" />
<path stroke="#ae2727" d="M22 33h3M22 35h3M22 36h3M22 37h3M23 38h1" />
<path stroke="#969299" d="M9 34h2M27 40h1" />
<path stroke="#6b2e2e" d="M22 34h3" />
</svg>