<svg xmlns="http://www.w3.org/2000/svg" viewBox="0 -0.5 45 64" shape-rendering="crispEdges">
<metadata>Made with Pixels to Svg https://codepen.io/shshaw/pen/XbxvNj</metadata>
<path stroke="#f1ebe5" d="M0 0h45M0 1h45M0 2h2M6 2h39M0 3h5M6 3h39M0 4h2M6 4h39M0 5h5M6 5h39M0 6h2M6 6h39M0 7h45M0 8h3M5 8h40M0 9h2M6 9h39M0 10h2M6 10h39M0 11h2M6 11h39M0 12h3M5 12h40M0 13h45M0 14h45M0 15h45M0 16h45M0 17h45M0 18h45M0 19h18M27 19h18M0 20h17M28 20h17M0 21h16M29 21h16M0 22h16M29 22h16M0 23h16M30 23h15M0 24h15M30 24h15M0 25h15M30 25h15M0 26h16M30 26h15M0 27h16M29 27h16M0 28h16M29 28h16M0 29h16M29 29h16M0 30h16M29 30h16M0 31h17M29 31h16M0 32h17M28 32h17M0 33h16M29 33h16M0 34h15M30 34h15M0 35h15M30 35h15M0 36h15M30 36h15M0 37h15M30 37h15M0 38h15M30 38h15M0 39h15M30 39h15M0 40h15M30 40h15M0 41h15M30 41h4M38 41h7M0 42h15M30 42h4M38 42h7M0 43h17M21 43h2M27 43h7M38 43h7M0 44h17M21 44h2M27 44h6M37 44h8M0 45h17M21 45h2M27 45h6M37 45h8M0 46h17M21 46h2M27 46h5M37 46h8M0 47h17M22 47h1M28 47h4M36 47h9M0 48h45M0 49h45M0 50h45M0 51h40M42 51h3M0 52h39M43 52h2M0 53h39M43 53h2M0 54h39M43 54h2M0 55h40M42 55h3M0 56h45M0 57h39M43 57h2M0 58h39M40 58h5M0 59h39M43 59h2M0 60h39M40 60h5M0 61h39M43 61h2M0 62h45M0 63h45" />
<path stroke="#bd1111" d="M2 2h4M5 3h1M2 4h4M5 5h1M2 6h4M3 8h2M2 9h4M2 10h4M2 11h4M3 12h2M40 51h2M39 52h4M39 53h4M39 54h4M40 55h2M39 57h4M39 58h1M39 59h4M39 60h1M39 61h4" />
<path stroke="#c55e23" d="M18 19h3M17 20h3M16 21h3M16 22h3M16 23h2M16 25h2M16 26h2M16 27h3M16 28h3M16 29h3M16 30h3M17 31h2M17 32h4M27 32h1M16 33h2M19 33h9M15 34h2M19 34h1M23 34h1M27 34h1M15 35h2M19 35h1M23 35h1M27 35h1M15 36h2M19 36h9M15 37h2M19 37h2M27 37h1M15 38h2M19 38h2M27 38h1M15 39h2M19 39h2M27 39h1M15 40h2M19 40h2M23 40h2M27 40h1M15 41h2M19 41h2M27 41h1M15 42h2M19 42h9M17 43h2M23 43h2M17 44h2M23 44h2M17 45h2M23 45h2M17 46h2M23 46h2M17 47h3M23 47h3" />
<path stroke="#fa9546" d="M21 19h6M20 20h8M19 21h10M19 22h10M24 26h1M19 27h1M21 27h6M28 27h1M20 28h1M27 28h1M21 32h6M18 33h1M28 33h1M17 34h2M20 34h3M24 34h3M28 34h2M17 35h2M20 35h3M24 35h3M28 35h2M17 36h2M28 36h2M17 37h2M21 37h6M28 37h2M17 38h2M21 38h6M28 38h2M17 39h2M21 39h6M28 39h2M17 40h2M21 40h2M25 40h2M28 40h2M17 41h2M21 41h6M28 41h2M17 42h2M28 42h2M19 43h2M25 43h2M19 44h2M25 44h2M19 45h2M25 45h2M19 46h2M25 46h2M20 47h2M26 47h2" />
<path stroke="#993932" d="M18 23h1M15 24h4M15 25h1M18 25h1M18 26h1" />
<path stroke="#ff3829" d="M19 23h11M19 24h1M24 24h1M29 24h1M19 25h1M24 25h1M29 25h1M19 26h5M25 26h5" />
<path stroke="#8b3271" d="M20 24h1M22 24h1M25 24h1M27 24h1" />
<path stroke="#f5eef4" d="M21 24h1M23 24h1M26 24h1M28 24h1M21 25h1M23 25h1M26 25h1M28 25h1M23 29h3M22 30h5" />
<path stroke="#c25888" d="M20 25h1M22 25h1M25 25h1" />
<path stroke="#f47a9c" d="M27 25h1" />
<path stroke="#a2b2e3" d="M20 27h1M27 27h1M19 28h1M28 28h1M19 29h1M28 29h1M19 30h1M28 30h1M19 31h1M28 31h1" />
<path stroke="#8e453c" d="M21 28h1M20 29h1M20 30h1M20 31h1" />
<path stroke="#e35948" d="M22 28h5M21 29h2M26 29h2M21 30h1M27 30h1M21 31h7" />
<path stroke="#465d49" d="M34 41h1M37 43h1M33 44h1M32 46h1M36 46h1" />
<path stroke="#5e934b" d="M35 41h3M34 42h4M34 43h3M34 44h3M33 45h4M33 46h3M32 47h4" />
</svg>