<svg xmlns="http://www.w3.org/2000/svg" viewBox="0 -0.5 45 64" shape-rendering="crispEdges">
<metadata>Made with Pixels to Svg https://codepen.io/shshaw/pen/XbxvNj</metadata>
<path stroke="#f1ebe5" d="M0 0h45M0 1h45M0 2h2M6 2h39M0 3h5M6 3h39M0 4h2M6 4h39M0 5h5M6 5h39M0 6h2M6 6h39M0 7h45M0 8h2M3 8h2M6 8h39M0 9h2M6 9h39M0 10h2M6 10h39M0 11h3M5 11h40M0 12h9M13 12h1M16 12h1M25 12h2M37 12h8M0 13h10M12 13h1M23 13h4M37 13h8M0 14h10M12 14h1M20 14h1M25 14h2M33 14h1M36 14h9M0 15h10M12 15h1M23 15h4M33 15h1M36 15h9M0 16h10M12 16h1M25 16h2M33 16h1M36 16h9M0 17h45M0 18h45M0 19h18M27 19h18M0 20h17M28 20h17M0 21h16M29 21h16M0 22h16M29 22h16M0 23h16M30 23h15M0 24h15M30 24h15M0 25h15M30 25h15M0 26h16M30 26h15M0 27h16M29 27h4M36 27h9M0 28h16M29 28h2M36 28h9M0 29h16M29 29h3M39 29h6M0 30h16M29 30h3M38 30h7M0 31h17M29 31h3M37 31h8M0 32h16M28 32h4M36 32h9M0 33h15M23 33h2M29 33h2M36 33h9M0 34h14M36 34h9M0 35h13M24 35h1M37 35h8M0 36h13M23 36h1M36 36h9M0 37h13M23 37h2M27 37h1M31 37h14M0 38h13M27 38h18M0 39h13M23 39h2M27 39h18M0 40h13M27 40h18M0 41h13M27 41h18M0 42h17M27 42h18M0 43h17M21 43h2M27 43h18M0 44h17M21 44h2M27 44h18M0 45h17M21 45h2M27 45h18M0 46h17M21 46h2M27 46h18M0 47h17M22 47h1M28 47h17M0 48h45M0 49h45M0 50h12M34 50h11M0 51h12M28 51h2M34 51h11M0 52h12M30 52h1M33 52h7M42 52h3M0 53h12M28 53h3M33 53h6M43 53h2M0 54h12M30 54h1M33 54h6M43 54h2M0 55h39M40 55h2M43 55h2M0 56h45M0 57h39M43 57h2M0 58h39M40 58h5M0 59h39M43 59h2M0 60h39M40 60h5M0 61h39M43 61h2M0 62h45M0 63h45" />
<path stroke="#bd1111" d="M2 2h4M5 3h1M2 4h4M5 5h1M2 6h4M2 8h1M5 8h1M2 9h4M2 10h4M3 11h2M40 52h2M39 53h4M39 54h4M39 55h1M42 55h1M39 57h4M39 58h1M39 59h4M39 60h1M39 61h4" />
<path stroke="#969299" d="M9 12h1M14 12h1M17 12h1M19 12h1M21 12h1M27 12h1M33 12h1M35 12h1M10 13h1M13 13h1M15 13h1M17 13h1M19 13h1M21 13h1M27 13h1M29 13h1M31 13h1M33 13h1M10 14h1M13 14h1M15 14h1M17 14h1M21 14h1M27 14h1M29 14h1M31 14h1M34 14h1M10 15h1M13 15h1M17 15h1M19 15h1M21 15h1M27 15h1M29 15h1M31 15h1M34 15h1M10 16h1M13 16h1M15 16h1M17 16h1M19 16h1M21 16h1M27 16h1M29 16h1M31 16h1M34 16h1M13 39h2M12 50h1M18 50h1M22 50h1M26 50h1M30 50h1M32 50h1M12 51h1M14 51h1M16 51h1M18 51h1M20 51h1M22 51h1M24 51h1M26 51h1M30 51h1M12 52h1M14 52h1M16 52h1M18 52h1M20 52h1M22 52h1M24 52h1M26 52h1M31 52h1M12 53h1M14 53h1M16 53h1M18 53h1M20 53h1M22 53h1M24 53h1M26 53h1M31 53h1M12 54h1M14 54h1M16 54h1M18 54h1M22 54h1M24 54h1M26 54h1M31 54h1" />
<path stroke="#fbfbfb" d="M10 12h3M15 12h1M18 12h1M20 12h1M22 12h3M28 12h5M34 12h1M36 12h1M11 13h1M14 13h1M16 13h1M18 13h1M20 13h1M22 13h1M28 13h1M30 13h1M32 13h1M34 13h3M11 14h1M14 14h1M16 14h1M18 14h2M22 14h3M28 14h1M30 14h1M32 14h1M35 14h1M11 15h1M14 15h3M18 15h1M20 15h1M22 15h1M28 15h1M30 15h1M32 15h1M35 15h1M11 16h1M14 16h1M16 16h1M18 16h1M20 16h1M22 16h3M28 16h1M30 16h1M32 16h1M35 16h1M13 50h5M19 50h3M23 50h3M27 50h3M31 50h1M33 50h1M13 51h1M15 51h1M17 51h1M19 51h1M21 51h1M23 51h1M25 51h1M27 51h1M31 51h3M13 52h1M15 52h1M17 52h1M19 52h1M21 52h1M23 52h1M25 52h1M27 52h3M32 52h1M13 53h1M15 53h1M17 53h1M19 53h1M21 53h1M23 53h1M25 53h1M27 53h1M32 53h1M13 54h1M15 54h1M17 54h1M19 54h3M23 54h1M25 54h1M27 54h3M32 54h1" />
<path stroke="#c55e23" d="M18 19h3M17 20h3M16 21h3M16 22h3M16 23h2M16 25h2M16 26h2M16 27h3M16 28h3M16 29h3M16 30h3M17 31h3M28 31h1M33 31h1M20 32h1M27 32h1M32 33h1M13 40h2M13 41h2M17 47h3M23 47h3" />
<path stroke="#fa9546" d="M21 19h6M20 20h8M19 21h10M19 22h10M24 26h1M19 27h10M19 28h2M27 28h2M19 29h1M28 29h1M19 30h1M28 30h1M32 31h1M34 31h1M21 32h6M32 32h1M34 32h2M34 33h2M34 34h2M15 40h2M15 41h2M20 47h2M26 47h2" />
<path stroke="#993932" d="M18 23h1M15 24h4M15 25h1M18 25h1M18 26h1" />
<path stroke="#ff3829" d="M19 23h11M19 24h1M24 24h1M29 24h1M19 25h1M24 25h1M29 25h1M19 26h5M25 26h5" />
<path stroke="#8b3271" d="M20 24h1M22 24h1M25 24h1M27 24h1" />
<path stroke="#f5eef4" d="M21 24h1M23 24h1M26 24h1M28 24h1M21 25h1M23 25h1M26 25h1M28 25h1" />
<path stroke="#c25888" d="M20 25h1M22 25h1M25 25h1" />
<path stroke="#f47a9c" d="M27 25h1" />
<path stroke="#465d49" d="M33 27h1M33 28h1M33 29h1M35 29h1M33 30h2M33 32h1M33 33h1M33 34h1M33 35h1M33 36h2" />
<path stroke="#5e934b" d="M34 27h2M31 28h2M34 28h2M32 29h1M34 29h1M36 29h3M32 30h1M35 30h3M35 31h2M32 34h1M32 35h1M34 35h3M35 36h1" />
<path stroke="#8e453c" d="M21 28h1M20 29h1M25 29h2M20 30h1M25 30h2M20 31h1" />
<path stroke="#e35948" d="M22 28h5M21 29h1M27 29h1M21 30h1M27 30h1M21 31h7" />
<path stroke="#443e3d" d="M22 29h3M22 30h3" />
<path stroke="#792935" d="M16 32h4M15 33h2M19 33h1M21 33h1M26 33h2M31 33h1M14 34h2M19 34h1M21 34h1M26 34h3M30 34h2M13 35h2M19 35h1M21 35h2M25 35h7M13 36h2M18 36h2M27 36h5M13 37h2M17 37h3M28 37h3M13 38h2M17 38h3M17 39h3" />
<path stroke="#c93851" d="M17 33h2M20 33h1M22 33h1M25 33h1M28 33h1M16 34h3M20 34h1M22 34h1M25 34h1M29 34h1M15 35h4M20 35h1M15 36h3M20 36h3M25 36h2M32 36h1M15 37h2M20 37h3M25 37h2M15 38h2M20 38h3M25 38h2M20 39h3M25 39h2" />
<path stroke="#c6bdb4" d="M23 34h2M23 35h1M24 36h1M23 38h2" />
<path stroke="#e7e0eb" d="M15 39h2" />
<path stroke="#3a5d7b" d="M17 40h3M17 41h3M17 42h2M21 42h4M17 43h2M23 43h2M17 44h2M23 44h2M17 45h2M23 45h2M17 46h2M23 46h2" />
<path stroke="#4f9de0" d="M20 40h7M20 41h7M19 42h2M25 42h2M19 43h2M25 43h2M19 44h2M25 44h2M19 45h2M25 45h2M19 46h2M25 46h2" />
</svg>