<svg xmlns="http://www.w3.org/2000/svg" viewBox="0 -0.5 45 64" shape-rendering="crispEdges">
<metadata>Made with Pixels to Svg https://codepen.io/shshaw/pen/XbxvNj</metadata>
<path stroke="#f1ebe5" d="M0 0h45M0 1h45M0 2h2M6 2h39M0 3h5M6 3h39M0 4h2M6 4h39M0 5h5M6 5h39M0 6h2M6 6h39M0 7h45M0 8h3M5 8h40M0 9h2M6 9h39M0 10h2M6 10h39M0 11h45M0 12h3M5 12h40M0 13h45M0 14h45M0 15h45M0 16h45M0 17h45M0 18h45M0 19h18M27 19h18M0 20h17M28 20h17M0 21h16M29 21h16M0 22h16M29 22h16M0 23h16M30 23h15M0 24h15M30 24h15M0 25h15M30 25h15M0 26h16M30 26h15M0 27h16M29 27h16M0 28h16M29 28h16M0 29h16M29 29h16M0 30h16M29 30h16M0 31h17M29 31h16M0 32h17M28 32h17M0 33h16M29 33h2M32 33h13M0 34h15M30 34h1M34 34h11M0 35h15M34 35h11M0 36h15M34 36h11M0 37h15M27 37h1M33 37h12M0 38h15M27 38h2M32 38h13M0 39h15M27 39h18M0 40h15M27 40h18M0 41h15M27 41h18M0 42h15M27 42h18M0 43h17M22 43h1M27 43h18M0 44h17M21 44h2M27 44h18M0 45h17M21 45h2M27 45h18M0 46h17M21 46h2M27 46h18M0 47h17M22 47h1M28 47h17M0 48h45M0 49h45M0 50h45M0 51h40M42 51h3M0 52h45M0 53h39M43 53h2M0 54h39M43 54h2M0 55h40M42 55h3M0 56h45M0 57h39M43 57h2M0 58h39M40 58h5M0 59h39M43 59h2M0 60h39M40 60h5M0 61h39M43 61h2M0 62h45M0 63h45" />
<path stroke="#110f0f" d="M2 2h4M5 3h1M2 4h4M5 5h1M2 6h4M3 8h2M2 9h4M2 10h4M3 12h2M40 51h2M39 53h4M39 54h4M40 55h2M39 57h4M39 58h1M39 59h4M39 60h1M39 61h4" />
<path stroke="#c55e23" d="M18 19h3M17 20h3M16 21h3M16 22h3M16 23h2M16 25h2M16 26h2M16 27h3M16 28h3M16 29h3M16 30h3M17 31h3M28 31h1M20 32h1M27 32h1M31 34h1M31 35h1M31 36h1M15 41h2M15 42h2M17 44h2M23 44h2M17 45h2M23 45h2M17 46h2M23 46h2M17 47h3M23 47h3" />
<path stroke="#fa9546" d="M21 19h6M20 20h8M19 21h10M19 22h10M24 26h1M19 27h10M19 28h1M28 28h1M19 29h1M28 29h1M19 30h1M28 30h1M20 31h1M27 31h1M21 32h6M31 33h1M32 34h2M32 35h2M32 36h2M17 41h2M17 42h2M19 44h2M25 44h2M19 45h2M25 45h2M19 46h2M25 46h2M20 47h2M26 47h2" />
<path stroke="#993932" d="M18 23h1M15 24h4M15 25h1M18 25h1M18 26h1" />
<path stroke="#ff3829" d="M19 23h11M19 24h1M24 24h1M29 24h1M19 25h1M24 25h1M29 25h1M19 26h5M25 26h5" />
<path stroke="#8b3271" d="M20 24h1M22 24h1M25 24h1M27 24h1" />
<path stroke="#f5eef4" d="M21 24h1M23 24h1M26 24h1M28 24h1M21 25h1M23 25h1M26 25h1M28 25h1M22 29h5M23 30h3" />
<path stroke="#c25888" d="M20 25h1M22 25h1M25 25h1" />
<path stroke="#f47a9c" d="M27 25h1" />
<path stroke="#8e453c" d="M20 28h1M20 29h1M20 30h1M21 31h1" />
<path stroke="#e35948" d="M21 28h7M21 29h1M27 29h1M21 30h2M26 30h2M22 31h5" />
<path stroke="#6b3b8e" d="M17 32h3M16 33h2M19 33h1M27 33h1M15 34h2M19 34h1M27 34h2M15 35h2M19 35h1M27 35h3M15 36h2M19 36h1M27 36h4M15 37h2M19 37h1M28 37h4M15 38h2M19 38h1M29 38h3M15 39h2M19 39h1" />
<path stroke="#bc6ee8" d="M18 33h1M20 33h7M28 33h1M17 34h2M20 34h2M25 34h2M29 34h1M17 35h2M20 35h1M22 35h1M24 35h1M26 35h1M30 35h1M17 36h2M20 36h1M22 36h1M24 36h1M26 36h1M17 37h2M20 37h1M23 37h1M26 37h1M32 37h1M17 38h2M20 38h2M25 38h2M17 39h2M20 39h7" />
<path stroke="#dea4ff" d="M22 34h3M21 35h1M23 35h1M25 35h1M21 36h1M23 36h1M25 36h1M21 37h2M24 37h2M22 38h3" />
<path stroke="#969299" d="M15 40h2" />
<path stroke="#e7e0eb" d="M17 40h2" />
<path stroke="#b37d0f" d="M19 40h1M19 41h1M19 42h1M22 42h3M17 43h3M23 43h2" />
<path stroke="#f9bb2a" d="M20 40h7M20 41h7M20 42h2M25 42h2M20 43h2M25 43h2" />
</svg>