<svg xmlns="http://www.w3.org/2000/svg" viewBox="0 -0.5 45 64" shape-rendering="crispEdges">
<metadata>Made with Pixels to Svg https://codepen.io/shshaw/pen/XbxvNj</metadata>
<path stroke="#f1ebe5" d="M0 0h45M0 1h45M0 2h2M3 2h2M6 2h39M0 3h2M3 3h2M6 3h39M0 4h2M6 4h39M0 5h5M6 5h39M0 6h5M6 6h39M0 7h45M0 8h3M5 8h40M0 9h2M6 9h39M0 10h2M6 10h39M0 11h3M5 11h40M0 12h2M6 12h39M0 13h45M0 14h45M0 15h45M0 16h45M0 17h45M0 18h18M26 18h19M0 19h16M27 19h18M0 20h15M28 20h17M0 21h15M29 21h16M0 22h14M30 22h15M0 23h14M30 23h15M0 24h14M30 24h15M0 25h14M30 25h15M0 26h14M30 26h15M0 27h14M31 27h14M0 28h15M31 28h14M0 29h15M31 29h14M0 30h16M31 30h2M37 30h8M0 31h17M31 31h2M35 31h10M0 32h17M30 32h4M36 32h9M0 33h16M36 33h9M0 34h15M29 34h16M0 35h15M28 35h17M0 36h15M28 36h17M0 37h15M28 37h17M0 38h15M28 38h17M0 39h15M28 39h17M0 40h15M28 40h17M0 41h15M28 41h17M0 42h15M28 42h17M0 43h17M20 43h3M26 43h19M0 44h17M20 44h3M26 44h19M0 45h17M20 45h3M26 45h19M0 46h17M20 46h3M26 46h19M0 47h17M21 47h2M27 47h18M0 48h45M0 49h45M0 50h45M0 51h39M43 51h2M0 52h40M42 52h3M0 53h39M43 53h2M0 54h39M43 54h2M0 55h40M42 55h3M0 56h45M0 57h39M40 57h5M0 58h39M40 58h5M0 59h39M43 59h2M0 60h39M40 60h2M43 60h2M0 61h39M40 61h2M43 61h2M0 62h45M0 63h45" />
<path stroke="#110f0f" d="M2 2h1M5 2h1M2 3h1M5 3h1M2 4h4M5 5h1M5 6h1M3 8h2M2 9h4M2 10h4M3 11h2M2 12h4M39 51h4M40 52h2M39 53h4M39 54h4M40 55h2M39 57h1M39 58h1M39 59h4M39 60h1M42 60h1M39 61h1M42 61h1" />
<path stroke="#484848" d="M18 18h8M18 19h9M19 20h9M20 21h1M22 21h1M24 21h1M26 21h1M28 21h1M19 22h1M21 22h8M18 23h1M20 23h1M28 23h2M18 24h2M29 24h1M17 25h2M29 25h1M17 26h2M29 26h1M17 27h1M22 27h2M27 27h2M17 28h1M17 29h1M17 30h1M17 31h1M18 33h1M17 34h3M17 35h1M19 35h2M17 36h1M19 36h3M27 36h1M17 37h1M19 37h3M23 37h3M27 37h1M17 38h1M19 38h3M23 38h3M27 38h1M17 39h1M19 39h3M23 39h3M27 39h1M17 40h1M27 40h1M19 41h7M19 42h1M25 42h1M19 43h1M25 43h1M19 44h1M25 44h1M19 45h1M25 45h1M19 46h1M25 46h1" />
<path stroke="#000000" d="M16 19h2M15 20h4M15 21h5M14 22h5M14 23h4M14 24h4M14 25h3M14 26h3M14 27h3M15 28h2M15 29h2M16 30h1M17 32h2M16 33h2M15 34h2M15 35h2M18 35h1M15 36h2M18 36h1M22 36h1M15 37h2M18 37h1M22 37h1M26 37h1M15 38h2M18 38h1M22 38h1M26 38h1M15 39h2M18 39h1M22 39h1M26 39h1M15 40h2M18 40h1M26 40h1M20 42h5M17 43h2M23 43h2M17 44h2M23 44h2M17 45h2M23 45h2M17 46h2M23 46h2" />
<path stroke="#898989" d="M21 21h1M23 21h1M25 21h1M27 21h1M20 22h1M29 22h1M19 23h1" />
<path stroke="#fdfdfd" d="M21 23h7M18 27h1M19 29h1M20 30h1M20 31h1" />
<path stroke="#cfcfcf" d="M20 24h7M22 26h2M28 26h1M29 27h1M26 28h1M18 29h1M25 31h1M20 32h1M22 32h1M24 32h1M26 32h1M21 33h1M22 34h1M24 34h1M26 34h2M23 35h1M25 35h1" />
<path stroke="#e6e6e6" d="M27 24h1" />
<path stroke="#fcfcfc" d="M28 24h1M21 25h8M24 26h2M24 27h2M20 28h1M24 28h2M21 29h1M24 29h1M29 29h1M21 30h1M24 30h1M26 30h1M28 30h2M21 31h2M28 31h2M19 32h1M21 32h1M23 32h1M25 32h1M27 32h2M20 33h1M22 33h1M29 33h2M21 34h1M23 34h1M25 34h1M24 35h1M26 35h1M19 40h7M17 41h2M26 41h2M17 42h2M26 42h2M18 47h3M24 47h3" />
<path stroke="#fbfbfb" d="M19 25h2M19 26h1M20 29h1" />
<path stroke="#818181" d="M20 26h2M20 27h1M30 27h1M30 28h1M30 29h1M18 30h1M27 30h1M30 30h1M18 31h1M26 31h2M30 31h1M29 32h1M19 33h1M23 33h4M20 34h1M28 34h1M21 35h2M27 35h1M23 36h4M15 41h2M15 42h2M17 47h1M23 47h1" />
<path stroke="#a2a2a2" d="M26 26h2M26 27h1M26 29h1M24 31h1" />
<path stroke="#fafafa" d="M19 27h1M21 27h1M18 28h2M29 28h1M22 29h2M25 29h1M27 29h2M19 30h1M22 30h2M19 31h1M23 31h1" />
<path stroke="#94789f" d="M21 28h3M27 28h2" />
<path stroke="#f8f8f8" d="M25 30h1" />
<path stroke="#ffffff" d="M33 30h4M33 31h2M34 32h2M32 33h4" />
<path stroke="#cd9766" d="M27 33h2" />
<path stroke="#f1cc59" d="M31 33h1" />
</svg>