<svg xmlns="http://www.w3.org/2000/svg" viewBox="0 -0.5 45 64" shape-rendering="crispEdges">
<metadata>Made with Pixels to Svg https://codepen.io/shshaw/pen/XbxvNj</metadata>
<path stroke="#f1ebe5" d="M0 0h45M0 1h45M0 2h2M3 2h2M6 2h39M0 3h2M3 3h2M6 3h39M0 4h2M6 4h39M0 5h5M6 5h39M0 6h5M6 6h39M0 7h45M0 8h3M5 8h40M0 9h2M6 9h39M0 10h2M6 10h39M0 11h2M6 11h39M0 12h3M5 12h40M0 13h45M0 14h45M0 15h45M0 16h45M0 17h45M0 18h18M26 18h19M0 19h16M27 19h18M0 20h15M28 20h17M0 21h4M5 21h10M29 21h16M0 22h4M5 22h9M30 22h15M0 23h4M5 23h1M7 23h5M13 23h1M30 23h15M0 24h6M7 24h5M13 24h1M30 24h15M0 25h6M7 25h3M11 25h1M30 25h15M0 26h6M7 26h1M9 26h1M11 26h1M30 26h1M32 26h13M0 27h6M7 27h1M9 27h2M32 27h13M0 28h6M7 28h3M32 28h13M0 29h10M32 29h13M0 30h11M33 30h12M0 31h12M33 31h12M0 32h13M33 32h12M0 33h14M31 33h1M33 33h12M0 34h15M30 34h2M33 34h12M0 35h16M29 35h3M33 35h12M0 36h17M28 36h4M33 36h12M0 37h17M27 37h5M33 37h12M0 38h17M26 38h6M33 38h12M0 39h17M26 39h6M33 39h12M0 40h17M26 40h6M33 40h12M0 41h17M26 41h6M33 41h1M35 41h10M0 42h17M26 42h8M35 42h10M0 43h17M21 43h2M26 43h8M35 43h1M37 43h8M0 44h17M20 44h3M26 44h10M37 44h8M0 45h17M20 45h3M26 45h10M37 45h8M0 46h17M20 46h3M26 46h10M37 46h8M0 47h17M21 47h2M27 47h9M37 47h1M39 47h6M0 48h38M39 48h6M0 49h45M0 50h45M0 51h40M42 51h3M0 52h39M43 52h2M0 53h39M43 53h2M0 54h39M43 54h2M0 55h40M42 55h3M0 56h45M0 57h39M40 57h5M0 58h39M40 58h5M0 59h39M43 59h2M0 60h39M40 60h2M43 60h2M0 61h39M40 61h2M43 61h2M0 62h45M0 63h45" />
<path stroke="#bd1111" d="M2 2h1M5 2h1M2 3h1M5 3h1M2 4h4M5 5h1M5 6h1M3 8h2M2 9h4M2 10h4M2 11h4M3 12h2M40 51h2M39 52h4M39 53h4M39 54h4M40 55h2M39 57h1M39 58h1M39 59h4M39 60h1M42 60h1M39 61h1M42 61h1" />
<path stroke="#603f57" d="M18 18h8M16 19h2M26 19h1M15 20h1M27 20h1M15 21h1M28 21h1M14 22h1M29 22h1M14 23h1M29 23h1M14 24h1M29 24h1M29 25h1M29 26h1M30 27h1M15 28h3M30 28h1M14 29h2M30 29h1M16 30h1M18 30h1M30 30h1M17 31h2M30 31h1M18 32h1M29 32h1M19 33h1M29 33h1M19 34h2M28 34h1M21 35h2M27 35h1M23 36h4" />
<path stroke="#995270" d="M18 19h1M16 20h1M15 22h1M28 22h1M15 24h2M13 25h2M17 25h1M12 26h2M17 26h1M26 26h1M11 27h2M17 27h1M26 27h1M10 28h2M10 29h2M16 29h2M31 29h1M11 30h2M15 30h1M17 30h1M24 30h1M32 30h1M12 31h2M16 31h1M32 31h1M13 32h2M17 32h1M31 32h1M14 33h2M18 33h1M30 33h1M15 34h2M29 34h1M16 35h2M20 35h1M28 35h1M17 36h2M22 36h1M27 36h1M17 37h2M22 37h1M26 37h1M17 38h2M20 38h5M17 39h2M20 39h1M24 39h1M17 40h2M17 44h2M23 44h2M17 45h2M23 45h2M17 46h2M23 46h2M17 47h3M23 47h3" />
<path stroke="#ec7eae" d="M19 19h1M17 20h1M19 20h1M19 22h1M19 27h1M18 28h2M25 28h1M22 29h2M28 29h1M19 30h1M22 30h2M19 31h1" />
<path stroke="#ee7faf" d="M20 19h1M22 19h1M24 19h1M20 20h7M24 21h4M27 22h1M25 25h1M24 26h2M25 27h1M20 28h1M24 28h1M24 29h1M21 30h1M28 30h1M21 31h2M27 31h2M21 32h2M27 32h2M21 33h2M27 33h2M21 34h2M27 34h1M23 35h4" />
<path stroke="#ea7dac" d="M21 19h1M26 28h1M25 29h2" />
<path stroke="#eb7ead" d="M23 19h1" />
<path stroke="#cf6f98" d="M25 19h1" />
<path stroke="#ed7fae" d="M18 20h1M16 21h2M16 22h2M15 23h3M17 24h2M15 25h2M19 25h1M14 26h3M18 26h2M13 27h4M12 28h3M12 29h2M20 29h1M13 30h2M14 31h2M15 32h2M16 33h2M17 34h2M18 35h2M19 36h3M19 37h3M23 37h3M19 38h1M25 38h1M19 39h1M21 39h3M25 39h1M19 40h7M19 44h1M25 44h1M19 45h1M25 45h1M19 46h1M25 46h1M20 47h1M26 47h1" />
<path stroke="#a71c23" d="M4 21h1M4 22h1M4 23h1M6 23h1M12 23h1M6 24h1M12 24h1M6 25h1M12 25h1M6 26h1M31 26h1M6 27h1M29 27h1M31 27h1M6 28h1M21 28h1M29 28h1M31 28h1M21 29h1M29 29h1M20 30h1M29 30h1M20 31h1M29 31h1M20 32h1M32 32h1M20 33h1M32 33h1M32 34h1M32 35h1M32 36h1M32 37h1M32 38h1M32 39h1M32 40h1M32 41h1M34 41h1M34 42h1M34 43h1M36 43h1M36 44h1M36 45h1M36 46h1M36 47h1M38 47h1M38 48h1" />
<path stroke="#ef80b0" d="M18 21h1M20 21h2M18 22h1M18 23h10M23 24h2M18 25h1M18 27h1M19 29h1" />
<path stroke="#f080b0" d="M19 21h1M22 21h2" />
<path stroke="#d974a0" d="M20 22h1M26 22h1M19 24h1M27 24h1" />
<path stroke="#c46990" d="M21 22h5M28 23h1M25 24h2M20 25h1M20 26h1M20 27h1M24 27h1M22 28h2M27 28h2M18 29h1M25 30h1M31 30h1M31 31h1M19 32h1M30 32h1" />
<path stroke="#000000" d="M20 24h3M28 24h1M23 25h2M26 25h2M23 32h4M23 33h4" />
<path stroke="#389667" d="M10 25h1M8 26h1M10 26h1M8 27h1" />
<path stroke="#fe747d" d="M21 25h2M28 25h1M21 26h1M23 26h1M28 26h1M21 27h3M27 27h2" />
<path stroke="#b25a60" d="M22 26h1M27 26h1" />
<path stroke="#7a415a" d="M27 29h1M26 30h2" />
<path stroke="#fcfcfc" d="M23 31h4M23 34h4" />
<path stroke="#453f69" d="M17 41h2M17 42h2M17 43h2M23 43h2" />
<path stroke="#5368be" d="M19 41h7M19 42h7M19 43h2M25 43h1" />
</svg>