<svg xmlns="http://www.w3.org/2000/svg" viewBox="0 -0.5 45 64" shape-rendering="crispEdges">
<metadata>Made with Pixels to Svg https://codepen.io/shshaw/pen/XbxvNj</metadata>
<path stroke="#f1ebe5" d="M0 0h45M0 1h45M0 2h2M3 2h2M6 2h39M0 3h2M3 3h2M6 3h39M0 4h2M6 4h39M0 5h5M6 5h39M0 6h5M6 6h39M0 7h45M0 8h2M3 8h2M6 8h39M0 9h2M6 9h39M0 10h2M6 10h39M0 11h3M5 11h40M0 12h45M0 13h45M0 14h45M0 15h45M0 16h16M28 16h17M0 17h15M29 17h16M0 18h15M29 18h16M0 19h14M30 19h15M0 20h14M30 20h15M0 21h14M32 21h13M0 22h14M33 22h12M0 23h14M34 23h11M0 24h14M30 24h15M0 25h14M30 25h15M0 26h14M30 26h15M0 27h14M31 27h14M0 28h15M31 28h14M0 29h15M31 29h14M0 30h16M31 30h14M0 31h17M31 31h14M0 32h18M30 32h15M0 33h16M30 33h15M0 34h15M29 34h16M0 35h15M29 35h16M0 36h15M29 36h16M0 37h15M29 37h16M0 38h15M29 38h16M0 39h15M31 39h14M0 40h15M28 40h17M0 41h17M26 41h19M0 42h17M26 42h19M0 43h17M20 43h3M26 43h19M0 44h17M20 44h3M26 44h19M0 45h17M20 45h3M26 45h19M0 46h17M20 46h3M26 46h19M0 47h17M21 47h2M27 47h18M0 48h45M0 49h45M0 50h45M0 51h45M0 52h40M42 52h3M0 53h39M43 53h2M0 54h39M43 54h2M0 55h39M40 55h2M43 55h2M0 56h45M0 57h39M40 57h5M0 58h39M40 58h5M0 59h39M43 59h2M0 60h39M40 60h2M43 60h2M0 61h39M40 61h2M43 61h2M0 62h45M0 63h45" />
<path stroke="#bd1111" d="M2 2h1M5 2h1M2 3h1M5 3h1M2 4h4M5 5h1M5 6h1M2 8h1M5 8h1M2 9h4M2 10h4M3 11h2M40 52h2M39 53h4M39 54h4M39 55h1M42 55h1M39 57h1M39 58h1M39 59h4M39 60h1M42 60h1M39 61h1M42 61h1" />
<path stroke="#6b2e2e" d="M16 16h4M15 17h4M15 18h3M14 19h4M14 20h4M14 21h4M14 22h4M20 22h12M14 23h6M29 23h4M16 33h2M15 34h2M15 35h2M15 36h2M26 36h2M26 37h2M26 38h2M20 40h6M17 41h2M17 42h2M20 42h5M17 43h2M23 43h2M17 44h2M23 44h2M17 45h2M23 45h2M17 46h2M23 46h2" />
<path stroke="#ae2727" d="M20 16h8M19 17h10M18 18h11M18 19h5M27 19h3M18 20h5M27 20h3M18 21h14M18 22h2M32 22h1M33 23h1M18 33h1M17 34h2M17 35h1M20 35h1M17 36h1M28 36h1M24 37h2M28 37h1M18 38h1M24 38h2M28 38h1M19 41h7M19 42h1M25 42h1M19 43h1M25 43h1M19 44h1M25 44h1M19 45h1M25 45h1M19 46h1M25 46h1" />
<path stroke="#da7738" d="M23 19h1M25 19h1M23 20h1" />
<path stroke="#fcb744" d="M24 19h1M26 19h1M24 20h3" />
<path stroke="#a2a2a2" d="M20 23h1M28 23h1M20 26h1M15 27h1M26 27h1M16 28h1M26 28h1M16 29h2M17 30h1M24 30h1M15 37h2M15 38h2M15 39h3M15 40h3" />
<path stroke="#fdfdfd" d="M21 23h7M15 24h14M17 25h2M16 26h1M18 27h1M19 29h1" />
<path stroke="#818181" d="M14 24h1M29 24h1M14 25h1M29 25h1M14 26h1M29 26h1M14 27h1M30 27h1M15 28h1M30 28h1M15 29h1M27 29h1M30 29h1M16 30h1M18 30h1M26 30h2M30 30h1M17 31h2M30 31h1M18 32h1M29 32h1M19 33h1M27 33h1M29 33h1M20 34h1M23 34h6M21 35h2M26 35h2M24 36h2M17 47h1M23 47h1" />
<path stroke="#fbfbfb" d="M15 25h1M19 25h1M17 26h3M21 26h2M16 27h1" />
<path stroke="#fcfcfc" d="M16 25h1M23 25h1M25 25h1M27 25h1M25 26h1M17 27h1M24 27h2M17 28h1M20 28h1M24 28h2M27 28h1M24 29h1M26 29h1M28 29h1M21 30h1M23 30h1M28 30h1M21 31h2M25 31h1M27 31h2M21 32h1M28 32h1M21 33h1M28 33h1M22 34h1M23 35h1M25 35h1M28 35h1M17 37h1M17 38h1M18 39h1M18 40h2M26 40h2M18 47h3M24 47h3" />
<path stroke="#484848" d="M20 25h3M24 25h1M26 25h1M28 25h1M23 26h2M26 26h2M20 27h1M22 27h1M28 27h1M22 32h6M22 33h1" />
<path stroke="#cfcfcf" d="M15 26h1M28 26h1M29 27h1M22 28h1M18 29h1M25 30h1M19 32h1M23 33h4M21 34h1" />
<path stroke="#fafafa" d="M19 27h1M18 28h2M29 28h1M23 29h1M25 29h1M19 30h1M22 30h1M19 31h1M23 31h1" />
<path stroke="#de777e" d="M21 27h1M23 27h1M27 27h1" />
<path stroke="#5095b2" d="M21 28h1M23 28h1M28 28h1M20 29h3M29 29h1M20 30h1M29 30h1M20 31h1M24 31h1M26 31h1M29 31h1M20 32h1M20 33h1M24 35h1" />
<path stroke="#484545" d="M19 34h1M18 35h2M18 36h1M18 37h1" />
<path stroke="#9c722f" d="M19 36h2M19 38h2" />
<path stroke="#e3b44f" d="M21 36h3M21 38h3" />
<path stroke="#4a6e39" d="M19 37h2" />
<path stroke="#62ad3f" d="M21 37h3" />
<path stroke="#575151" d="M19 39h4" />
<path stroke="#8c8181" d="M23 39h8" />
</svg>