<svg xmlns="http://www.w3.org/2000/svg" viewBox="0 -0.5 45 64" shape-rendering="crispEdges">
<metadata>Made with Pixels to Svg https://codepen.io/shshaw/pen/XbxvNj</metadata>
<path stroke="#f1ebe5" d="M0 0h45M0 1h45M0 2h2M3 2h2M6 2h39M0 3h2M3 3h2M6 3h39M0 4h2M6 4h39M0 5h5M6 5h39M0 6h5M6 6h39M0 7h45M0 8h3M5 8h40M0 9h2M6 9h16M23 9h22M0 10h2M6 10h15M24 10h21M0 11h22M23 11h22M0 12h3M5 12h16M24 12h21M0 13h21M24 13h21M0 14h20M25 14h20M0 15h20M25 15h20M0 16h19M26 16h19M0 17h19M26 17h19M0 18h18M26 18h19M0 19h16M27 19h18M0 20h15M28 20h17M0 21h15M29 21h16M0 22h14M30 22h15M0 23h14M30 23h15M0 24h14M30 24h15M0 25h14M30 25h15M0 26h14M30 26h15M0 27h14M31 27h14M0 28h15M31 28h14M0 29h15M31 29h14M0 30h16M31 30h14M0 31h17M31 31h14M0 32h17M30 32h15M0 33h16M30 33h15M0 34h15M29 34h16M0 35h15M28 35h17M0 36h15M27 36h18M0 37h15M27 37h18M0 38h16M27 38h18M0 39h16M27 39h18M0 40h17M27 40h18M0 41h18M27 41h18M0 42h18M27 42h18M0 43h18M20 43h3M25 43h20M0 44h18M20 44h3M25 44h20M0 45h18M20 45h3M25 45h20M0 46h18M20 46h3M25 46h20M0 47h18M21 47h2M26 47h19M0 48h45M0 49h45M0 50h45M0 51h40M42 51h3M0 52h45M0 53h39M43 53h2M0 54h39M43 54h2M0 55h40M42 55h3M0 56h45M0 57h39M40 57h5M0 58h39M40 58h5M0 59h39M43 59h2M0 60h39M40 60h2M43 60h2M0 61h39M40 61h2M43 61h2M0 62h45M0 63h45" />
<path stroke="#110f0f" d="M2 2h1M5 2h1M2 3h1M5 3h1M2 4h4M5 5h1M5 6h1M3 8h2M2 9h4M2 10h4M3 12h2M40 51h2M39 53h4M39 54h4M40 55h2M39 57h1M39 58h1M39 59h4M39 60h1M42 60h1M39 61h1M42 61h1" />
<path stroke="#818181" d="M22 9h1M21 10h1M23 10h1M22 11h1M21 12h1M23 12h1M21 13h1M23 13h1M20 14h1M24 14h1M20 15h1M24 15h1M19 16h1M25 16h1M19 17h1M25 17h1M18 18h2M25 18h1M16 19h2M21 19h3M26 19h1M15 20h1M27 20h1M15 21h1M28 21h1M14 22h1M29 22h1M14 23h1M29 23h1M14 24h1M29 24h1M14 25h1M29 25h1M14 26h1M29 26h1M14 27h1M20 27h1M30 27h1M15 28h1M30 28h1M15 29h1M30 29h1M16 30h1M27 30h1M30 30h1M17 31h1M26 31h2M30 31h1M17 32h1M29 32h1M16 33h4M29 33h1M15 34h2M18 34h1M20 34h1M28 34h1M15 35h2M18 35h1M21 35h2M27 35h1M15 36h2M18 36h1M23 36h4M15 37h4M25 37h2M16 38h1M18 38h1M25 38h1M16 39h1M25 39h1M17 40h2M22 40h4M18 41h1M18 42h1M20 42h4M18 43h1M23 43h1M18 44h1M23 44h1M18 45h1M23 45h1M18 46h1M23 46h1M18 47h2M23 47h2" />
<path stroke="#f9f9f9" d="M22 10h1M22 13h1M21 15h3M20 17h5M21 18h3" />
<path stroke="#cfcfcf" d="M22 12h1M22 14h1M21 16h3M20 18h1M24 18h1M21 22h5M28 23h1M20 24h7M22 25h2M26 25h2M15 26h1M20 26h2M28 26h1M29 27h1M21 28h3M26 28h2M18 29h1M25 31h1M19 32h1M22 38h1M22 39h1M19 41h6M19 42h1M24 42h1M19 43h1M24 43h1" />
<path stroke="#a2a2a2" d="M21 14h1M23 14h1M20 16h1M24 16h1M18 19h1M20 19h1M24 19h1M16 20h1M15 22h1M28 22h1M15 27h1M16 28h1M16 29h2M26 29h1M17 30h2M18 31h1M24 31h1M18 32h1M23 33h4" />
<path stroke="#fafafa" d="M19 19h1M17 20h1M19 20h1M19 22h1M19 27h1M21 27h1M18 28h2M29 28h1M22 29h2M25 29h1M27 29h2M19 30h1M22 30h2M19 31h1M23 31h1" />
<path stroke="#dbdbdb" d="M25 19h1" />
<path stroke="#fbfbfb" d="M18 20h1M16 21h2M16 22h2M15 23h3M15 24h2M18 24h1M15 25h1M19 25h2M17 26h3M16 27h1M20 29h1" />
<path stroke="#fcfcfc" d="M20 20h7M24 21h4M27 22h1M17 24h1M28 24h1M16 25h1M21 25h1M24 25h2M28 25h1M22 26h6M17 27h1M24 27h3M17 28h1M20 28h1M24 28h2M28 28h1M21 29h1M24 29h1M29 29h1M21 30h1M24 30h1M28 30h2M21 31h2M28 31h2M20 32h9M20 33h3M27 33h2M17 34h1M19 34h1M21 34h7M17 35h1M19 35h2M23 35h4M17 36h1M19 36h4M22 37h3M17 38h1M20 38h2M23 38h2M26 38h1M17 39h5M23 39h2M26 39h1M26 40h1M25 41h2M25 42h2M19 44h1M24 44h1M19 45h1M24 45h1M19 46h1M24 46h1M20 47h1M25 47h1" />
<path stroke="#fdfdfd" d="M18 21h1M20 21h2M18 22h1M18 23h10M17 25h2M16 26h1M18 27h1M19 29h1M20 30h1M20 31h1" />
<path stroke="#fefefe" d="M19 21h1M22 21h2" />
<path stroke="#e6e6e6" d="M20 22h1M26 22h1M19 24h1M27 24h1" />
<path stroke="#484848" d="M22 27h2M27 27h2" />
<path stroke="#f8f8f8" d="M25 30h2" />
<path stroke="#5d8db5" d="M19 37h1M19 38h1M19 40h1" />
<path stroke="#b1d7f7" d="M20 37h2M20 40h2" />
</svg>