<svg xmlns="http://www.w3.org/2000/svg" viewBox="0 -0.5 45 64" shape-rendering="crispEdges">
<metadata>Made with Pixels to Svg https://codepen.io/shshaw/pen/XbxvNj</metadata>
<path stroke="#f1ebe5" d="M0 0h45M0 1h45M0 2h2M6 2h39M0 3h2M3 3h42M0 4h2M6 4h39M0 5h5M6 5h39M0 6h2M6 6h39M0 7h45M0 8h3M5 8h40M0 9h2M6 9h39M0 10h2M6 10h39M0 11h3M5 11h40M0 12h2M6 12h39M0 13h45M0 14h45M0 15h23M24 15h21M0 16h19M25 16h20M0 17h18M27 17h18M0 18h16M28 18h17M0 19h15M28 19h17M0 20h14M29 20h16M0 21h13M29 21h16M0 22h13M29 22h16M0 23h14M29 23h16M0 24h14M29 24h16M0 25h14M30 25h15M0 26h14M30 26h15M0 27h14M30 27h15M0 28h14M30 28h15M0 29h14M30 29h15M0 30h17M27 30h10M41 30h4M0 31h18M26 31h11M39 31h6M0 32h17M27 32h11M40 32h5M0 33h16M29 33h2M40 33h5M0 34h15M30 34h1M34 34h11M0 35h15M34 35h11M0 36h15M34 36h11M0 37h15M27 37h1M33 37h12M0 38h15M27 38h2M32 38h13M0 39h15M27 39h18M0 40h15M27 40h18M0 41h15M27 41h18M0 42h15M27 42h18M0 43h17M22 43h1M27 43h18M0 44h17M22 44h1M27 44h18M0 45h17M22 45h1M27 45h18M0 46h17M22 46h1M27 46h18M0 47h17M22 47h1M28 47h17M0 48h45M0 49h45M0 50h45M0 51h39M43 51h2M0 52h40M42 52h3M0 53h39M43 53h2M0 54h39M43 54h2M0 55h40M42 55h3M0 56h45M0 57h39M43 57h2M0 58h39M40 58h5M0 59h39M43 59h2M0 60h42M43 60h2M0 61h39M43 61h2M0 62h45M0 63h45" />
<path stroke="#110f0f" d="M2 2h4M2 3h1M2 4h4M5 5h1M2 6h4M3 8h2M2 9h4M2 10h4M3 11h2M2 12h4M39 51h4M40 52h2M39 53h4M39 54h4M40 55h2M39 57h4M39 58h1M39 59h4M42 60h1M39 61h4" />
<path stroke="#47281b" d="M23 15h1M19 16h6M19 17h8M17 18h1M20 18h1M25 18h3M17 19h1M26 19h2M14 20h1M17 20h1M27 20h1M13 21h2M13 22h2" />
<path stroke="#291912" d="M18 17h1M18 18h2M15 19h1M18 19h3M15 20h1M15 21h1M17 21h1M27 21h1M15 22h1M17 22h1M27 22h1M14 23h2M17 23h1M27 23h1M14 24h4M27 24h2M14 25h1M17 25h1M27 25h1M14 26h1M17 26h1M27 26h1M14 27h1M27 27h1M14 28h1M27 28h1M14 29h3M27 29h3" />
<path stroke="#685750" d="M16 18h1M16 19h1M16 20h1M28 20h1M16 21h1M28 21h1M16 22h1M28 22h1M16 23h1M28 23h1M15 25h2M28 25h2M15 26h2M28 26h2M15 27h2M28 27h2M15 28h2M28 28h2" />
<path stroke="#622f1a" d="M21 18h4M21 19h5M26 20h1M19 24h2M25 24h2M21 25h1M24 25h1M19 26h3M24 26h3M22 30h2" />
<path stroke="#94614a" d="M18 20h1M22 28h2" />
<path stroke="#ffcea1" d="M19 20h5M18 21h6M18 22h9M18 23h9M18 24h1M22 24h2M18 25h1M18 26h1M22 26h2M18 27h1M22 27h2M18 29h1M22 29h2M18 30h4M24 30h3M19 31h7M31 33h1M33 33h1M29 34h1M32 34h2M30 35h1M32 35h2M17 36h2M32 36h2M17 37h2M17 38h2M17 39h2M17 40h2M17 41h2M17 42h2" />
<path stroke="#ffe9d5" d="M24 20h1M24 21h2" />
<path stroke="#da997d" d="M25 20h1M26 21h1M21 24h1M24 24h1M19 25h2M22 25h2M25 25h2M17 27h1M17 28h2M17 29h1M19 29h3M24 29h3M17 30h1M18 31h1M31 34h1M28 35h2M31 35h1M15 36h2M28 36h4M15 37h2M28 37h5M15 38h2M29 38h3M15 39h2M15 40h2M15 41h2M15 42h2" />
<path stroke="#f6a88a" d="M19 27h3M24 27h3M19 28h3M24 28h3" />
<path stroke="#ffffff" d="M37 30h4M37 31h2M38 32h2M36 33h4" />
<path stroke="#1d1f2a" d="M17 32h3M16 33h2M19 33h1M27 33h1M15 34h2M19 34h1M27 34h2M15 35h2M19 35h1M27 35h1M19 36h1M27 36h1M19 37h1M19 38h1M19 39h1M19 40h1M19 41h1M19 42h1M22 42h3M17 43h3M23 43h2M17 44h3M23 44h2M17 45h3M23 45h2M17 46h3M23 46h2" />
<path stroke="#2e3253" d="M20 32h7M18 33h1M20 33h7M28 33h1M17 34h2M26 34h1M17 35h2M24 36h3M26 37h1M20 38h7M20 39h7" />
<path stroke="#c8b6a8" d="M32 33h1M34 33h1" />
<path stroke="#f1cc59" d="M35 33h1" />
<path stroke="#767789" d="M20 34h2M24 34h1M21 35h1M23 35h1M26 35h1M20 36h1M22 36h2M21 37h1M24 37h1" />
<path stroke="#e6e2df" d="M22 34h2M25 34h1M20 35h1M22 35h1M24 35h2M21 36h1M20 37h1M22 37h2" />
<path stroke="#cb9829" d="M25 37h1" />
<path stroke="#4d4f5a" d="M20 40h7M20 41h7M20 42h2M25 42h2M20 43h2M25 43h2M20 44h2M25 44h2M20 45h2M25 45h2M20 46h2M25 46h2" />
<path stroke="#c55e23" d="M17 47h3M23 47h3" />
<path stroke="#fa9546" d="M20 47h2M26 47h2" />
</svg>