<svg xmlns="http://www.w3.org/2000/svg" viewBox="0 -0.5 45 64" shape-rendering="crispEdges">
<metadata>Made with Pixels to Svg https://codepen.io/shshaw/pen/XbxvNj</metadata>
<path stroke="#f1ebe5" d="M0 0h45M0 1h45M0 2h2M6 2h39M0 3h2M3 3h42M0 4h2M6 4h39M0 5h5M6 5h39M0 6h2M6 6h39M0 7h45M0 8h3M5 8h40M0 9h2M6 9h39M0 10h2M6 10h39M0 11h2M6 11h39M0 12h3M5 12h40M0 13h45M0 14h45M0 15h45M0 16h45M0 17h13M15 17h30M0 18h13M15 18h30M0 19h13M15 19h2M25 19h20M0 20h13M15 20h1M26 20h19M0 21h13M27 21h18M0 22h13M27 22h18M0 23h13M27 23h18M0 24h13M27 24h18M0 25h13M27 25h18M0 26h15M27 26h18M0 27h15M27 27h18M0 28h15M27 28h18M0 29h16M26 29h5M34 29h11M0 30h17M25 30h4M30 30h1M34 30h11M0 31h16M26 31h3M34 31h11M0 32h15M27 32h2M34 32h11M0 33h15M28 33h1M33 33h12M0 34h14M32 34h13M0 35h14M31 35h14M0 36h14M29 36h16M0 37h14M27 37h18M0 38h15M27 38h18M0 39h15M27 39h18M0 40h14M27 40h18M0 41h14M27 41h18M0 42h14M27 42h18M0 43h14M20 43h3M27 43h18M0 44h16M20 44h3M27 44h18M0 45h16M20 45h3M27 45h18M0 46h16M20 46h3M27 46h18M0 47h16M21 47h2M28 47h17M0 48h45M0 49h45M0 50h45M0 51h40M42 51h3M0 52h39M43 52h2M0 53h39M43 53h2M0 54h39M43 54h2M0 55h40M42 55h3M0 56h45M0 57h39M43 57h2M0 58h39M40 58h5M0 59h39M43 59h2M0 60h42M43 60h2M0 61h39M43 61h2M0 62h45M0 63h45" />
<path stroke="#bd1111" d="M2 2h4M2 3h1M2 4h4M5 5h1M2 6h4M3 8h2M2 9h4M2 10h4M2 11h4M3 12h2M40 51h2M39 52h4M39 53h4M39 54h4M40 55h2M39 57h4M39 58h1M39 59h4M42 60h1M39 61h4" />
<path stroke="#41464a" d="M13 17h1M13 18h1M13 19h1M13 20h1M19 20h5M13 21h1M17 21h1M19 21h6M13 22h1M16 22h1M22 22h3M13 23h1M24 23h1M13 24h1M24 24h1M13 25h2M19 25h4M24 25h1M19 26h6M18 27h7M18 28h7M19 29h5M19 32h7M20 33h5M21 34h3M28 34h1M16 38h1M21 41h1M24 41h1M18 42h4M24 42h3M18 43h1M25 43h1M17 44h1M19 44h1M24 44h1M26 44h1M17 45h1M19 45h1M24 45h1M26 45h1" />
<path stroke="#252526" d="M14 17h1M14 18h1M14 19h1M17 19h8M14 20h1M16 20h3M24 20h2M14 21h3M25 21h2M14 22h2M25 22h2M14 23h4M20 23h4M25 23h2M14 24h4M19 24h5M25 24h2M15 25h3M23 25h1M25 25h2M15 26h3M25 26h2M15 27h3M25 27h2M15 28h3M25 28h2M16 29h3M24 29h2M17 30h8M16 31h10M15 32h4M26 32h1M15 33h1M19 33h1M25 33h1M20 34h1M24 34h1M28 35h2M15 38h1M16 44h1M23 44h1M16 45h1M23 45h1" />
<path stroke="#606a72" d="M18 21h1M17 22h1M21 22h1M18 24h1M18 25h1M18 26h1" />
<path stroke="#f3faff" d="M18 22h2" />
<path stroke="#798792" d="M20 22h1M19 23h1" />
<path stroke="#acb7bf" d="M18 23h1" />
<path stroke="#e6fafa" d="M31 29h3M29 30h1M30 31h1M18 33h1M26 33h1M29 33h1M15 34h2M18 34h2M25 34h2M15 35h2M18 35h9M16 36h1M19 36h7M16 37h1M19 37h7M19 38h7M16 39h1M19 39h7M16 40h2M16 41h2M19 41h2M25 41h2M16 42h2M19 43h1M24 43h1M26 43h1M18 44h1M25 44h1M18 45h1M25 45h1M18 47h3M25 47h3" />
<path stroke="#9ea8b2" d="M31 30h3M29 31h1M31 31h3M29 32h5M16 33h2M27 33h1M30 33h3M14 34h1M17 34h1M27 34h1M29 34h3M14 35h1M17 35h1M27 35h1M30 35h1M14 36h2M17 36h2M26 36h3M14 37h2M17 37h2M26 37h1M17 38h2M26 38h1M15 39h1M17 39h2M26 39h1M14 40h2M18 40h9M14 41h2M18 41h1M14 42h2M14 43h4M23 43h1M16 46h4M23 46h4M16 47h2M23 47h2" />
<path stroke="#c3bd8e" d="M22 41h2M22 42h2" />
</svg>