<svg xmlns="http://www.w3.org/2000/svg" viewBox="0 -0.5 45 64" shape-rendering="crispEdges">
<metadata>Made with Pixels to Svg https://codepen.io/shshaw/pen/XbxvNj</metadata>
<path stroke="#f1ebe5" d="M0 0h45M0 1h45M0 2h2M6 2h39M0 3h2M3 3h42M0 4h2M6 4h39M0 5h5M6 5h39M0 6h2M6 6h39M0 7h45M0 8h2M3 8h2M6 8h39M0 9h2M6 9h39M0 10h2M6 10h39M0 11h3M5 11h40M0 12h45M0 13h45M0 14h45M0 15h23M24 15h21M0 16h19M25 16h20M0 17h18M27 17h18M0 18h16M28 18h17M0 19h15M28 19h17M0 20h14M28 20h17M0 21h13M28 21h17M0 22h13M27 22h18M0 23h14M27 23h18M0 24h14M27 24h18M0 25h14M27 25h18M0 26h14M27 26h18M0 27h15M27 27h18M0 28h15M27 28h18M0 29h15M27 29h3M34 29h11M0 30h15M27 30h3M34 30h11M0 31h14M26 31h3M35 31h10M0 32h14M27 32h2M42 32h3M0 33h13M34 33h11M0 34h13M33 34h12M0 35h13M31 35h14M0 36h13M29 36h16M0 37h16M27 37h18M0 38h16M27 38h18M0 39h16M27 39h18M0 40h16M27 40h18M0 41h16M27 41h18M0 42h16M27 42h18M0 43h16M20 43h3M27 43h18M0 44h16M20 44h3M27 44h18M0 45h16M20 45h3M27 45h18M0 46h16M20 46h3M27 46h18M0 47h16M21 47h2M28 47h17M0 48h45M0 49h45M0 50h45M0 51h45M0 52h40M42 52h3M0 53h39M43 53h2M0 54h39M43 54h2M0 55h39M40 55h2M43 55h2M0 56h45M0 57h39M43 57h2M0 58h39M40 58h5M0 59h39M43 59h2M0 60h42M43 60h2M0 61h39M43 61h2M0 62h45M0 63h45" />
<path stroke="#bd1111" d="M2 2h4M2 3h1M2 4h4M5 5h1M2 6h4M2 8h1M5 8h1M2 9h4M2 10h4M3 11h2M40 52h2M39 53h4M39 54h4M39 55h1M42 55h1M39 57h4M39 58h1M39 59h4M42 60h1M39 61h4" />
<path stroke="#47281b" d="M23 15h1M19 16h6M19 17h8M16 18h2M20 18h1M25 18h3M15 19h3M26 19h2M14 20h4M27 20h1M13 21h4M13 22h3" />
<path stroke="#291912" d="M18 17h1M18 18h2M18 19h3M17 21h1M27 21h1M16 22h2M14 23h4M14 24h4M14 25h4M14 26h1M17 26h1" />
<path stroke="#622f1a" d="M21 18h4M21 19h5M26 20h1M19 24h2M25 24h2M21 25h1M24 25h1M20 26h2M24 26h2M21 30h4" />
<path stroke="#94614a" d="M18 20h1M22 28h2" />
<path stroke="#ffcea1" d="M19 20h5M18 21h6M18 22h9M18 23h9M18 24h1M22 24h2M18 25h1M16 26h1M18 26h1M22 26h2M16 27h1M18 27h1M22 27h2M22 29h2M19 30h1M25 30h2M21 31h5" />
<path stroke="#ffe9d5" d="M24 20h1M24 21h2" />
<path stroke="#da997d" d="M25 20h1M26 21h1M21 24h1M24 24h1M19 25h2M22 25h2M25 25h2M15 26h1M15 27h1M17 27h1M15 28h4M19 29h3M24 29h3M20 30h1M20 31h1" />
<path stroke="#ffffff" d="M19 26h1M26 26h1" />
<path stroke="#f6a88a" d="M19 27h3M24 27h3M19 28h3M24 28h3" />
<path stroke="#ae2727" d="M15 29h1M30 29h1M15 30h1M30 30h1M14 31h2M29 31h2M14 32h1M23 32h3M13 33h2M28 33h2M13 34h2M19 34h8M14 35h1M19 35h2M25 35h2M19 36h2M25 36h2M19 37h3M24 37h3M21 38h4M21 40h4M19 41h8M19 42h8M19 43h1M25 43h1M19 44h1M25 44h1M18 45h2M25 45h2M18 47h3M25 47h3" />
<path stroke="#6b2e2e" d="M16 29h3M31 29h3M16 30h3M31 30h3M16 31h1M18 31h2M31 31h1M33 31h2M15 32h1M26 32h1M29 32h2M15 33h2M18 33h8M30 33h2M33 33h1M15 34h4M28 34h5M15 35h2M18 35h1M29 35h2M17 36h2M16 37h3M16 38h2M16 39h2M20 39h6M16 40h5M25 40h2M16 41h3M16 42h3M16 43h1M23 43h2M16 44h1M23 44h2M16 45h2M23 45h2M16 46h4M23 46h4M16 47h2M23 47h2" />
<path stroke="#97cff9" d="M17 31h1M32 31h1M16 32h1M31 32h1M17 33h1M32 33h1M22 35h3M24 36h1" />
<path stroke="#ffbf07" d="M17 32h3M32 32h5" />
<path stroke="#d16919" d="M20 32h3" />
<path stroke="#ffe28d" d="M37 32h2" />
<path stroke="#ffecb6" d="M39 32h3" />
<path stroke="#f4c840" d="M26 33h2M13 35h1M13 36h3M19 38h2M25 38h2M19 39h1M26 39h1M18 43h1M26 43h1M18 44h1M26 44h1" />
<path stroke="#be8239" d="M27 34h1M17 35h1M27 35h2M16 36h1M27 36h2M18 38h1M18 39h1M17 43h1M17 44h1" />
<path stroke="#3767af" d="M21 35h1M21 36h1M22 37h1" />
<path stroke="#eef8ff" d="M22 36h2M23 37h1" />
</svg>