<svg xmlns="http://www.w3.org/2000/svg" viewBox="0 -0.5 45 64" shape-rendering="crispEdges">
<metadata>Made with Pixels to Svg https://codepen.io/shshaw/pen/XbxvNj</metadata>
<path stroke="#f1ebe5" d="M0 0h45M0 1h45M0 2h2M6 2h27M36 2h9M0 3h2M3 3h27M36 3h9M0 4h2M6 4h22M36 4h9M0 5h5M6 5h17M35 5h10M0 6h2M6 6h17M34 6h11M0 7h24M32 7h13M0 8h3M5 8h18M30 8h15M0 9h2M6 9h16M29 9h16M0 10h2M6 10h15M25 10h1M29 10h16M0 11h18M20 11h6M28 11h17M0 12h3M5 12h11M18 12h27M0 13h14M16 13h29M0 14h12M14 14h31M0 15h23M24 15h21M0 16h9M10 16h9M25 16h20M0 17h18M27 17h18M0 18h16M28 18h4M33 18h12M0 19h15M28 19h17M0 20h14M28 20h17M0 21h13M28 21h17M0 22h13M27 22h18M0 23h6M7 23h7M27 23h18M0 24h6M7 24h7M27 24h8M36 24h9M0 25h5M8 25h6M27 25h4M32 25h13M0 26h6M7 26h7M27 26h3M33 26h12M0 27h6M7 27h8M27 27h4M32 27h13M0 28h15M27 28h18M0 29h10M11 29h5M27 29h18M0 30h16M27 30h4M33 30h12M0 31h15M27 31h2M33 31h12M0 32h15M27 32h2M33 32h12M0 33h11M12 33h3M33 33h4M38 33h7M0 34h10M13 34h1M32 34h13M0 35h11M12 35h2M31 35h14M0 36h14M29 36h16M0 37h5M6 37h8M27 37h18M0 38h14M27 38h18M0 39h14M27 39h5M33 39h12M0 40h11M12 40h2M27 40h18M0 41h14M27 41h18M0 42h14M27 42h18M0 43h16M20 43h3M27 43h18M0 44h16M20 44h3M27 44h18M0 45h16M20 45h3M27 45h18M0 46h16M20 46h3M27 46h18M0 47h16M21 47h2M28 47h17M0 48h45M0 49h45M0 50h45M0 51h40M42 51h3M0 52h45M0 53h39M43 53h2M0 54h39M43 54h2M0 55h40M42 55h3M0 56h45M0 57h39M43 57h2M0 58h39M40 58h5M0 59h39M43 59h2M0 60h42M43 60h2M0 61h39M43 61h2M0 62h45M0 63h45" />
<path stroke="#110f0f" d="M2 2h4M2 3h1M2 4h4M5 5h1M2 6h4M3 8h2M2 9h4M2 10h4M3 12h2M40 51h2M39 53h4M39 54h4M40 55h2M39 57h4M39 58h1M39 59h4M42 60h1M39 61h4" />
<path stroke="#41464a" d="M33 2h3M31 3h3M17 31h1M26 31h1M17 32h10M17 33h10" />
<path stroke="#e6fafa" d="M30 3h1M29 4h3M26 5h3M30 5h1M24 6h4M25 7h1" />
<path stroke="#252526" d="M34 3h2M28 4h1M32 4h4M29 5h1M33 5h2M30 6h1M33 6h1M30 7h1M18 11h2M16 12h2M14 13h2M12 14h2M9 16h1M15 31h2M15 32h2M15 33h2" />
<path stroke="#9ea8b2" d="M23 5h3M31 5h2M28 6h2M31 6h2M26 7h4M31 7h1M26 8h4M26 9h2" />
<path stroke="#787c80" d="M23 6h1M24 7h1M25 8h1M25 9h1M28 9h1M26 10h3M26 11h2" />
<path stroke="#b83e10" d="M23 8h1M22 9h1M21 10h2" />
<path stroke="#dc974d" d="M24 8h1M23 9h1M23 10h2" />
<path stroke="#ffeea0" d="M24 9h1" />
<path stroke="#47281b" d="M23 15h1M19 16h6M19 17h8M16 18h2M20 18h1M25 18h3M15 19h3M26 19h2M14 20h4M27 20h1M13 21h4M13 22h3" />
<path stroke="#291912" d="M18 17h1M18 18h2M18 19h3M17 21h1M27 21h1M16 22h2M14 23h4M14 24h4M14 25h4M14 26h1M17 26h1" />
<path stroke="#622f1a" d="M21 18h4M21 19h5M26 20h1M19 24h2M25 24h2M21 25h1M24 25h1M20 26h2M24 26h2M16 29h1M20 29h1M25 29h1M16 30h1M21 30h4" />
<path stroke="#e1bf25" d="M32 18h1M6 23h1M6 24h1M35 24h1M5 25h3M31 25h1M6 26h1M30 26h3M6 27h1M31 27h1M10 29h1M11 33h1M37 33h1M10 34h3M11 35h1M5 37h1M32 39h1M11 40h1" />
<path stroke="#94614a" d="M18 20h1M22 28h2" />
<path stroke="#ffcea1" d="M19 20h5M18 21h6M18 22h9M18 23h9M18 24h1M22 24h2M18 25h1M16 26h1M18 26h1M22 26h2M16 27h1M18 27h1M22 27h2M18 29h1M22 29h2M18 30h3M25 30h2M19 31h7" />
<path stroke="#ffe9d5" d="M24 20h1M24 21h2" />
<path stroke="#da997d" d="M25 20h1M26 21h1M21 24h1M24 24h1M19 25h2M22 25h2M25 25h2M15 26h1M15 27h1M17 27h1M15 28h4M17 29h1M19 29h1M21 29h1M24 29h1M26 29h1M17 30h1M18 31h1" />
<path stroke="#ffffff" d="M19 26h1M26 26h1M31 30h2M29 31h1M31 31h2M29 32h1M31 32h2M27 33h2M16 34h2M19 34h8M16 35h2M19 35h2M25 35h2M16 36h2M19 36h2M25 36h2M16 37h2M19 37h2M25 37h2M16 38h2M19 38h8M16 39h2M16 40h2M16 41h2M19 41h8M16 42h2M19 42h8M19 43h1M25 43h2M18 44h2M25 44h2M18 45h2M25 45h2M18 47h3M25 47h3" />
<path stroke="#f6a88a" d="M19 27h3M24 27h3M19 28h3M24 28h3" />
<path stroke="#979494" d="M30 31h1M30 32h1M29 33h4M14 34h2M18 34h1M27 34h5M14 35h2M18 35h1M27 35h4M14 36h2M18 36h1M27 36h2M14 37h2M18 37h1M14 38h2M18 38h1M14 39h2M18 39h1M14 40h2M18 40h1M14 41h2M18 41h1M14 42h2M18 42h1M16 43h2M23 43h2M16 44h2M23 44h2M16 45h2M23 45h2M16 46h4M23 46h4M16 47h2M23 47h2" />
<path stroke="#3a3971" d="M21 35h1M21 36h1M21 37h1M21 39h1M21 40h1" />
<path stroke="#4d4bc9" d="M22 35h3M22 36h3M22 37h3M22 39h3M22 40h3" />
<path stroke="#cfcfcf" d="M19 39h2M25 39h2M19 40h2M25 40h2M18 43h1" />
</svg>