<svg xmlns="http://www.w3.org/2000/svg" viewBox="0 -0.5 45 64" shape-rendering="crispEdges">
<metadata>Made with Pixels to Svg https://codepen.io/shshaw/pen/XbxvNj</metadata>
<path stroke="#f1ebe5" d="M0 0h45M0 1h45M0 2h2M6 2h39M0 3h2M3 3h42M0 4h2M6 4h39M0 5h2M3 5h2M6 5h39M0 6h2M6 6h39M0 7h45M0 8h3M5 8h40M0 9h2M6 9h39M0 10h2M6 10h39M0 11h3M5 11h40M0 12h2M6 12h39M0 13h45M0 14h45M0 15h45M0 16h45M0 17h16M28 17h17M0 18h15M29 18h16M0 19h14M30 19h15M0 20h14M30 20h15M0 21h14M30 21h15M0 22h14M30 22h15M0 23h14M30 23h15M0 24h14M30 24h15M0 25h14M30 25h15M0 26h14M30 26h1M34 26h11M0 27h14M32 27h13M0 28h14M33 28h12M0 29h14M30 29h2M34 29h11M0 30h14M33 30h12M0 31h14M30 31h15M0 32h15M30 32h15M0 33h16M28 33h17M0 34h15M29 34h16M0 35h15M29 35h16M0 36h15M29 36h16M0 37h15M29 37h16M0 38h15M29 38h16M0 39h17M29 39h16M0 40h17M29 40h16M0 41h17M29 41h16M0 42h17M29 42h16M0 43h17M21 43h2M27 43h18M0 44h17M21 44h2M27 44h18M0 45h17M21 45h2M27 45h18M0 46h17M21 46h2M27 46h18M0 47h17M22 47h1M28 47h17M0 48h45M0 49h45M0 50h45M0 51h39M43 51h2M0 52h40M42 52h3M0 53h39M43 53h2M0 54h39M43 54h2M0 55h40M42 55h3M0 56h45M0 57h39M43 57h2M0 58h39M40 58h2M43 58h2M0 59h39M43 59h2M0 60h42M43 60h2M0 61h39M43 61h2M0 62h45M0 63h45" />
<path stroke="#110f0f" d="M2 2h4M2 3h1M2 4h4M2 5h1M5 5h1M2 6h4M3 8h2M2 9h4M2 10h4M3 11h2M2 12h4M39 51h4M40 52h2M39 53h4M39 54h4M40 55h2M39 57h4M39 58h1M42 58h1M39 59h4M42 60h1M39 61h4" />
<path stroke="#622f1a" d="M16 17h5M24 17h4M15 18h6M23 18h6M14 19h8M23 19h7M14 20h5M22 20h1M28 20h2M14 21h5M28 21h2M14 22h5M28 22h2M14 23h5M28 23h2M14 24h3M29 24h1M17 47h3M23 47h3" />
<path stroke="#000000" d="M21 17h2M22 18h1M19 20h2M23 20h5M19 21h1M27 21h1M19 22h1M27 22h1M19 23h1M27 23h1M18 24h1M28 24h1M17 25h12M17 26h2M20 26h3M25 26h1M27 26h2M17 27h1M19 27h3M26 27h4M17 28h1M28 28h1M17 29h1M28 29h1M17 30h1M17 31h2M27 31h3M27 32h2" />
<path stroke="#47281b" d="M23 17h1M21 18h1M22 19h1M21 20h1M17 24h1M14 25h3M29 25h1M14 26h2M29 26h1M14 27h2M14 28h2M29 28h1M14 29h3M29 29h1M14 30h3M14 31h3M15 32h4M29 32h1" />
<path stroke="#a26d55" d="M20 21h1M26 21h1M27 24h1M16 26h1M18 27h1M18 28h1M18 29h1M27 29h1M21 32h4M22 35h1M24 37h1M27 41h2M27 42h2" />
<path stroke="#ce9c73" d="M21 21h3M20 22h4M26 22h1M20 23h7M19 24h8M23 26h2M16 27h1M22 27h4M16 28h1M19 28h9M19 29h1M19 30h2M20 31h6M21 34h2M21 35h1M23 35h2M21 36h4M21 37h3" />
<path stroke="#debf8d" d="M24 21h2M24 22h2" />
<path stroke="#ffffff" d="M19 26h1M26 26h1M31 26h3M30 27h2M30 28h3M21 29h5M32 29h2M22 30h3M30 30h3M20 35h1M20 36h1M20 37h1" />
<path stroke="#5b3a2d" d="M20 29h1M26 29h1M18 30h1M21 30h1M25 30h1M19 31h1M26 31h1M20 32h1M25 32h1" />
<path stroke="#cd9766" d="M26 30h1" />
<path stroke="#fcfcfc" d="M27 30h2" />
<path stroke="#f1cc59" d="M29 30h1" />
<path stroke="#454048" d="M19 32h1M19 33h7M23 34h3M15 35h5M15 36h5M26 36h1M15 37h5M26 37h1M22 38h1M24 38h3M20 39h3M24 39h3M20 40h3M24 40h3M20 41h3M24 41h3M19 43h2M25 43h2M19 44h2M25 44h2M19 45h2M25 45h2M19 46h2M25 46h2" />
<path stroke="#29262a" d="M26 32h1M16 33h3M26 33h2M15 34h6M26 34h3M25 35h4M25 36h1M27 36h2M25 37h1M27 37h2M15 38h7M23 38h1M27 38h2M17 39h3M23 39h1M27 39h2M17 40h3M23 40h1M27 40h2M17 41h3M23 41h1M17 42h10M17 43h2M23 43h2M17 44h2M23 44h2M17 45h2M23 45h2M17 46h2M23 46h2" />
<path stroke="#9a583e" d="M20 47h2M26 47h2" />
</svg>