<svg xmlns="http://www.w3.org/2000/svg" viewBox="0 -0.5 45 64" shape-rendering="crispEdges">
<metadata>Made with Pixels to Svg https://codepen.io/shshaw/pen/XbxvNj</metadata>
<path stroke="#f1ebe5" d="M0 0h45M0 1h45M0 2h2M6 2h39M0 3h2M3 3h42M0 4h2M6 4h39M0 5h2M3 5h2M6 5h39M0 6h2M6 6h39M0 7h45M0 8h3M5 8h17M42 8h3M0 9h2M6 9h16M42 9h3M0 10h2M6 10h16M42 10h3M0 11h2M6 11h16M42 11h3M0 12h3M5 12h17M42 12h3M0 13h22M42 13h3M0 14h22M42 14h3M0 15h22M42 15h3M0 16h22M42 16h3M0 17h16M42 17h3M0 18h15M42 18h3M0 19h14M42 19h3M0 20h14M42 20h3M0 21h14M30 21h15M0 22h14M30 22h15M0 23h14M30 23h15M0 24h14M30 24h15M0 25h14M30 25h15M0 26h14M30 26h15M0 27h14M30 27h15M0 28h14M30 28h15M0 29h14M30 29h15M0 30h14M30 30h15M0 31h14M30 31h15M0 32h15M30 32h15M0 33h11M13 33h1M30 33h1M33 33h12M0 34h9M35 34h10M0 35h9M35 35h10M0 36h9M35 36h10M0 37h17M27 37h18M0 38h17M27 38h18M0 39h17M27 39h18M0 40h17M27 40h18M0 41h17M27 41h18M0 42h17M27 42h18M0 43h17M21 43h2M27 43h18M0 44h17M21 44h2M27 44h18M0 45h17M21 45h2M27 45h18M0 46h17M21 46h2M27 46h18M0 47h17M22 47h1M28 47h17M0 48h45M0 49h45M0 50h45M0 51h40M42 51h3M0 52h39M43 52h2M0 53h39M43 53h2M0 54h39M43 54h2M0 55h40M42 55h3M0 56h45M0 57h39M43 57h2M0 58h39M40 58h2M43 58h2M0 59h39M43 59h2M0 60h42M43 60h2M0 61h39M43 61h2M0 62h45M0 63h45" />
<path stroke="#bd1111" d="M2 2h4M2 3h1M2 4h4M2 5h1M5 5h1M2 6h4M3 8h2M2 9h4M2 10h4M2 11h4M3 12h2M40 51h2M39 52h4M39 53h4M39 54h4M40 55h2M39 57h4M39 58h1M42 58h1M39 59h4M42 60h1M39 61h4" />
<path stroke="#2c317c" d="M22 8h11M22 9h1M24 9h1M26 9h1M28 9h1M30 9h1M32 9h1M22 10h2M25 10h1M27 10h1M29 10h1M31 10h2M22 11h1M24 11h1M26 11h1M28 11h1M30 11h1M32 11h1M22 12h2M25 12h1M27 12h1M29 12h1M31 12h2M22 13h1M24 13h1M26 13h1M28 13h1M30 13h1M32 13h1M22 14h11" />
<path stroke="#ae2727" d="M33 8h9M41 9h1M33 10h9M41 11h1M33 12h9M41 13h1M33 14h9M22 15h1M41 15h1M22 16h20M41 17h1M29 18h13M41 19h1M30 20h12" />
<path stroke="#ffffff" d="M23 9h1M25 9h1M27 9h1M29 9h1M31 9h1M33 9h8M24 10h1M26 10h1M28 10h1M30 10h1M23 11h1M25 11h1M27 11h1M29 11h1M31 11h1M33 11h8M24 12h1M26 12h1M28 12h1M30 12h1M23 13h1M25 13h1M27 13h1M29 13h1M31 13h1M33 13h8M23 15h18M28 17h13M30 19h11M21 29h4M22 30h2M22 34h3M22 35h3M23 36h1" />
<path stroke="#622f1a" d="M16 17h5M24 17h4M15 18h6M23 18h6M14 19h8M23 19h7M14 20h5M22 20h1M28 20h2M14 21h5M28 21h2M14 22h5M28 22h2M14 23h5M28 23h2M14 24h3M29 24h1M17 47h3M23 47h3" />
<path stroke="#000000" d="M21 17h2M22 18h1M19 20h2M23 20h5M19 21h1M27 21h1M19 22h1M27 22h1M19 23h2M25 23h3M18 24h1M21 24h1M24 24h1M28 24h1M17 25h2M27 25h2M17 26h1M28 26h1M17 27h1M28 27h2M17 28h1M28 28h2M17 29h1M28 29h2M17 30h1M28 30h2M17 31h2M27 31h3M27 32h2" />
<path stroke="#47281b" d="M23 17h1M21 18h1M22 19h1M21 20h1M17 24h1M14 25h3M29 25h1M14 26h3M29 26h1M14 27h3M14 28h3M14 29h3M14 30h3M14 31h3M15 32h2M29 32h1" />
<path stroke="#a26d55" d="M20 21h1M26 21h1M27 24h1M18 27h1M27 27h1M18 28h2M22 28h2M26 28h2M18 29h1M27 29h1M22 32h3M31 33h2M11 34h1M31 34h1M33 34h2M31 35h4M9 36h1M31 36h3" />
<path stroke="#ce9c73" d="M21 21h3M20 22h4M26 22h1M21 23h4M19 24h1M22 24h2M26 24h1M22 25h2M22 27h2M21 28h1M24 28h1M19 29h1M26 29h1M19 30h2M25 30h2M20 31h6M11 33h2M22 33h3M9 34h2M12 34h1M9 35h4M10 36h3" />
<path stroke="#debf8d" d="M24 21h2M24 22h2" />
<path stroke="#3c76ff" d="M20 24h1M25 24h1M20 25h1M25 25h1M18 26h2M21 26h4M26 26h2M20 27h1M25 27h1M20 28h1M25 28h1" />
<path stroke="#1b3573" d="M19 25h1M26 25h1" />
<path stroke="#7471a1" d="M21 25h1M24 25h1" />
<path stroke="#c3ecff" d="M20 26h1M25 26h1" />
<path stroke="#8d8bb2" d="M19 27h1M21 27h1M24 27h1M26 27h1" />
<path stroke="#5b3a2d" d="M20 29h1M25 29h1M18 30h1M21 30h1M24 30h1M27 30h1M19 31h1M26 31h1M32 34h1M34 36h1" />
<path stroke="#29262a" d="M17 32h5M25 32h2M14 33h6M27 33h3M19 34h1M27 34h4M19 35h1M27 35h4M13 36h8M26 36h5M17 37h3M21 37h2M24 37h2M17 38h3M23 38h1M17 39h3M23 39h1M17 40h3M23 40h1M17 41h3M23 41h1M17 42h10M17 43h2M23 43h2M17 44h2M23 44h2M17 45h2M23 45h2M17 46h2M23 46h2" />
<path stroke="#454048" d="M20 33h2M25 33h2M13 34h6M20 34h2M25 34h2M13 35h6M20 35h2M25 35h2M21 36h2M24 36h2M20 37h1M23 37h1M26 37h1M20 38h3M24 38h3M20 39h3M24 39h3M20 40h3M24 40h3M20 41h3M24 41h3M19 43h2M25 43h2M19 44h2M25 44h2M19 45h2M25 45h2M19 46h2M25 46h2" />
<path stroke="#9a583e" d="M20 47h2M26 47h2" />
</svg>