<svg xmlns="http://www.w3.org/2000/svg" viewBox="0 -0.5 45 64" shape-rendering="crispEdges">
<metadata>Made with Pixels to Svg https://codepen.io/shshaw/pen/XbxvNj</metadata>
<path stroke="#f1ebe5" d="M0 0h45M0 1h45M0 2h2M6 2h39M0 3h2M3 3h42M0 4h2M6 4h39M0 5h2M3 5h2M6 5h39M0 6h2M6 6h39M0 7h45M0 8h2M3 8h2M6 8h39M0 9h2M6 9h39M0 10h2M6 10h39M0 11h3M5 11h40M0 12h45M0 13h45M0 14h45M0 15h45M0 16h45M0 17h16M28 17h17M0 18h15M29 18h16M0 19h14M30 19h15M0 20h14M30 20h15M0 21h14M23 21h1M30 21h15M0 22h14M30 22h15M0 23h14M30 23h4M37 23h8M0 24h14M30 24h3M35 24h2M38 24h7M0 25h14M30 25h2M36 25h2M39 25h6M0 26h14M30 26h1M36 26h2M39 26h6M0 27h14M30 27h1M36 27h2M39 27h6M0 28h14M35 28h3M39 28h6M0 29h14M35 29h2M38 29h7M0 30h14M32 30h5M38 30h7M0 31h14M31 31h5M37 31h8M0 32h15M30 32h6M37 32h8M0 33h15M29 33h6M36 33h9M0 34h14M28 34h6M35 34h10M0 35h13M27 35h7M35 35h10M0 36h12M27 36h7M35 36h3M39 36h6M0 37h12M27 37h7M35 37h4M40 37h5M0 38h12M27 38h7M35 38h4M40 38h5M0 39h17M27 39h8M36 39h2M39 39h6M0 40h17M27 40h9M38 40h7M0 41h17M27 41h18M0 42h17M27 42h18M0 43h17M21 43h2M27 43h18M0 44h17M21 44h2M27 44h18M0 45h17M21 45h2M27 45h18M0 46h17M21 46h2M27 46h18M0 47h17M22 47h1M28 47h17M0 48h45M0 49h45M0 50h45M0 51h45M0 52h40M42 52h3M0 53h39M43 53h2M0 54h39M43 54h2M0 55h39M40 55h2M43 55h2M0 56h45M0 57h39M43 57h2M0 58h39M40 58h2M43 58h2M0 59h39M43 59h2M0 60h42M43 60h2M0 61h39M43 61h2M0 62h45M0 63h45" />
<path stroke="#bd1111" d="M2 2h4M2 3h1M2 4h4M2 5h1M5 5h1M2 6h4M2 8h1M5 8h1M2 9h4M2 10h4M3 11h2M40 52h2M39 53h4M39 54h4M39 55h1M42 55h1M39 57h4M39 58h1M42 58h1M39 59h4M42 60h1M39 61h4" />
<path stroke="#622f1a" d="M16 17h5M24 17h4M15 18h6M23 18h6M14 19h8M23 19h1M26 19h4M14 20h5M22 20h1M28 20h2M14 21h5M28 21h2M14 22h5M28 22h2M14 23h5M28 23h2M14 24h3M29 24h1M17 47h3M23 47h3" />
<path stroke="#000000" d="M21 17h2M22 18h1M25 19h1M19 20h2M23 20h5M19 21h1M27 21h1M19 22h1M27 22h1M19 23h2M25 23h3M18 24h1M21 24h1M24 24h1M28 24h1M33 24h2M17 25h4M25 25h4M17 26h2M20 26h2M24 26h2M27 26h2M17 27h1M28 27h2M17 28h1M28 28h2M33 28h2M17 29h1M28 29h1M33 29h2M17 30h1M17 31h2" />
<path stroke="#47281b" d="M23 17h1M21 18h1M22 19h1M24 19h1M21 20h1M17 24h1M14 25h3M29 25h1M14 26h3M29 26h1M14 27h3M14 28h3M14 29h3M31 29h2M14 30h3M30 30h2M14 31h3M29 31h2M15 32h1M14 35h1M13 36h2M13 37h2M13 38h3" />
<path stroke="#dc9c35" d="M20 21h2M24 21h3M20 22h2M24 22h3M22 23h2M34 23h3M37 24h1M38 25h1M38 26h1M38 27h1M38 28h1M37 29h1M37 30h1M36 31h1M36 32h1M19 33h3M24 33h3M35 33h1M21 34h4M34 34h1M22 35h2M34 35h1M22 36h2M34 36h1M38 36h1M22 37h2M34 37h1M39 37h1M19 38h1M22 38h2M26 38h1M34 38h1M39 38h1M19 39h8M35 39h1M38 39h1M21 40h4M36 40h2" />
<path stroke="#c82828" d="M22 21h1M22 22h2M19 34h1M26 34h1M19 35h2M25 35h2M19 36h3M24 36h3M19 37h3M24 37h3" />
<path stroke="#9f5d18" d="M21 23h1M17 33h2M17 38h2M17 39h2" />
<path stroke="#debf8d" d="M24 23h1" />
<path stroke="#ce9c73" d="M19 24h2M22 24h2M25 24h2M22 25h2M32 25h4M22 26h2M31 26h1M33 26h3M19 27h8M31 27h1M33 27h3M20 28h2M24 28h2M19 29h1M26 29h1M19 30h2M25 30h2M28 30h1M20 31h6M27 31h2M18 32h2M26 32h2M15 35h3M15 36h3M15 37h3M19 43h2M25 43h2M19 44h2M25 44h2M19 45h2M25 45h2M19 46h2M25 46h2" />
<path stroke="#a26d55" d="M27 24h1M21 25h1M24 25h1M32 26h1M18 27h1M27 27h1M32 27h1M18 28h2M22 28h2M26 28h2M31 28h2M18 29h1M27 29h1M16 32h2M20 32h6M28 32h2M15 33h2M22 33h2M27 33h2M14 34h3M27 34h1M13 35h1M12 36h1M12 37h1M12 38h1M17 43h2M23 43h2M17 44h2M23 44h2M17 45h2M23 45h2M17 46h2M23 46h2" />
<path stroke="#ffffff" d="M19 26h1M26 26h1M21 29h4M22 30h2" />
<path stroke="#764b39" d="M30 28h1M29 29h2M29 30h1M16 38h1" />
<path stroke="#5b3a2d" d="M20 29h1M25 29h1M18 30h1M21 30h1M24 30h1M27 30h1M19 31h1M26 31h1" />
<path stroke="#8c2e2e" d="M17 34h2M20 34h1M25 34h1M18 35h1M21 35h1M24 35h1M18 36h1M18 37h1M20 38h2M24 38h2" />
<path stroke="#252736" d="M17 40h2M20 40h1M17 41h2M17 42h2" />
<path stroke="#343d65" d="M19 40h1M25 40h2M19 41h8M19 42h8" />
<path stroke="#9a583e" d="M20 47h2M26 47h2" />
</svg>