<svg xmlns="http://www.w3.org/2000/svg" viewBox="0 -0.5 45 64" shape-rendering="crispEdges">
<metadata>Made with Pixels to Svg https://codepen.io/shshaw/pen/XbxvNj</metadata>
<path stroke="#f1ebe5" d="M0 0h45M0 1h45M0 2h2M6 2h39M0 3h2M3 3h42M0 4h2M6 4h39M0 5h2M3 5h2M6 5h39M0 6h2M6 6h39M0 7h45M0 8h3M5 8h40M0 9h2M6 9h39M0 10h2M6 10h39M0 11h45M0 12h3M5 12h40M0 13h45M0 14h45M0 15h45M0 16h45M0 17h16M28 17h17M0 18h15M29 18h16M0 19h14M30 19h15M0 20h14M30 20h15M0 21h14M30 21h15M0 22h14M30 22h15M0 23h14M30 23h15M0 24h14M30 24h15M0 25h14M30 25h15M0 26h14M30 26h15M0 27h14M30 27h15M0 28h14M30 28h15M0 29h14M30 29h15M0 30h14M30 30h15M0 31h14M30 31h15M0 32h15M30 32h15M0 33h17M28 33h17M0 34h14M29 34h16M0 35h13M29 35h16M0 36h12M29 36h16M0 37h12M29 37h16M0 38h11M29 38h16M0 39h11M29 39h16M0 40h11M29 40h16M0 41h11M29 41h16M0 42h11M22 42h1M29 42h16M0 43h12M21 43h2M27 43h18M0 44h12M21 44h2M27 44h18M0 45h13M21 45h2M27 45h18M0 46h14M21 46h2M27 46h18M0 47h17M22 47h1M28 47h17M0 48h45M0 49h45M0 50h45M0 51h40M42 51h3M0 52h45M0 53h39M43 53h2M0 54h39M43 54h2M0 55h40M42 55h3M0 56h45M0 57h39M43 57h2M0 58h39M40 58h2M43 58h2M0 59h39M43 59h2M0 60h42M43 60h2M0 61h39M43 61h2M0 62h45M0 63h45" />
<path stroke="#110f0f" d="M2 2h4M2 3h1M2 4h4M2 5h1M5 5h1M2 6h4M3 8h2M2 9h4M2 10h4M3 12h2M40 51h2M39 53h4M39 54h4M40 55h2M39 57h4M39 58h1M42 58h1M39 59h4M42 60h1M39 61h4" />
<path stroke="#622f1a" d="M16 17h5M24 17h4M15 18h6M23 18h6M14 19h8M23 19h7M14 20h5M22 20h1M28 20h2M14 21h5M28 21h2M14 22h5M28 22h2M14 23h5M28 23h2M14 24h3M29 24h1M17 47h3M23 47h3" />
<path stroke="#000000" d="M21 17h2M22 18h1M19 20h2M23 20h5M19 21h1M27 21h1M19 22h1M27 22h1M19 23h2M25 23h3M18 24h1M21 24h1M24 24h1M28 24h1M17 25h4M25 25h4M17 26h2M20 26h2M24 26h2M27 26h2M17 27h1M28 27h2M17 28h1M28 28h2M17 29h1M28 29h2M17 30h1M28 30h2M17 31h2M27 31h3M27 32h2" />
<path stroke="#47281b" d="M23 17h1M21 18h1M22 19h1M21 20h1M17 24h1M14 25h3M29 25h1M14 26h3M29 26h1M14 27h3M14 28h3M14 29h3M14 30h3M14 31h3M15 32h3M29 32h1M27 37h1M27 38h1M27 39h1M27 40h1" />
<path stroke="#a26d55" d="M20 21h1M26 21h1M27 24h1M21 25h1M24 25h1M18 27h1M27 27h1M18 28h1M22 28h2M27 28h1M18 29h4M24 29h4M22 32h3M27 41h2M27 42h2" />
<path stroke="#ce9c73" d="M21 21h3M20 22h4M26 22h1M21 23h4M19 24h2M22 24h2M25 24h2M22 25h2M22 26h2M19 27h8M19 28h3M24 28h3M22 29h2M19 30h2M25 30h2M20 31h6" />
<path stroke="#debf8d" d="M24 21h2M24 22h2" />
<path stroke="#ffffff" d="M19 26h1M26 26h1M21 34h5M16 35h2M22 35h1M24 35h1M18 36h1M18 37h1M16 38h1M19 38h1M23 38h2M15 39h2M19 39h1M23 39h2M15 40h3M19 40h1M15 41h2M19 41h1M16 42h1M19 42h1M18 43h1M18 44h1M16 45h2" />
<path stroke="#5b3a2d" d="M18 30h1M21 30h4M27 30h1M19 31h1M26 31h1" />
<path stroke="#252736" d="M18 32h2M26 32h1M17 33h3M27 33h1M19 34h1M26 34h2M26 35h2M26 36h2M26 37h1M23 42h2M23 43h2M23 44h2M23 45h2M23 46h2" />
<path stroke="#343d65" d="M20 32h2M25 32h1M21 33h2M24 33h2M20 34h1M28 34h1M20 35h2M23 35h1M25 35h1M28 35h1M21 36h5M28 36h1M21 37h5M22 40h5M22 41h5M25 42h2M25 43h2M25 44h2M20 45h1M25 45h2M19 46h2M25 46h2" />
<path stroke="#a1a5b8" d="M20 33h1M23 33h1M26 33h1M22 38h1M22 39h1" />
<path stroke="#742727" d="M14 34h2M13 35h1M12 36h1M14 36h1M17 36h1M12 37h1M14 37h1M11 38h1M13 38h1M11 39h1M13 39h1M11 40h1M13 40h1M11 41h1M13 41h1M11 42h1M13 42h1M12 43h1M14 43h1M12 44h1M14 44h1M17 44h1M13 45h1M14 46h2" />
<path stroke="#c82828" d="M16 34h2M18 35h1M15 36h2M19 36h1M17 37h1M19 37h1M18 38h1M20 38h1M18 39h1M20 39h1M18 40h1M20 40h1M18 41h1M20 41h1M18 42h1M20 42h1M17 43h1M19 43h1M15 44h2M19 44h1M18 45h1M16 46h2" />
<path stroke="#4f2222" d="M18 34h1M19 35h1M20 36h1M20 37h1M21 38h1M21 39h1M21 40h1M21 41h1M21 42h1M20 43h1M20 44h1M19 45h1M18 46h1" />
<path stroke="#bbb5b5" d="M14 35h2M13 36h1M13 37h1M12 38h1M12 39h1M14 39h1M12 40h1M12 41h1M14 41h1M12 42h1M13 43h1M13 44h1M14 45h2" />
<path stroke="#4b5dac" d="M15 37h2M15 38h1M17 38h1M17 39h1M17 41h1M15 42h1M17 42h1M15 43h2" />
<path stroke="#764b39" d="M28 37h1M25 38h2M28 38h1M25 39h2M28 39h1M28 40h1" />
<path stroke="#384065" d="M14 38h1M14 40h1M14 42h1" />
<path stroke="#9a583e" d="M20 47h2M26 47h2" />
</svg>