<svg xmlns="http://www.w3.org/2000/svg" viewBox="0 -0.5 45 64" shape-rendering="crispEdges">
<metadata>Made with Pixels to Svg https://codepen.io/shshaw/pen/XbxvNj</metadata>
<path stroke="#f1ebe5" d="M0 0h45M0 1h45M0 2h2M6 2h39M0 3h2M3 3h2M6 3h39M0 4h5M6 4h39M0 5h5M6 5h39M0 6h5M6 6h39M0 7h45M0 8h3M5 8h18M43 8h2M0 9h2M6 9h17M43 9h2M0 10h2M6 10h17M43 10h2M0 11h2M6 11h17M43 11h2M0 12h3M5 12h18M43 12h2M0 13h23M43 13h2M0 14h23M43 14h2M0 15h23M43 15h2M0 16h23M43 16h2M0 17h17M43 17h2M0 18h16M43 18h2M0 19h15M43 19h2M0 20h15M43 20h2M0 21h15M30 21h15M0 22h15M30 22h15M0 23h15M29 23h1M33 23h12M0 24h15M29 24h1M33 24h12M0 25h15M29 25h1M33 25h12M0 26h15M29 26h1M33 26h12M0 27h15M29 27h1M33 27h12M0 28h15M24 28h2M33 28h12M0 29h15M33 29h12M0 30h16M32 30h13M0 31h17M31 31h14M0 32h17M30 32h15M0 33h16M29 33h16M0 34h15M27 34h18M0 35h15M27 35h18M0 36h15M27 36h18M0 37h15M27 37h18M0 38h15M27 38h18M0 39h15M27 39h18M0 40h15M27 40h18M0 41h15M27 41h18M0 42h15M27 42h18M0 43h17M22 43h1M27 43h18M0 44h17M22 44h1M27 44h18M0 45h17M22 45h1M27 45h18M0 46h17M22 46h1M27 46h18M0 47h17M22 47h1M28 47h17M0 48h45M0 49h45M0 50h45M0 51h40M42 51h3M0 52h39M43 52h2M0 53h39M43 53h2M0 54h39M43 54h2M0 55h40M42 55h3M0 56h45M0 57h39M40 57h5M0 58h39M40 58h5M0 59h39M40 59h5M0 60h39M40 60h2M43 60h2M0 61h39M43 61h2M0 62h45M0 63h45" />
<path stroke="#bd1111" d="M2 2h4M2 3h1M5 3h1M5 4h1M5 5h1M5 6h1M3 8h2M2 9h4M2 10h4M2 11h4M3 12h2M40 51h2M39 52h4M39 53h4M39 54h4M40 55h2M39 57h1M39 58h1M39 59h1M39 60h1M42 60h1M39 61h4" />
<path stroke="#2c317c" d="M23 8h11M23 9h1M25 9h1M27 9h1M29 9h1M31 9h1M33 9h1M23 10h2M26 10h1M28 10h1M30 10h1M32 10h2M23 11h1M25 11h1M27 11h1M29 11h1M31 11h1M33 11h1M23 12h2M26 12h1M28 12h1M30 12h1M32 12h2M23 13h1M25 13h1M27 13h1M29 13h1M31 13h1M33 13h1M23 14h11" />
<path stroke="#ae2727" d="M34 8h9M42 9h1M34 10h9M42 11h1M34 12h9M42 13h1M34 14h9M23 15h1M42 15h1M23 16h20M42 17h1M30 18h13M42 19h1M30 20h13" />
<path stroke="#ffffff" d="M24 9h1M26 9h1M28 9h1M30 9h1M32 9h1M34 9h8M25 10h1M27 10h1M29 10h1M31 10h1M24 11h1M26 11h1M28 11h1M30 11h1M32 11h1M34 11h8M25 12h1M27 12h1M29 12h1M31 12h1M24 13h1M26 13h1M28 13h1M30 13h1M32 13h1M34 13h8M24 15h18M29 17h13M30 19h12M21 32h2M24 32h2M21 33h1M25 33h1M22 35h1M24 35h1M22 36h1M24 36h1" />
<path stroke="#d0ac70" d="M17 17h12M21 18h2M28 18h2M19 19h2M22 19h2M29 19h1M19 20h2M23 20h7M19 21h2M29 21h1M19 22h2M29 22h1M19 23h1" />
<path stroke="#ad7544" d="M16 18h5M15 19h4M21 19h1M15 20h4M15 21h4M15 22h4M15 23h4M20 23h1M15 24h5M15 25h2M19 25h1M15 26h2M15 27h2M15 28h2M15 29h3M16 30h3M17 31h1" />
<path stroke="#e7c793" d="M23 18h5M24 19h5" />
<path stroke="#ffcea1" d="M21 20h2M21 21h8M21 22h8M24 23h2M22 24h1M18 25h1M24 25h2M18 26h1M23 26h4M20 27h3M27 27h2M20 28h3M27 28h2M20 29h2M28 29h1M20 30h2M28 30h1M21 31h7M17 41h2M17 42h2" />
<path stroke="#9a583e" d="M21 23h2M27 23h2M20 47h2M26 47h2" />
<path stroke="#da997d" d="M23 23h1M26 23h1M30 23h3M24 24h2M30 24h3M17 25h1M20 25h1M23 25h1M26 25h1M30 25h3M17 26h1M19 26h1M18 27h2M23 27h1M26 27h1M19 28h1M19 29h1M22 29h1M27 29h1M19 30h1M22 30h1M27 30h1M19 31h2M23 32h1M15 41h2M15 42h2" />
<path stroke="#ffebd2" d="M20 24h2M27 24h2M20 26h3M27 26h2" />
<path stroke="#622f1a" d="M23 24h1M26 24h1M21 25h2M27 25h2M24 27h2M23 28h1M26 28h1M23 29h4M23 30h4M17 47h3M23 47h3" />
<path stroke="#29262a" d="M30 26h3M30 27h3M29 28h4M29 29h4M29 30h3M28 31h3M17 32h3M27 32h3M16 33h2M19 33h1M27 33h2M15 34h2M19 34h1M15 35h2M19 35h1M15 36h2M19 36h1M15 37h2M19 37h1M15 38h2M19 38h1M23 38h1M15 39h2M19 39h1M23 39h1M15 40h2M19 40h1M23 40h1M19 41h1M23 41h1M19 42h8M17 43h3M23 43h2M17 44h3M23 44h2M23 45h2M23 46h2" />
<path stroke="#992020" d="M17 27h1M17 28h2M18 29h1M18 31h1" />
<path stroke="#454048" d="M20 32h1M26 32h1M18 33h1M20 33h1M26 33h1M17 34h2M20 34h2M25 34h2M17 35h2M20 35h2M25 35h2M17 36h2M20 36h2M25 36h2M17 37h2M20 37h3M24 37h3M17 38h2M20 38h3M24 38h3M17 39h2M20 39h3M24 39h3M17 40h2M20 40h3M24 40h3M20 41h3M24 41h3M20 43h2M25 43h2M20 44h2M25 44h2M20 45h2M25 45h2M20 46h2M25 46h2" />
<path stroke="#911818" d="M22 33h1M24 33h1M23 35h1" />
<path stroke="#ff0909" d="M23 33h1M22 34h3M23 36h1M23 37h1" />
<path stroke="#1d1f2a" d="M17 45h3M17 46h3" />
</svg>