<svg xmlns="http://www.w3.org/2000/svg" viewBox="0 -0.5 45 64" shape-rendering="crispEdges">
<metadata>Made with Pixels to Svg https://codepen.io/shshaw/pen/XbxvNj</metadata>
<path stroke="#f1ebe5" d="M0 0h45M0 1h45M0 2h2M6 2h39M0 3h2M3 3h2M6 3h39M0 4h5M6 4h39M0 5h5M6 5h39M0 6h5M6 6h39M0 7h45M0 8h2M3 8h2M6 8h39M0 9h2M6 9h39M0 10h2M6 10h39M0 11h3M5 11h40M0 12h45M0 13h45M0 14h45M0 15h45M0 16h45M0 17h16M28 17h17M0 18h16M28 18h17M0 19h15M29 19h16M0 20h15M29 20h16M0 21h15M29 21h16M0 22h15M33 22h12M0 23h15M29 23h16M0 24h15M29 24h16M0 25h15M29 25h16M0 26h15M29 26h16M0 27h15M29 27h16M0 28h15M29 28h16M0 29h15M29 29h16M0 30h16M29 30h16M0 31h17M28 31h17M0 32h17M29 32h16M0 33h16M36 33h9M0 34h15M34 34h11M0 35h15M34 35h11M0 36h15M27 36h18M0 37h15M27 37h18M0 38h15M27 38h18M0 39h15M27 39h18M0 40h15M27 40h18M0 41h15M27 41h18M0 42h15M27 42h18M0 43h17M22 43h1M27 43h18M0 44h17M22 44h1M27 44h18M0 45h17M22 45h1M27 45h18M0 46h17M22 46h1M27 46h18M0 47h17M22 47h1M28 47h17M0 48h45M0 49h45M0 50h45M0 51h45M0 52h40M42 52h3M0 53h39M43 53h2M0 54h39M43 54h2M0 55h39M40 55h2M43 55h2M0 56h45M0 57h39M40 57h5M0 58h39M40 58h5M0 59h39M40 59h5M0 60h39M40 60h2M43 60h2M0 61h39M43 61h2M0 62h45M0 63h45" />
<path stroke="#bd1111" d="M2 2h4M2 3h1M5 3h1M5 4h1M5 5h1M5 6h1M2 8h1M5 8h1M2 9h4M2 10h4M3 11h2M40 52h2M39 53h4M39 54h4M39 55h1M42 55h1M39 57h1M39 58h1M39 59h1M39 60h1M42 60h1M39 61h4" />
<path stroke="#911818" d="M16 17h5M16 18h5M15 19h5M15 20h5M15 21h5M15 22h9M22 33h1M24 33h1M23 35h1" />
<path stroke="#ff0909" d="M21 17h7M21 18h7M20 19h1M28 19h1M20 20h9M20 21h1M28 21h1M24 22h9M23 33h1M22 34h3M23 36h1M23 37h1" />
<path stroke="#ffffff" d="M21 19h1M25 19h1M25 21h2M21 32h2M24 32h2M21 33h1M25 33h1M22 35h1M24 35h1M22 36h1M24 36h1" />
<path stroke="#ffb9b9" d="M22 19h2M27 19h1M21 21h2M24 21h1" />
<path stroke="#ff7f7f" d="M24 19h1M26 19h1M23 21h1M27 21h1" />
<path stroke="#ad7544" d="M15 23h4M20 23h1M15 24h5M15 25h2M19 25h1M15 26h2M15 27h2M15 28h4M15 29h4M16 30h3M17 31h2" />
<path stroke="#d0ac70" d="M19 23h1" />
<path stroke="#9a583e" d="M21 23h2M27 23h2M20 47h2M26 47h2" />
<path stroke="#da997d" d="M23 23h1M26 23h1M24 24h2M17 25h1M20 25h1M23 25h1M26 25h1M17 26h1M19 26h1M17 27h3M23 27h4M19 28h1M19 29h1M22 29h1M27 29h1M19 30h1M22 30h1M27 30h1M19 31h2M23 32h1M32 33h4M32 34h2M32 35h2M15 41h2M15 42h2" />
<path stroke="#ffcea1" d="M24 23h2M22 24h1M18 25h1M24 25h2M18 26h1M23 26h4M20 27h3M27 27h2M20 28h2M23 28h4M28 28h1M20 29h2M28 29h1M20 30h2M23 30h4M28 30h1M21 31h7M17 41h2M17 42h2" />
<path stroke="#ffebd2" d="M20 24h2M27 24h2M20 26h3M27 26h2" />
<path stroke="#622f1a" d="M23 24h1M26 24h1M21 25h2M27 25h2M22 28h1M27 28h1M23 29h4M17 47h3M23 47h3" />
<path stroke="#29262a" d="M17 32h3M27 32h2M16 33h2M19 33h1M27 33h5M15 34h2M19 34h1M27 34h5M15 35h2M19 35h1M27 35h5M15 36h2M19 36h1M15 37h2M19 37h1M15 38h2M19 38h1M23 38h1M15 39h2M19 39h1M23 39h1M15 40h2M19 40h1M23 40h1M19 41h1M23 41h1M19 42h8M17 43h3M23 43h2M17 44h3M23 44h2M23 45h2M23 46h2" />
<path stroke="#454048" d="M20 32h1M26 32h1M18 33h1M20 33h1M26 33h1M17 34h2M20 34h2M25 34h2M17 35h2M20 35h2M25 35h2M17 36h2M20 36h2M25 36h2M17 37h2M20 37h3M24 37h3M17 38h2M20 38h3M24 38h3M17 39h2M20 39h3M24 39h3M17 40h2M20 40h3M24 40h3M20 41h3M24 41h3M20 43h2M25 43h2M20 44h2M25 44h2M20 45h2M25 45h2M20 46h2M25 46h2" />
<path stroke="#1d1f2a" d="M17 45h3M17 46h3" />
</svg>