<svg xmlns="http://www.w3.org/2000/svg" viewBox="0 -0.5 45 64" shape-rendering="crispEdges">
<metadata>Made with Pixels to Svg https://codepen.io/shshaw/pen/XbxvNj</metadata>
<path stroke="#f1ebe5" d="M0 0h45M0 1h45M0 2h2M6 2h39M0 3h2M3 3h2M6 3h39M0 4h5M6 4h39M0 5h5M6 5h39M0 6h5M6 6h39M0 7h45M0 8h3M5 8h40M0 9h2M6 9h39M0 10h2M6 10h39M0 11h45M0 12h3M5 12h40M0 13h45M0 14h45M0 15h45M0 16h45M0 17h17M29 17h16M0 18h16M30 18h15M0 19h15M30 19h15M0 20h15M30 20h15M0 21h15M30 21h15M0 22h15M30 22h15M0 23h15M29 23h16M0 24h15M30 24h15M0 25h10M11 25h4M29 25h16M0 26h15M29 26h6M36 26h9M0 27h6M7 27h8M29 27h16M0 28h15M29 28h16M0 29h12M13 29h2M29 29h16M0 30h5M6 30h10M29 30h10M40 30h5M0 31h14M28 31h5M34 31h3M38 31h7M0 32h9M10 32h4M29 32h3M34 32h11M0 33h14M34 33h11M0 34h14M34 34h11M0 35h4M5 35h6M12 35h2M34 35h11M0 36h14M28 36h12M41 36h4M0 37h16M28 37h17M0 38h16M28 38h17M0 39h16M28 39h4M33 39h12M0 40h12M13 40h3M28 40h17M0 41h16M28 41h17M0 42h16M28 42h17M0 43h17M22 43h1M27 43h18M0 44h17M22 44h1M27 44h18M0 45h17M22 45h1M27 45h18M0 46h17M22 46h1M27 46h18M0 47h17M22 47h1M28 47h17M0 48h45M0 49h45M0 50h45M0 51h40M42 51h3M0 52h45M0 53h39M43 53h2M0 54h39M43 54h2M0 55h40M42 55h3M0 56h45M0 57h39M40 57h5M0 58h39M40 58h5M0 59h39M40 59h5M0 60h39M40 60h2M43 60h2M0 61h39M43 61h2M0 62h45M0 63h45" />
<path stroke="#110f0f" d="M2 2h4M2 3h1M5 3h1M5 4h1M5 5h1M5 6h1M3 8h2M2 9h4M2 10h4M3 12h2M40 51h2M39 53h4M39 54h4M40 55h2M39 57h1M39 58h1M39 59h1M39 60h1M42 60h1M39 61h4" />
<path stroke="#d0ac70" d="M17 17h12M21 18h2M28 18h2M19 19h2M22 19h2M29 19h1M19 20h2M23 20h7M19 21h2M29 21h1M19 22h2M29 22h1M19 23h1" />
<path stroke="#ad7544" d="M16 18h5M15 19h4M21 19h1M15 20h4M15 21h4M15 22h4M15 23h4M20 23h1M15 24h4M15 25h2M15 26h2M15 27h2M15 28h4M15 29h4M16 30h3M18 31h1" />
<path stroke="#e7c793" d="M23 18h5M24 19h5" />
<path stroke="#ffcea1" d="M21 20h2M21 21h8M21 22h8M24 23h2M18 25h1M18 26h1M24 26h2M20 27h4M26 27h3M20 28h3M24 28h2M27 28h2M20 29h2M28 29h1M20 30h2M23 30h4M28 30h1M15 31h3M22 31h6M33 31h1M15 32h3M33 32h1M15 33h3M33 33h1M15 34h2M33 34h1M33 35h1" />
<path stroke="#9a583e" d="M21 23h2M27 23h2M20 47h2M26 47h2" />
<path stroke="#da997d" d="M23 23h1M26 23h1M24 24h2M17 25h1M19 25h1M17 26h1M19 26h1M17 27h3M24 27h2M19 28h1M23 28h1M26 28h1M19 29h1M22 29h1M27 29h1M19 30h1M22 30h1M27 30h1M14 31h1M19 31h3M14 32h1M32 32h1M14 33h1M32 33h1M14 34h1M17 34h1M32 34h1M32 35h1" />
<path stroke="#29262a" d="M19 24h5M26 24h4M20 25h9M20 26h4M26 26h3M18 32h2M23 32h1M27 32h2M18 33h2M23 33h1M27 33h5M18 34h2M23 34h1M27 34h5M18 35h2M23 35h1M27 35h5M18 36h1M23 36h1M16 37h3M23 37h1M16 38h3M23 38h1M16 39h3M23 39h1M16 40h3M23 40h1M16 41h3M23 41h1M16 42h12M17 43h3M23 43h2M17 44h3M23 44h2M23 45h2M23 46h2" />
<path stroke="#998ba2" d="M10 25h1M35 26h1M6 27h1M12 29h1M5 30h1M39 30h1M37 31h1M9 32h1M4 35h1M11 35h1M40 36h1M32 39h1M12 40h1" />
<path stroke="#622f1a" d="M23 29h4M17 47h3M23 47h3" />
<path stroke="#454048" d="M20 32h3M24 32h3M20 33h3M24 33h3M20 34h3M24 34h3M14 35h4M20 35h3M24 35h3M14 36h4M19 36h4M24 36h4M19 37h4M24 37h4M19 38h4M24 38h4M19 39h4M24 39h4M19 40h4M24 40h4M19 41h4M24 41h4M20 43h2M25 43h2M20 44h2M25 44h2M20 45h2M25 45h2M20 46h2M25 46h2" />
<path stroke="#1d1f2a" d="M17 45h3M17 46h3" />
</svg>