<svg xmlns="http://www.w3.org/2000/svg" viewBox="0 -0.5 45 64" shape-rendering="crispEdges">
<metadata>Made with Pixels to Svg https://codepen.io/shshaw/pen/XbxvNj</metadata>
<path stroke="#f1ebe5" d="M0 0h45M0 1h45M0 2h2M6 2h39M0 3h2M3 3h2M6 3h39M0 4h2M6 4h39M0 5h2M3 5h2M6 5h39M0 6h2M6 6h39M0 7h45M0 8h3M5 8h40M0 9h2M6 9h39M0 10h2M6 10h39M0 11h3M5 11h40M0 12h2M6 12h39M0 13h45M0 14h45M0 15h45M0 16h45M0 17h45M0 18h17M27 18h18M0 19h9M10 19h6M28 19h17M0 20h6M7 20h2M10 20h2M13 20h2M29 20h16M0 21h7M8 21h1M10 21h1M12 21h2M30 21h1M37 21h8M0 22h13M38 22h7M0 23h16M32 23h1M35 23h1M39 23h6M0 24h8M12 24h4M31 24h2M35 24h2M40 24h5M0 25h8M12 25h4M30 25h3M35 25h3M40 25h5M0 26h8M13 26h3M28 26h4M36 26h9M0 27h7M13 27h3M28 27h4M36 27h9M0 28h7M13 28h3M28 28h3M36 28h9M0 29h8M14 29h2M28 29h2M36 29h9M0 30h12M35 30h10M0 31h13M32 31h1M35 31h10M0 32h14M31 32h2M35 32h10M0 33h15M29 33h4M35 33h10M0 34h16M28 34h5M35 34h10M0 35h17M27 35h18M0 36h17M27 36h18M0 37h17M27 37h18M0 38h17M27 38h18M0 39h17M27 39h18M0 40h17M27 40h18M0 41h17M21 41h2M27 41h18M0 42h17M21 42h2M27 42h18M0 43h17M21 43h2M27 43h18M0 44h17M21 44h2M27 44h18M0 45h17M21 45h2M27 45h18M0 46h17M21 46h2M27 46h18M0 47h17M22 47h1M28 47h17M0 48h45M0 49h45M0 50h45M0 51h39M43 51h2M0 52h40M42 52h3M0 53h39M43 53h2M0 54h39M43 54h2M0 55h40M42 55h3M0 56h45M0 57h39M43 57h2M0 58h39M40 58h2M43 58h2M0 59h39M43 59h2M0 60h39M40 60h2M43 60h2M0 61h39M43 61h2M0 62h45M0 63h45" />
<path stroke="#110f0f" d="M2 2h4M2 3h1M5 3h1M2 4h4M2 5h1M5 5h1M2 6h4M3 8h2M2 9h4M2 10h4M3 11h2M2 12h4M39 51h4M40 52h2M39 53h4M39 54h4M40 55h2M39 57h4M39 58h1M42 58h1M39 59h4M39 60h1M42 60h1M39 61h4" />
<path stroke="#a2703a" d="M17 18h4M16 19h4M15 20h4M14 21h4M13 22h4M8 26h1M9 27h1" />
<path stroke="#dbbe54" d="M21 18h6M20 19h8M19 20h10M18 21h12M17 22h14" />
<path stroke="#ebaf3f" d="M9 19h1M6 20h1M9 20h1M12 20h1M7 21h1M9 21h1M11 21h1M8 24h4M8 25h1" />
<path stroke="#4b464f" d="M31 21h5M31 22h6M29 23h3M36 23h2M29 24h2M37 24h2M29 25h1M38 25h2" />
<path stroke="#998e9f" d="M36 21h1M37 22h1M38 23h1M39 24h1" />
<path stroke="#8e1019" d="M16 23h4M24 23h1M16 24h3M16 25h3M16 26h3M33 26h1M8 27h1M16 27h3M33 27h3M9 28h3M16 28h3M32 28h4M11 29h3M16 29h3M31 29h2M35 29h1M12 30h3M17 30h3M30 30h3M13 31h2M18 31h3M29 31h3M30 32h1" />
<path stroke="#c6261a" d="M20 23h4M25 23h4M12 26h1M19 26h9M32 26h1M34 26h2M7 27h1M12 27h1M32 27h1M7 28h2M12 28h1M31 28h1M8 29h3M30 29h1M27 30h1M29 30h1M21 31h6" />
<path stroke="#62362f" d="M33 23h1M33 24h1M33 25h1M33 29h1M33 30h1M33 31h1M21 32h1M25 32h1M33 32h1M33 33h1M33 34h1M21 36h1M25 36h1M20 37h1M22 37h1M24 37h1M26 37h1M17 44h2M23 44h2M17 45h2M23 45h2M17 46h2M23 46h2M17 47h3M23 47h3" />
<path stroke="#9a4f2d" d="M34 23h1M34 24h1M34 25h1M34 29h1M34 30h1M34 31h1M34 32h1M21 33h1M25 33h1M34 33h1M21 34h1M25 34h1M34 34h1M21 35h1M25 35h1M19 44h2M25 44h2M19 45h2M25 45h2M19 46h2M25 46h2M20 47h2M26 47h2" />
<path stroke="#adadad" d="M19 24h1M24 24h1M19 25h1M24 25h1" />
<path stroke="#000000" d="M20 24h2M25 24h2M20 25h2M25 25h2" />
<path stroke="#ffffff" d="M22 24h2M27 24h2M10 25h1M22 25h2M27 25h2M21 28h6M22 29h4" />
<path stroke="#ffe38f" d="M9 25h1M11 25h1" />
<path stroke="#814c34" d="M9 26h3M10 27h2" />
<path stroke="#452a24" d="M19 27h1M19 28h1M19 29h1M20 30h1" />
<path stroke="#8c3522" d="M20 27h8M20 28h1M27 28h1M20 29h2M26 29h2M21 30h6" />
<path stroke="#9c8f6e" d="M15 30h1M15 31h2M28 31h1M14 32h6M27 32h3M15 33h5M27 33h2M16 34h4M27 34h1M17 35h3M17 36h3M17 37h3" />
<path stroke="#decea5" d="M16 30h1M28 30h1M17 31h1M27 31h1M20 32h1M22 32h3M26 32h1M20 33h1M22 33h3M26 33h1M20 34h1M22 34h3M26 34h1M20 35h1M22 35h3M26 35h1M20 36h1M22 36h3M26 36h1M21 37h1M23 37h1M25 37h1" />
<path stroke="#1d1f2a" d="M17 38h2M17 39h2M17 40h2M21 40h4M17 41h2M23 41h2M17 42h2M23 42h2M17 43h2M23 43h2" />
<path stroke="#4d4f5a" d="M19 38h8M19 39h8M19 40h2M25 40h2M19 41h2M25 41h2M19 42h2M25 42h2M19 43h2M25 43h2" />
</svg>