<svg xmlns="http://www.w3.org/2000/svg" viewBox="0 -0.5 45 64" shape-rendering="crispEdges">
<metadata>Made with Pixels to Svg https://codepen.io/shshaw/pen/XbxvNj</metadata>
<path stroke="#f1ebe5" d="M0 0h45M0 1h45M0 2h2M6 2h39M0 3h2M3 3h2M6 3h39M0 4h2M6 4h39M0 5h2M3 5h2M6 5h39M0 6h2M6 6h39M0 7h45M0 8h3M5 8h40M0 9h2M6 9h39M0 10h2M6 10h39M0 11h2M6 11h39M0 12h3M5 12h40M0 13h28M30 13h15M0 14h10M12 14h15M30 14h4M36 14h9M0 15h10M14 15h15M30 15h2M35 15h10M0 16h11M12 16h17M35 16h10M0 17h12M13 17h20M34 17h11M0 18h17M27 18h5M34 18h11M0 19h16M28 19h4M33 19h12M0 20h15M29 20h3M33 20h12M0 21h14M30 21h2M33 21h12M0 22h13M31 22h14M0 23h12M13 23h3M29 23h16M0 24h11M13 24h3M29 24h16M0 25h10M13 25h3M29 25h16M0 26h10M12 26h4M28 26h17M0 27h11M12 27h4M28 27h17M0 28h12M13 28h3M29 28h3M35 28h10M0 29h13M14 29h2M29 29h5M39 29h6M0 30h16M28 30h8M38 30h7M0 31h17M27 31h8M37 31h8M0 32h11M16 32h2M27 32h2M35 32h10M0 33h11M16 33h1M28 33h1M34 33h11M0 34h11M29 34h1M34 34h11M0 35h12M33 35h12M0 36h13M32 36h13M0 37h14M31 37h14M0 38h11M12 38h5M27 38h18M0 39h11M12 39h5M27 39h5M34 39h11M0 40h10M11 40h6M27 40h4M33 40h12M0 41h9M11 41h6M27 41h3M32 41h13M0 42h9M13 42h4M27 42h3M31 42h14M0 43h12M14 43h3M22 43h1M27 43h18M0 44h14M15 44h2M22 44h1M27 44h18M0 45h17M22 45h1M27 45h18M0 46h17M22 46h1M27 46h18M0 47h17M22 47h1M28 47h17M0 48h45M0 49h45M0 50h45M0 51h40M42 51h3M0 52h39M43 52h2M0 53h39M43 53h2M0 54h39M43 54h2M0 55h40M42 55h3M0 56h45M0 57h39M43 57h2M0 58h39M40 58h2M43 58h2M0 59h39M43 59h2M0 60h39M40 60h2M43 60h2M0 61h39M43 61h2M0 62h45M0 63h45" />
<path stroke="#bd1111" d="M2 2h4M2 3h1M5 3h1M2 4h4M2 5h1M5 5h1M2 6h4M3 8h2M2 9h4M2 10h4M2 11h4M3 12h2M40 51h2M39 52h4M39 53h4M39 54h4M40 55h2M39 57h4M39 58h1M42 58h1M39 59h4M39 60h1M42 60h1M39 61h4" />
<path stroke="#ffc26c" d="M28 13h2M10 14h2M27 14h3M34 14h2M10 15h4M29 15h1M32 15h3M11 16h1M29 16h6M12 17h1M33 17h1M32 18h2M32 19h1M32 20h1M32 21h1M12 23h1M11 24h2M10 25h3M10 26h2M11 27h1M12 28h1M32 28h3M13 29h1M34 29h5M36 30h2M35 31h2M34 32h1M11 38h1M11 39h1M32 39h2M10 40h1M31 40h2M9 41h2M30 41h2M9 42h4M30 42h1M12 43h2M14 44h1" />
<path stroke="#a2703a" d="M17 18h4M16 19h4M15 20h4M14 21h4M13 22h4" />
<path stroke="#dbbe54" d="M21 18h6M20 19h8M19 20h10M18 21h12M17 22h14" />
<path stroke="#8e1019" d="M16 23h4M24 23h1M16 24h3M16 25h3M16 26h4M16 27h2M16 28h2M16 29h3M16 30h4M17 31h4M11 32h2M21 32h6M29 32h2M11 33h2M18 33h2M29 33h2M11 34h2M15 34h1M19 34h1M23 34h1M30 34h2M12 35h2M19 35h8M13 36h2M19 36h1M23 36h1M27 36h1M14 37h2M18 37h2M22 37h3M27 37h3M17 38h3M23 38h1M17 39h3M22 39h3M17 47h3M23 47h3" />
<path stroke="#c6261a" d="M20 23h4M25 23h4M20 26h8M21 27h7M20 30h8M21 31h6M13 32h3M31 32h3M13 33h3M20 33h8M31 33h3M13 34h2M17 34h2M20 34h3M24 34h5M32 34h2M14 35h5M27 35h6M15 36h4M20 36h3M24 36h3M28 36h4M16 37h2M20 37h2M25 37h2M30 37h1M20 38h3M24 38h3M20 39h2M25 39h2M20 47h2M26 47h2" />
<path stroke="#adadad" d="M19 24h1M24 24h1M19 25h1M24 25h1" />
<path stroke="#ffffff" d="M20 24h2M23 24h1M25 24h2M28 24h1M20 25h1M23 25h1M25 25h1M28 25h1" />
<path stroke="#000000" d="M22 24h1M27 24h1M21 25h2M26 25h2" />
<path stroke="#452a24" d="M18 27h2M18 28h2M19 29h2" />
<path stroke="#8c3522" d="M20 27h1M20 28h9M21 29h8" />
<path stroke="#551217" d="M18 32h3M17 33h1M16 34h1" />
<path stroke="#765431" d="M17 40h3M17 41h3M17 42h3M22 42h3M17 43h3M23 43h2M17 44h3M23 44h2M17 45h3M23 45h2M17 46h3M23 46h2" />
<path stroke="#bd9452" d="M20 40h7M20 41h7M20 42h2M25 42h2M20 43h2M25 43h2M20 44h2M25 44h2M20 45h2M25 45h2M20 46h2M25 46h2" />
</svg>