<svg xmlns="http://www.w3.org/2000/svg" viewBox="0 -0.5 45 64" shape-rendering="crispEdges">
<metadata>Made with Pixels to Svg https://codepen.io/shshaw/pen/XbxvNj</metadata>
<path stroke="#f1ebe5" d="M0 0h45M0 1h45M0 2h2M6 2h39M0 3h2M3 3h2M6 3h39M0 4h2M6 4h39M0 5h2M3 5h2M6 5h39M0 6h2M6 6h39M0 7h45M0 8h2M3 8h2M6 8h39M0 9h2M6 9h39M0 10h2M6 10h39M0 11h3M5 11h40M0 12h11M25 12h2M33 12h12M0 13h12M14 13h1M25 13h2M33 13h12M0 14h12M14 14h1M25 14h2M33 14h12M0 15h12M14 15h1M25 15h2M33 15h12M0 16h12M14 16h1M25 16h2M33 16h12M0 17h45M0 18h17M27 18h18M0 19h16M28 19h17M0 20h15M29 20h16M0 21h14M30 21h15M0 22h13M31 22h14M0 23h16M29 23h16M0 24h16M29 24h16M0 25h16M29 25h6M37 25h8M0 26h15M28 26h8M38 26h7M0 27h3M7 27h7M28 27h8M39 27h6M0 28h4M8 28h5M29 28h7M39 28h6M0 29h4M8 29h4M29 29h7M40 29h5M0 30h5M9 30h3M29 30h6M40 30h5M1 31h4M9 31h2M29 31h5M40 31h5M2 32h3M9 32h2M30 32h3M40 32h4M2 33h3M10 33h1M31 33h2M40 33h4M3 34h1M40 34h4M3 35h1M39 35h4M2 36h1M38 36h5M2 37h1M38 37h4M39 38h1M0 47h18M21 47h3M27 47h18M0 48h45M0 49h45M0 50h16M30 50h15M0 51h16M18 51h2M28 51h17M0 52h16M30 52h10M42 52h3M0 53h16M18 53h2M28 53h11M43 53h2M0 54h16M18 54h2M30 54h9M43 54h2M0 55h39M40 55h2M43 55h2M0 56h45M0 57h39M43 57h2M0 58h39M40 58h2M43 58h2M0 59h39M43 59h2M0 60h39M40 60h2M43 60h2M0 61h39M43 61h2M0 62h45M0 63h45" />
<path stroke="#bd1111" d="M2 2h4M2 3h1M5 3h1M2 4h4M2 5h1M5 5h1M2 6h4M2 8h1M5 8h1M2 9h4M2 10h4M3 11h2M40 52h2M39 53h4M39 54h4M39 55h1M42 55h1M39 57h4M39 58h1M42 58h1M39 59h4M39 60h1M42 60h1M39 61h4" />
<path stroke="#969299" d="M11 12h1M15 12h1M17 12h1M19 12h1M21 12h1M27 12h1M29 12h1M12 13h1M15 13h1M17 13h1M19 13h1M21 13h1M23 13h2M27 13h1M29 13h1M31 13h2M12 14h1M15 14h1M19 14h1M21 14h1M27 14h1M29 14h1M12 15h1M15 15h1M17 15h1M19 15h1M21 15h3M27 15h1M29 15h3M12 16h1M15 16h1M17 16h1M19 16h1M21 16h1M27 16h1M29 16h1M16 50h1M20 50h1M22 50h1M26 50h1M16 51h1M20 51h1M22 51h1M24 51h1M26 51h1M16 52h1M20 52h1M22 52h1M24 52h1M26 52h1M16 53h1M20 53h1M22 53h1M24 53h1M26 53h1M16 54h1M20 54h1M22 54h1M24 54h1M26 54h1" />
<path stroke="#fbfbfb" d="M12 12h3M16 12h1M18 12h1M20 12h1M22 12h3M28 12h1M30 12h3M13 13h1M16 13h1M18 13h1M20 13h1M22 13h1M28 13h1M30 13h1M13 14h1M16 14h3M20 14h1M22 14h3M28 14h1M30 14h3M13 15h1M16 15h1M18 15h1M20 15h1M24 15h1M28 15h1M32 15h1M13 16h1M16 16h1M18 16h1M20 16h1M22 16h3M28 16h1M30 16h3M17 50h3M21 50h1M23 50h3M27 50h3M17 51h1M21 51h1M23 51h1M25 51h1M27 51h1M17 52h3M21 52h1M23 52h1M25 52h1M27 52h3M17 53h1M21 53h1M23 53h1M25 53h1M27 53h1M17 54h1M21 54h1M23 54h1M25 54h1M27 54h3" />
<path stroke="#a2703a" d="M17 18h4M16 19h4M15 20h4M14 21h4M13 22h4" />
<path stroke="#dbbe54" d="M21 18h6M20 19h8M19 20h10M18 21h12M17 22h14" />
<path stroke="#8e1019" d="M16 23h4M24 23h1M16 24h3M16 25h3M16 26h4M16 27h4M16 28h3M16 29h3M16 30h4M17 31h4M18 32h9M17 33h1M19 33h1M27 33h1M16 34h1M19 34h1M23 34h1M27 34h1M16 35h1M19 35h1M23 35h1M27 35h1M16 36h1M18 36h2M21 36h5M27 36h1M16 37h1M18 37h2M27 37h1M16 38h1M18 38h2M27 38h1M16 39h1M18 39h2M27 39h1M16 40h1M27 40h1M16 41h1M16 42h1M18 44h1M24 44h1M18 45h1M24 45h1M18 46h1M24 46h1M18 47h2M24 47h2" />
<path stroke="#c6261a" d="M20 23h4M25 23h4M20 26h8M20 27h8M20 30h8M21 31h6M18 33h1M20 33h7M17 34h2M20 34h3M24 34h3M28 34h1M17 35h2M20 35h3M24 35h3M28 35h1M17 36h1M20 36h1M26 36h1M28 36h1M17 37h1M20 37h7M28 37h1M17 38h1M20 38h7M28 38h1M17 39h1M20 39h7M28 39h1M17 40h1M28 40h1M17 41h2M27 41h2M17 42h2M27 42h2M19 44h1M25 44h1M19 45h1M25 45h1M19 46h1M25 46h1M20 47h1M26 47h1" />
<path stroke="#adadad" d="M19 24h1M24 24h1M19 25h1M24 25h1" />
<path stroke="#ffffff" d="M20 24h1M23 24h1M25 24h1M28 24h1M20 25h1M23 25h1M25 25h1M28 25h1" />
<path stroke="#000000" d="M21 24h2M26 24h2M21 25h2M26 25h2" />
<path stroke="#f6bc3e" d="M35 25h2M15 26h1M36 26h2M3 27h4M14 27h2M36 27h3M4 28h4M13 28h3M36 28h3M4 29h4M12 29h4M36 29h4M5 30h4M12 30h4M28 30h1M35 30h2M38 30h2M0 31h1M5 31h4M11 31h5M27 31h2M34 31h3M39 31h1M0 32h2M5 32h4M11 32h4M27 32h3M33 32h4M39 32h1M44 32h1M0 33h2M5 33h2M8 33h2M11 33h3M28 33h3M33 33h3M38 33h2M44 33h1M0 34h3M4 34h3M8 34h6M29 34h6M37 34h3M44 34h1M0 35h3M4 35h3M8 35h5M29 35h5M36 35h3M43 35h2M0 36h2M3 36h3M8 36h5M29 36h5M36 36h2M43 36h2M0 37h2M3 37h3M8 37h4M29 37h4M36 37h2M42 37h3M0 38h5M9 38h3M30 38h3M37 38h2M40 38h4M1 39h4M9 39h3M31 39h2M37 39h7M1 40h3M10 40h2M32 40h2M38 40h5M2 41h1M11 41h2M33 41h2M39 41h2" />
<path stroke="#452a24" d="M19 28h2M19 29h2" />
<path stroke="#8c3522" d="M21 28h8M21 29h8" />
<path stroke="#ffef6c" d="M37 30h1M16 31h1M37 31h2M15 32h3M37 32h2M7 33h1M14 33h3M36 33h2M7 34h1M14 34h2M35 34h2M7 35h1M13 35h3M34 35h2M6 36h2M13 36h3M34 36h2M6 37h2M12 37h4M33 37h3M5 38h4M12 38h4M29 38h1M33 38h4M44 38h1M0 39h1M5 39h4M12 39h4M29 39h2M33 39h4M44 39h1M0 40h1M4 40h6M12 40h4M29 40h3M34 40h4M43 40h2M0 41h2M3 41h8M13 41h3M29 41h4M35 41h4M41 41h4M0 42h16M29 42h16M0 43h17M22 43h1M27 43h18M0 44h18M20 44h4M26 44h19M0 45h18M20 45h4M26 45h19M0 46h18M20 46h4M26 46h19" />
<path stroke="#29262a" d="M18 40h2M19 41h1M19 42h1M22 42h3M17 43h3M23 43h2" />
<path stroke="#454048" d="M20 40h7M20 41h7M20 42h2M25 42h2M20 43h2M25 43h2" />
</svg>