<svg xmlns="http://www.w3.org/2000/svg" viewBox="0 -0.5 45 64" shape-rendering="crispEdges">
<metadata>Made with Pixels to Svg https://codepen.io/shshaw/pen/XbxvNj</metadata>
<path stroke="#f1ebe5" d="M0 0h45M0 1h45M0 2h2M6 2h39M0 3h2M3 3h2M6 3h39M0 4h2M6 4h39M0 5h2M3 5h2M6 5h39M0 6h2M6 6h39M0 7h45M0 8h3M5 8h40M0 9h2M6 9h39M0 10h2M6 10h39M0 11h45M0 12h3M5 12h40M0 13h45M0 14h45M0 15h45M0 16h45M0 17h45M0 18h17M27 18h18M0 19h16M28 19h17M0 20h15M29 20h16M0 21h14M30 21h15M0 22h13M31 22h14M0 23h15M29 23h16M0 24h15M20 24h1M25 24h1M29 24h16M0 25h13M29 25h16M0 26h12M28 26h17M0 27h11M28 27h17M0 28h10M29 28h16M0 29h10M15 29h1M29 29h16M0 30h10M28 30h17M0 31h10M27 31h18M0 32h11M27 32h18M0 33h12M28 33h17M0 34h14M29 34h16M0 35h15M29 35h16M0 36h16M29 36h16M0 37h16M29 37h16M0 38h16M29 38h16M0 39h16M29 39h16M0 40h16M29 40h16M0 41h16M28 41h17M0 42h16M28 42h17M0 43h16M21 43h1M26 43h19M0 44h17M20 44h3M26 44h19M0 45h17M20 45h3M26 45h19M0 46h17M20 46h3M26 46h19M0 47h17M21 47h2M27 47h18M0 48h45M0 49h45M0 50h45M0 51h40M42 51h3M0 52h45M0 53h39M43 53h2M0 54h39M43 54h2M0 55h40M42 55h3M0 56h45M0 57h39M43 57h2M0 58h39M40 58h2M43 58h2M0 59h39M43 59h2M0 60h39M40 60h2M43 60h2M0 61h39M43 61h2M0 62h45M0 63h45" />
<path stroke="#110f0f" d="M2 2h4M2 3h1M5 3h1M2 4h4M2 5h1M5 5h1M2 6h4M3 8h2M2 9h4M2 10h4M3 12h2M40 51h2M39 53h4M39 54h4M40 55h2M39 57h4M39 58h1M42 58h1M39 59h4M39 60h1M42 60h1M39 61h4" />
<path stroke="#a2703a" d="M17 18h4M16 19h4M15 20h4M14 21h4M13 22h4" />
<path stroke="#dbbe54" d="M21 18h6M20 19h8M19 20h10M18 21h12M17 22h14" />
<path stroke="#8e1019" d="M15 23h5M24 23h1M15 24h1M18 26h2M16 27h2M16 28h2M16 29h3M16 30h4M17 31h4M21 32h3M17 44h1M23 44h1M17 45h1M23 45h1M17 46h1M23 46h1M17 47h2M23 47h2" />
<path stroke="#c6261a" d="M20 23h4M25 23h4M16 24h2M15 25h4M16 26h2M23 26h3M20 27h8M20 30h8M21 31h6M26 41h2M26 42h2M18 44h2M24 44h2M18 45h2M24 45h2M18 46h2M24 46h2M19 47h2M25 47h2" />
<path stroke="#000000" d="M18 24h2M21 24h4M26 24h3M19 25h10M20 26h3M26 26h2" />
<path stroke="#212f68" d="M13 25h2M12 26h3M11 27h3M10 28h3M10 29h2M10 30h2M10 31h3M11 32h3M18 32h1M26 32h1M12 33h3M18 33h1M26 33h1M14 34h5M26 34h1M15 35h4M26 35h1M16 36h3M26 36h1M16 37h3M26 37h1M16 38h3M26 38h1M16 39h3M26 39h1M26 40h1" />
<path stroke="#374daa" d="M15 26h1M14 27h2M13 28h3M12 29h3M12 30h4M13 31h4M14 32h4M19 32h2M24 32h2M15 33h3M19 33h7M27 33h1M19 34h2M24 34h2M27 34h2M19 35h1M25 35h1M27 35h2M19 36h1M25 36h1M27 36h2M19 37h1M25 37h1M27 37h2M19 38h2M24 38h2M27 38h2M19 39h7M27 39h2M27 40h2" />
<path stroke="#452a24" d="M18 27h2M18 28h3M19 29h2" />
<path stroke="#8c3522" d="M21 28h8M21 29h8" />
<path stroke="#827d70" d="M21 34h3M20 35h1M24 35h1M20 36h1M24 36h1M20 37h1M24 37h1M21 38h3" />
<path stroke="#dbb62c" d="M21 35h3M21 36h3M21 37h3" />
<path stroke="#878976" d="M16 40h3M16 41h3M16 42h3M21 42h3M16 43h3M22 43h2" />
<path stroke="#cfd3a3" d="M19 40h7M19 41h7M19 42h2M24 42h2M19 43h2M24 43h2" />
</svg>