<svg xmlns="http://www.w3.org/2000/svg" viewBox="0 -0.5 45 64" shape-rendering="crispEdges">
<metadata>Made with Pixels to Svg https://codepen.io/shshaw/pen/XbxvNj</metadata>
<path stroke="#f1ebe5" d="M0 0h45M0 1h45M0 2h2M6 2h39M0 3h2M3 3h2M6 3h39M0 4h2M6 4h39M0 5h5M6 5h39M0 6h2M6 6h39M0 7h45M0 8h3M5 8h40M0 9h2M6 9h39M0 10h2M6 10h39M0 11h3M5 11h40M0 12h2M6 12h39M0 13h45M0 14h45M0 15h45M0 16h45M0 17h45M0 18h45M0 19h15M18 19h8M29 19h16M0 20h15M29 20h16M0 21h15M29 21h16M0 22h16M28 22h17M0 23h16M29 23h16M0 24h16M29 24h16M0 25h16M29 25h16M0 26h16M29 26h16M0 27h16M29 27h16M0 28h16M29 28h16M0 29h16M29 29h16M0 30h16M29 30h16M0 31h17M28 31h17M0 32h17M28 32h17M0 33h16M29 33h16M0 34h15M30 34h15M0 35h15M30 35h15M0 36h15M30 36h15M0 37h15M30 37h15M0 38h15M30 38h15M0 39h15M30 39h15M0 40h15M30 40h15M0 41h15M30 41h15M0 42h15M29 42h16M0 43h17M21 43h2M27 43h18M0 44h17M21 44h2M27 44h18M0 45h17M21 45h2M27 45h18M0 46h17M21 46h2M27 46h18M0 47h17M22 47h1M28 47h17M0 48h45M0 49h45M0 50h45M0 51h39M43 51h2M0 52h40M42 52h3M0 53h39M43 53h2M0 54h39M43 54h2M0 55h40M42 55h3M0 56h45M0 57h39M43 57h2M0 58h39M40 58h5M0 59h39M43 59h2M0 60h39M40 60h2M43 60h2M0 61h39M43 61h2M0 62h45M0 63h45" />
<path stroke="#110f0f" d="M2 2h4M2 3h1M5 3h1M2 4h4M5 5h1M2 6h4M3 8h2M2 9h4M2 10h4M3 11h2M2 12h4M39 51h4M40 52h2M39 53h4M39 54h4M40 55h2M39 57h4M39 58h1M39 59h4M39 60h1M42 60h1M39 61h4" />
<path stroke="#000000" d="M15 19h3M26 19h3M15 20h3M28 20h1M15 21h3M28 21h1M17 23h3M17 24h3M17 25h2M20 25h2M25 25h2M17 26h3M17 27h3M24 28h1M17 32h2M16 33h2M15 34h2M15 35h2M15 36h2M15 37h2M15 38h2M15 39h2M15 40h2M15 41h2M19 41h1M27 41h1M15 42h2M19 42h1M21 42h4M27 42h1M17 43h2M23 43h2M17 44h2M23 44h2M17 45h2M23 45h2M17 46h2M23 46h2M17 47h3M23 47h3" />
<path stroke="#adadad" d="M18 20h2M24 20h1M18 21h2M24 21h1M16 22h12M16 23h1M24 23h1M16 24h1M24 24h1M16 25h1M19 25h1M24 25h1M16 26h1M24 26h1M16 27h1M16 28h4M22 28h2M25 28h2M16 29h4M23 29h1M25 29h1M16 30h4M22 30h1M26 30h1M17 31h4" />
<path stroke="#ffffff" d="M20 20h4M25 20h3M20 21h4M25 21h3M22 25h2M27 25h2M21 27h7M20 28h2M27 28h2M20 29h2M27 29h2M20 30h2M27 30h2M21 31h7M20 34h7M20 35h7M20 36h7M20 37h7M20 38h7M20 39h3M25 39h2M20 40h7" />
<path stroke="#393737" d="M20 23h4M25 23h4M20 24h4M25 24h4M20 26h4M25 26h4M20 27h1M28 27h1M24 29h1M24 30h1M19 32h9M18 33h11M17 34h2M28 34h2M17 35h2M28 35h2M17 36h2M28 36h2M17 37h2M28 37h2M17 38h2M28 38h2M17 39h2M28 39h2M17 40h2M28 40h2M17 41h2M20 41h7M28 41h2M17 42h2M20 42h1M25 42h2M28 42h1M19 43h2M25 43h2M19 44h2M25 44h2M19 45h2M25 45h2M19 46h2M25 46h2M20 47h2M26 47h2" />
<path stroke="#7b7b7b" d="M22 29h1M26 29h1M23 30h1M25 30h1M19 34h1M27 34h1M19 35h1M27 35h1M19 36h1M27 36h1M19 37h1M27 37h1M19 38h1M27 38h1M19 39h1M23 39h2M27 39h1M19 40h1M27 40h1" />
</svg>