<svg xmlns="http://www.w3.org/2000/svg" viewBox="0 -0.5 45 64" shape-rendering="crispEdges">
<metadata>Made with Pixels to Svg https://codepen.io/shshaw/pen/XbxvNj</metadata>
<path stroke="#f1ebe5" d="M0 0h45M0 1h45M0 2h2M6 2h39M0 3h2M3 3h2M6 3h39M0 4h2M6 4h39M0 5h5M6 5h39M0 6h2M6 6h39M0 7h45M0 8h3M5 8h40M0 9h2M6 9h39M0 10h2M6 10h39M0 11h2M6 11h39M0 12h3M5 12h40M0 13h45M0 14h45M0 15h45M0 16h45M0 17h45M0 18h45M0 19h14M17 19h8M28 19h17M0 20h14M28 20h17M0 21h14M28 21h17M0 22h15M27 22h18M0 23h15M28 23h17M0 24h15M28 24h17M0 25h15M19 25h1M28 25h17M0 26h15M28 26h17M0 27h15M28 27h17M0 28h15M28 28h17M0 29h15M28 29h17M0 30h15M28 30h17M0 31h16M27 31h4M35 31h10M0 32h15M28 32h3M36 32h9M0 33h14M29 33h1M36 33h9M0 34h14M35 34h10M0 35h14M35 35h10M0 36h14M35 36h10M0 37h14M30 37h15M0 38h14M27 38h18M0 39h14M27 39h18M0 40h14M27 40h18M0 41h14M27 41h18M0 42h14M27 42h18M0 43h17M21 43h2M27 43h18M0 44h17M21 44h2M27 44h18M0 45h17M21 45h2M27 45h18M0 46h17M21 46h2M27 46h18M0 47h17M22 47h1M28 47h17M0 48h45M0 49h45M0 50h45M0 51h40M42 51h3M0 52h39M43 52h2M0 53h39M43 53h2M0 54h39M43 54h2M0 55h40M42 55h3M0 56h45M0 57h39M43 57h2M0 58h39M40 58h5M0 59h39M43 59h2M0 60h39M40 60h2M43 60h2M0 61h39M43 61h2M0 62h45M0 63h45" />
<path stroke="#bd1111" d="M2 2h4M2 3h1M5 3h1M2 4h4M5 5h1M2 6h4M3 8h2M2 9h4M2 10h4M2 11h4M3 12h2M40 51h2M39 52h4M39 53h4M39 54h4M40 55h2M39 57h4M39 58h1M39 59h4M39 60h1M42 60h1M39 61h4" />
<path stroke="#372922" d="M14 19h1M25 19h1M14 20h1M17 20h2M14 21h1M17 21h2M15 22h4M22 22h3M15 23h3M15 25h3M15 26h3M15 27h3M15 28h3M21 28h2M24 28h2M15 29h3M22 29h1M24 29h1M15 30h3M21 30h1M25 30h1M16 31h3M26 31h1M19 32h2M25 32h1M30 34h1M30 35h1" />
<path stroke="#6d5042" d="M15 19h2M26 19h2M15 20h1M19 20h4M24 20h2M27 20h1M15 21h2M19 21h4M24 21h4M19 23h4M24 23h4M18 26h1M22 26h3M27 26h1M18 27h4M25 27h3M18 28h3M26 28h2M18 29h3M26 29h2M18 30h3M26 30h2M19 31h7M16 41h2M16 42h2M19 44h2M25 44h2M19 45h2M25 45h2M19 46h2M25 46h2M20 47h2M26 47h2" />
<path stroke="#b29089" d="M16 20h1M26 20h1" />
<path stroke="#584136" d="M23 20h1M23 21h1M19 22h3M25 22h2M18 23h1M23 23h1M23 25h1M21 32h4M30 33h1M14 41h2M14 42h2M17 44h2M23 44h2M17 45h2M23 45h2M17 46h2M23 46h2M17 47h3M23 47h3" />
<path stroke="#000000" d="M15 24h13M18 25h1M20 25h3M24 25h4M19 26h3M25 26h2M22 27h3M23 28h1M21 29h1M23 29h1M25 29h1M22 30h3" />
<path stroke="#cdbcbc" d="M31 31h1M31 32h2M33 33h1" />
<path stroke="#ffffff" d="M32 31h3M33 32h3M34 33h2" />
<path stroke="#4f211e" d="M15 32h3M26 32h1M14 33h3M14 34h2M18 34h1M29 34h1M14 35h2M18 35h1M28 35h1M14 36h2M18 36h1M27 36h1M14 37h2M18 37h1M27 37h1M14 38h2M18 38h1M14 39h2M18 39h1M14 40h2" />
<path stroke="#82241e" d="M18 32h1M18 33h1M27 33h1M27 34h1M27 35h1M29 35h1M28 36h3M28 37h2" />
<path stroke="#ae2727" d="M27 32h1M28 33h1M28 34h1" />
<path stroke="#c6261a" d="M17 33h1M19 33h8M16 34h2M19 34h8M16 35h2M19 35h8M16 36h2M19 36h8M16 37h2M19 37h8M16 38h2M19 38h8M16 39h2M19 39h8M16 40h2" />
<path stroke="#e7ffff" d="M31 33h1M31 34h1M34 34h1M31 35h1M34 35h1M31 36h4" />
<path stroke="#e4b439" d="M32 33h1M32 34h2M32 35h2" />
<path stroke="#29262a" d="M18 40h1M18 41h1M18 42h1M21 42h4M17 43h2M23 43h2" />
<path stroke="#454048" d="M19 40h8M19 41h8M19 42h2M25 42h2M19 43h2M25 43h2" />
</svg>