<svg xmlns="http://www.w3.org/2000/svg" viewBox="0 -0.5 45 64" shape-rendering="crispEdges">
<metadata>Made with Pixels to Svg https://codepen.io/shshaw/pen/XbxvNj</metadata>
<path stroke="#f1ebe5" d="M0 0h45M0 1h45M0 2h2M6 2h39M0 3h2M3 3h2M6 3h39M0 4h2M6 4h39M0 5h5M6 5h39M0 6h2M6 6h39M0 7h45M0 8h2M3 8h2M6 8h39M0 9h2M6 9h39M0 10h2M6 10h39M0 11h3M5 11h40M0 12h45M0 13h45M0 14h45M0 15h45M0 16h45M0 17h45M0 18h45M0 19h14M17 19h8M28 19h17M0 20h14M28 20h17M0 21h14M28 21h17M0 22h15M27 22h18M0 23h15M28 23h17M0 24h15M28 24h17M0 25h15M28 25h17M0 26h15M28 26h17M0 27h15M28 27h17M0 28h15M28 28h17M0 29h15M28 29h17M0 30h15M28 30h17M0 31h16M27 31h18M0 32h15M28 32h17M0 33h14M29 33h16M0 34h14M29 34h16M0 35h14M29 35h16M0 36h14M29 36h16M0 37h14M29 37h16M0 38h14M29 38h16M0 39h14M29 39h16M0 40h14M29 40h16M0 41h14M29 41h16M0 42h14M29 42h16M0 43h16M21 43h2M27 43h18M0 44h16M21 44h2M27 44h18M0 45h16M21 45h2M27 45h18M0 46h17M21 46h2M27 46h18M0 47h17M22 47h1M28 47h17M0 48h45M0 49h45M0 50h45M0 51h45M0 52h40M42 52h3M0 53h39M43 53h2M0 54h39M43 54h2M0 55h39M40 55h2M43 55h2M0 56h45M0 57h39M43 57h2M0 58h39M40 58h5M0 59h39M43 59h2M0 60h39M40 60h2M43 60h2M0 61h39M43 61h2M0 62h45M0 63h45" />
<path stroke="#bd1111" d="M2 2h4M2 3h1M5 3h1M2 4h4M5 5h1M2 6h4M2 8h1M5 8h1M2 9h4M2 10h4M3 11h2M40 52h2M39 53h4M39 54h4M39 55h1M42 55h1M39 57h4M39 58h1M39 59h4M39 60h1M42 60h1M39 61h4" />
<path stroke="#372922" d="M14 19h1M25 19h1M14 20h1M17 20h2M14 21h1M17 21h2M15 22h4M15 23h4M15 24h3M15 25h3M15 26h3M15 27h4M15 28h4M21 28h2M24 28h2M15 29h4M21 29h1M25 29h1M15 30h4M22 30h3M16 31h4M26 31h1M20 32h6" />
<path stroke="#6d5042" d="M15 19h2M26 19h2M15 20h1M19 20h4M24 20h2M27 20h1M15 21h2M19 21h4M24 21h4M19 23h4M24 23h4M23 26h1M19 27h3M25 27h3M19 28h2M26 28h2M19 29h2M26 29h2M19 30h2M26 30h2M20 31h6M16 41h2M16 42h2M20 47h2M26 47h2" />
<path stroke="#b29089" d="M16 20h1M26 20h1" />
<path stroke="#584136" d="M23 20h1M23 21h1M19 22h8M23 23h1M23 24h1M23 25h1M14 41h2M27 41h2M14 42h2M27 42h2M17 47h3M23 47h3" />
<path stroke="#adadad" d="M18 24h1M18 25h1" />
<path stroke="#000000" d="M19 24h2M24 24h2M19 25h2M24 25h2M22 27h3M23 28h1M22 29h3M21 30h1M25 30h1" />
<path stroke="#ffffff" d="M21 24h2M26 24h2M21 25h2M26 25h2M19 41h1M21 41h1" />
<path stroke="#6c79a1" d="M18 26h1" />
<path stroke="#a2b2e3" d="M19 26h4M24 26h4" />
<path stroke="#4f211e" d="M15 32h3M27 32h1M14 33h3M27 33h1M14 34h2M18 34h1M27 34h1M14 35h2M18 35h1M27 35h1M14 36h2M18 36h1M27 36h1M14 37h2M18 37h1M27 37h1M14 38h2M18 38h1M27 38h1M14 39h2M18 39h1M27 39h1M14 40h2M27 40h1" />
<path stroke="#82241e" d="M18 32h1M18 33h1M28 33h1M28 34h1M28 35h1M28 36h1M28 37h1M28 38h1M28 39h1M28 40h1" />
<path stroke="#c6261a" d="M19 32h1M26 32h1M17 33h1M19 33h8M16 34h2M19 34h8M16 35h2M19 35h8M16 36h2M19 36h8M16 37h2M19 37h8M16 38h2M19 38h8M16 39h2M19 39h8M16 40h2" />
<path stroke="#43553d" d="M18 40h1M18 41h1M16 43h1M16 44h1M16 45h1M18 45h1" />
<path stroke="#5e934b" d="M19 40h2M20 41h1M17 43h3M17 44h3M17 45h1M19 45h1" />
<path stroke="#a8a8a8" d="M21 40h6M22 41h5M25 42h2M20 43h1M25 43h2M20 44h1M25 44h2M20 45h1M25 45h2M19 46h2M25 46h2" />
<path stroke="#452a24" d="M18 42h1" />
<path stroke="#8c3522" d="M19 42h2" />
<path stroke="#737373" d="M21 42h4M23 43h2M23 44h2M23 45h2M17 46h2M23 46h2" />
</svg>