<svg xmlns="http://www.w3.org/2000/svg" viewBox="0 -0.5 45 64" shape-rendering="crispEdges">
<metadata>Made with Pixels to Svg https://codepen.io/shshaw/pen/XbxvNj</metadata>
<path stroke="#f1ebe5" d="M0 0h45M0 1h45M0 2h2M6 2h39M0 3h2M3 3h2M6 3h39M0 4h2M6 4h39M0 5h5M6 5h39M0 6h2M6 6h39M0 7h45M0 8h3M5 8h40M0 9h2M6 9h39M0 10h2M6 10h39M0 11h45M0 12h3M5 12h40M0 13h45M0 14h45M0 15h45M0 16h45M0 17h45M0 18h18M27 18h18M0 19h14M30 19h15M0 20h14M30 20h15M0 21h14M30 21h15M0 22h15M29 22h16M0 23h14M30 23h15M0 24h14M30 24h15M0 25h14M30 25h15M0 26h14M30 26h15M0 27h14M30 27h15M0 28h14M30 28h15M0 29h14M30 29h15M0 30h15M31 30h14M0 31h16M31 31h14M0 32h17M28 32h17M0 33h17M29 33h16M0 34h15M30 34h15M0 35h15M30 35h15M0 36h14M30 36h15M0 37h14M30 37h15M0 38h14M30 38h15M0 39h14M30 39h15M0 40h17M30 40h15M0 41h17M30 41h15M0 42h17M30 42h15M0 43h17M21 43h2M27 43h18M0 44h17M21 44h2M27 44h18M0 45h17M21 45h2M27 45h18M0 46h17M21 46h2M27 46h18M0 47h17M22 47h1M28 47h17M0 48h45M0 49h45M0 50h45M0 51h40M42 51h3M0 52h45M0 53h39M43 53h2M0 54h39M43 54h2M0 55h40M42 55h3M0 56h45M0 57h39M43 57h2M0 58h39M40 58h5M0 59h39M43 59h2M0 60h39M40 60h2M43 60h2M0 61h39M43 61h2M0 62h45M0 63h45" />
<path stroke="#110f0f" d="M2 2h4M2 3h1M5 3h1M2 4h4M5 5h1M2 6h4M3 8h2M2 9h4M2 10h4M3 12h2M40 51h2M39 53h4M39 54h4M40 55h2M39 57h4M39 58h1M39 59h4M39 60h1M42 60h1M39 61h4" />
<path stroke="#372922" d="M18 18h3M26 18h1M14 19h1M17 19h2M27 19h1M14 20h1M17 20h1M26 20h2M14 21h1M16 21h13M15 22h14M14 23h4M28 23h2M14 24h4M28 24h2M14 25h4M28 25h2M14 26h4M28 26h2M14 27h3M28 27h2M14 28h3M20 28h3M24 28h3M28 28h2M14 29h3M19 29h2M22 29h1M24 29h1M26 29h4M15 30h2M25 30h1M27 30h4M16 31h1M27 31h4M17 32h1M21 32h6M20 33h1M15 34h2M20 34h1M15 35h2M20 35h1M14 36h2M27 36h1M14 37h2M18 37h1M20 37h1M27 37h1M14 38h2M18 38h1M20 38h1M27 38h1M14 39h5M20 39h1M27 39h1M17 40h2M20 40h1M26 40h4M17 41h2M27 41h1M17 42h2M21 42h4M27 42h1M17 43h2M23 43h2M17 44h2M23 44h2M17 45h2M23 45h2M17 46h2M23 46h2M17 47h3M23 47h3" />
<path stroke="#584136" d="M21 18h5M19 19h8M18 20h8M18 23h2M22 23h3M27 23h1M18 24h1M23 24h1M23 25h1M18 26h1M27 26h1M17 27h2M17 28h2M17 29h2M26 30h1M26 31h1M27 32h1M28 33h1M29 34h1M17 35h2M27 35h1M17 36h1M19 41h2M26 41h1M19 46h2M25 46h2" />
<path stroke="#6d5042" d="M15 19h2M28 19h2M15 20h1M29 20h1M15 21h1M29 21h1M20 23h2M25 23h2M19 24h4M24 24h4M19 26h8M19 27h3M25 27h3M19 28h1M27 28h1M22 31h4M17 33h3M26 33h2M17 34h3M26 34h3M26 35h1M28 35h2M16 36h1M26 36h1M28 36h2M16 37h2M19 37h1M26 37h1M28 37h2M16 38h2M19 38h1M26 38h1M28 38h2M19 39h1M26 39h1M28 39h2M19 40h1M21 40h5M21 41h5M28 41h2M19 42h2M25 42h2M28 42h2M19 43h2M25 43h2M19 44h2M25 44h2M19 45h2M25 45h2M20 47h2M26 47h2" />
<path stroke="#b29089" d="M16 20h1M28 20h1" />
<path stroke="#adadad" d="M18 25h1" />
<path stroke="#000000" d="M19 25h2M24 25h2M22 27h3M23 28h1M21 29h1M23 29h1M25 29h1M22 30h3" />
<path stroke="#ffffff" d="M21 25h2M26 25h2" />
<path stroke="#e7ffff" d="M17 30h1M21 30h1M17 31h1M21 31h1M18 32h3M19 35h1M18 36h3" />
<path stroke="#a44026" d="M18 30h3M18 31h3" />
<path stroke="#504125" d="M21 33h1M25 33h1M22 34h3" />
<path stroke="#4b5e48" d="M22 33h3" />
<path stroke="#dba135" d="M21 34h1M25 34h1M22 35h1M24 35h1M21 36h1M25 36h1M21 37h2M24 37h2M21 38h2M24 38h2M21 39h2M24 39h2" />
<path stroke="#84652a" d="M21 35h1M23 35h1M25 35h1M22 36h3M23 37h1M23 38h1M23 39h1" />
</svg>