<svg xmlns="http://www.w3.org/2000/svg" viewBox="0 -0.5 45 64" shape-rendering="crispEdges">
<metadata>Made with Pixels to Svg https://codepen.io/shshaw/pen/XbxvNj</metadata>
<path stroke="#f1ebe5" d="M0 0h45M0 1h45M0 2h3M5 2h40M0 3h2M3 3h2M6 3h39M0 4h2M6 4h39M0 5h2M3 5h2M6 5h39M0 6h2M3 6h2M6 6h39M0 7h45M0 8h3M5 8h40M0 9h2M6 9h39M0 10h2M6 10h39M0 11h3M5 11h40M0 12h2M6 12h39M0 13h45M0 14h45M0 15h45M0 16h45M0 17h45M0 18h33M35 18h10M0 19h17M29 19h3M36 19h9M0 20h16M29 20h3M36 20h9M0 21h15M29 21h3M36 21h9M0 22h15M29 22h3M36 22h9M0 23h15M29 23h3M36 23h9M0 24h15M29 24h3M36 24h9M0 25h15M29 25h3M36 25h9M0 26h16M29 26h3M36 26h9M0 27h16M29 27h3M36 27h9M0 28h16M29 28h3M36 28h9M0 29h16M29 29h2M37 29h8M0 30h16M36 30h9M0 31h16M36 31h9M0 32h13M35 32h10M0 33h13M33 33h12M0 34h13M31 34h14M0 35h12M30 35h15M0 36h12M30 36h15M0 37h12M30 37h15M0 38h12M30 38h15M0 39h12M30 39h15M0 40h12M30 40h15M0 41h12M30 41h15M0 42h12M30 42h15M0 43h12M30 43h15M0 44h12M30 44h15M0 45h12M30 45h15M0 46h12M28 46h17M0 47h15M20 47h4M29 47h16M0 48h45M0 49h45M0 50h45M0 51h39M43 51h2M0 52h40M42 52h3M0 53h39M43 53h2M0 54h39M43 54h2M0 55h40M42 55h3M0 56h45M0 57h39M40 57h2M43 57h2M0 58h39M40 58h2M43 58h2M0 59h39M43 59h2M0 60h39M40 60h2M43 60h2M0 61h40M42 61h3M0 62h45M0 63h45" />
<path stroke="#110f0f" d="M3 2h2M2 3h1M5 3h1M2 4h4M2 5h1M5 5h1M2 6h1M5 6h1M3 8h2M2 9h4M2 10h4M3 11h2M2 12h4M39 51h4M40 52h2M39 53h4M39 54h4M40 55h2M39 57h1M42 57h1M39 58h1M42 58h1M39 59h4M39 60h1M42 60h1M40 61h2" />
<path stroke="#8b8b8b" d="M33 18h1M32 19h1M32 20h1M32 21h1M32 22h1M32 23h1M32 24h1M32 25h1M32 26h1M32 27h1M32 28h1" />
<path stroke="#ffffff" d="M34 18h1M34 19h1M34 20h1M34 21h1M34 22h1M20 23h2M26 23h2M34 23h1M20 24h2M26 24h2M34 24h1M34 25h1M34 26h1M20 27h1M27 27h1M34 27h1M20 33h2M26 33h2M24 35h2M15 36h3M24 36h2M15 37h3M24 37h2M17 38h1M17 39h1M22 41h1M24 41h1M16 42h2M22 42h1M24 42h1M17 43h1M22 43h1M24 43h1M15 44h3M15 45h3" />
<path stroke="#9ea8b2" d="M17 19h1M16 20h2M15 21h3M15 22h3M15 23h2M15 24h1M17 24h1M16 25h2M16 26h2M16 27h2M16 28h2M16 29h2M16 30h2M16 31h2M30 31h2M29 32h4M19 33h1M25 33h1M29 33h4M19 34h1M25 34h1M28 34h3M26 43h2M26 44h2M24 46h4M19 47h1M24 47h1" />
<path stroke="#e6fafa" d="M18 19h5M24 19h5M18 20h5M24 20h5M18 21h5M24 21h5M18 23h2M22 23h1M24 23h2M28 23h1M18 24h2M22 24h1M24 24h2M28 24h1M18 25h1M28 25h1M18 26h1M28 26h1M18 27h1M28 27h1M18 28h1M28 28h1M18 29h2M28 29h1M18 30h3M27 30h2M30 30h2M18 31h3M27 31h2M20 34h2M26 34h2M21 35h3M26 35h1M21 36h3M26 36h1M21 37h3M26 37h1M24 45h4M15 47h4M25 47h4" />
<path stroke="#374daa" d="M23 19h1M23 20h1M23 21h1M18 22h11M23 23h1M23 24h1M29 30h1M17 32h4M26 32h3M17 33h2M17 34h2M15 38h2M15 39h2M15 40h3M15 41h3M21 41h1M23 41h1M25 41h1M15 42h1M21 42h1M23 42h1M25 42h1M14 43h3M21 43h1M23 43h1M25 43h1M21 44h5" />
<path stroke="#e0e0e0" d="M33 19h1M35 19h1M33 20h1M35 20h1M33 21h1M35 21h1M33 22h1M35 22h1M33 23h1M35 23h1M33 24h1M35 24h1M33 25h1M35 25h1M33 26h1M35 26h1M33 27h1M35 27h1M34 28h1" />
<path stroke="#212f68" d="M17 23h1M16 24h1M15 25h1M29 31h1M13 32h4M13 33h4M28 33h1M13 34h4M22 34h3M20 35h1M20 36h1M20 37h1M14 38h1M14 39h1M13 40h2M21 40h1M23 40h1M25 40h1M13 41h2" />
<path stroke="#000000" d="M19 25h1M19 26h4M25 26h3" />
<path stroke="#3f3f3f" d="M20 25h2M26 25h2M21 27h2M25 27h2" />
<path stroke="#f6d5aa" d="M22 25h4M23 27h2M20 28h8M20 29h8M21 30h1M26 30h1M32 30h1M21 31h6M34 31h2" />
<path stroke="#cda48a" d="M23 26h2M19 27h1M19 28h1M34 30h2" />
<path stroke="#b3b3b3" d="M33 28h1M35 28h1" />
<path stroke="#c65e03" d="M31 29h2M33 32h1M12 35h3M19 35h1M12 36h1M19 36h1M12 37h1M19 37h1M12 38h1M19 38h1M21 38h2M25 38h2M12 39h1M19 39h1M21 39h2M25 39h2M12 40h1M19 40h1M12 41h1M19 41h1M12 42h1M19 42h1M12 43h1M19 43h1M12 44h1M19 44h1M12 45h1M19 45h1M12 46h3M19 46h1" />
<path stroke="#fcb744" d="M33 29h4M34 32h1M15 35h4M18 36h1M18 37h1M18 38h1M23 38h2M18 39h1M23 39h2M18 40h1M18 41h1M18 42h1M18 43h1M18 44h1M18 45h1M15 46h4" />
<path stroke="#7c3333" d="M22 30h4" />
<path stroke="#a17564" d="M33 30h1M32 31h2" />
<path stroke="#2e2d2d" d="M21 32h5M22 33h3M20 40h1M26 40h1M20 41h1M26 41h2M20 42h1M26 42h2" />
<path stroke="#141931" d="M27 35h3M27 36h3M27 37h3M27 38h3M27 39h3M27 40h3M28 41h2M28 42h2M20 43h1M28 43h2M20 44h1M28 44h2M20 45h4M28 45h2M20 46h4" />
<path stroke="#b0a59a" d="M13 36h2M13 37h2M13 38h1M13 39h1M22 40h1M24 40h1M13 42h2M13 43h1M13 44h2M13 45h2" />
<path stroke="#96562b" d="M20 38h1M20 39h1" />
</svg>