<svg xmlns="http://www.w3.org/2000/svg" viewBox="0 -0.5 45 64" shape-rendering="crispEdges">
<metadata>Made with Pixels to Svg https://codepen.io/shshaw/pen/XbxvNj</metadata>
<path stroke="#f1ebe5" d="M0 0h45M0 1h45M0 2h3M5 2h40M0 3h2M3 3h2M6 3h39M0 4h2M6 4h39M0 5h2M3 5h2M6 5h39M0 6h2M3 6h2M6 6h39M0 7h45M0 8h2M3 8h2M6 8h39M0 9h2M6 9h39M0 10h2M6 10h39M0 11h3M5 11h40M0 12h45M0 13h45M0 14h45M0 15h45M0 16h45M0 17h45M0 18h45M0 19h17M29 19h16M0 20h16M29 20h16M0 21h15M29 21h16M0 22h15M29 22h16M0 23h15M29 23h16M0 24h15M29 24h16M0 25h15M29 25h16M0 26h16M29 26h16M0 27h16M29 27h16M0 28h16M29 28h16M0 29h16M29 29h16M0 30h16M29 30h16M0 31h16M29 31h16M0 32h13M31 32h14M0 33h13M31 33h14M0 34h13M31 34h14M0 35h12M31 35h14M0 36h12M32 36h13M0 37h12M34 37h11M0 38h12M34 38h11M0 39h12M35 39h10M0 40h12M34 40h11M0 41h12M34 41h11M0 42h12M34 42h11M0 43h12M34 43h11M0 44h12M34 44h11M0 45h12M34 45h11M0 46h12M28 46h2M34 46h11M0 47h16M21 47h3M29 47h2M33 47h12M0 48h45M0 49h45M0 50h45M0 51h45M0 52h40M42 52h3M0 53h39M43 53h2M0 54h39M43 54h2M0 55h39M40 55h2M43 55h2M0 56h45M0 57h39M40 57h2M43 57h2M0 58h39M40 58h2M43 58h2M0 59h39M43 59h2M0 60h39M40 60h2M43 60h2M0 61h40M42 61h3M0 62h45M0 63h45" />
<path stroke="#bd1111" d="M3 2h2M2 3h1M5 3h1M2 4h4M2 5h1M5 5h1M2 6h1M5 6h1M2 8h1M5 8h1M2 9h4M2 10h4M3 11h2M40 52h2M39 53h4M39 54h4M39 55h1M42 55h1M39 57h1M42 57h1M39 58h1M42 58h1M39 59h4M39 60h1M42 60h1M40 61h2" />
<path stroke="#9ea8b2" d="M17 19h1M16 20h2M15 21h3M15 22h3M15 23h2M15 24h1M17 24h1M16 25h2M16 26h2M16 27h2M16 28h2M16 29h2M16 30h2M16 31h2M19 33h1M25 33h1M19 34h1M25 34h1M27 35h1M27 36h2M27 37h2M28 38h2M26 43h2M26 44h2M24 46h4M16 47h1M24 47h1" />
<path stroke="#e6fafa" d="M18 19h5M24 19h5M18 20h5M24 20h5M18 21h5M24 21h5M18 23h2M22 23h1M24 23h2M28 23h1M18 24h2M22 24h1M24 24h2M28 24h1M18 25h1M28 25h1M18 26h1M28 26h1M18 27h1M28 27h1M18 28h1M28 28h1M18 29h2M28 29h1M18 30h3M27 30h2M18 31h3M27 31h2M20 33h2M26 33h2M20 34h2M26 34h2M29 36h3M29 37h1M24 45h4M17 47h4M25 47h4" />
<path stroke="#ae2727" d="M23 19h1M23 20h1M23 21h1M18 22h11M23 23h1M23 24h1M17 32h4M28 32h3M17 33h2M28 33h3M17 34h2M28 34h3M21 35h1M23 35h1M25 35h1M29 35h2M21 36h2M24 36h2M20 38h2M25 38h2M16 39h2M20 39h2M25 39h2M15 40h3M15 41h3M21 41h1M23 41h1M25 41h1M15 42h2M21 42h2M24 42h2M15 43h1M21 43h1M23 43h1M25 43h1M21 44h5" />
<path stroke="#7c3333" d="M17 23h1M16 24h1M15 25h1M21 29h1M26 29h1M22 30h4M13 32h4M26 32h2M13 33h4M13 34h4M22 34h3M28 35h1M21 37h1M23 37h1M25 37h1M13 39h2M13 40h2M21 40h2M24 40h2M13 41h2M14 42h1" />
<path stroke="#ffffff" d="M20 23h2M26 23h2M20 24h2M26 24h2M20 26h1M22 26h1M25 26h1M27 26h1M20 27h1M27 27h1M22 29h4M22 35h1M24 35h1M15 36h3M23 36h1M15 37h3M15 38h3M15 39h1M22 41h1M24 41h1M32 41h1M17 42h1M23 42h1M32 42h1M16 43h2M22 43h1M24 43h1M32 43h1M15 44h3M32 44h1M15 45h3M32 45h1M32 46h1M32 47h1" />
<path stroke="#cda48a" d="M19 25h1M23 25h2M27 25h1M19 26h1M32 38h2" />
<path stroke="#a56d2f" d="M20 25h1" />
<path stroke="#e0aa3f" d="M21 25h2M25 25h2" />
<path stroke="#2e2d2d" d="M21 26h1M26 26h1M21 27h2M25 27h2M21 32h5M22 33h3M20 35h1M26 35h1M20 36h1M26 36h1M20 37h1M26 37h1M20 40h1M26 40h1M20 41h1M26 41h1M20 42h1M26 42h1" />
<path stroke="#f6d5aa" d="M23 26h2M19 27h1M23 27h2M19 28h9M20 29h1M27 29h1M21 30h1M26 30h1M21 31h6M32 37h2M30 38h1" />
<path stroke="#c65e03" d="M12 35h3M19 35h1M12 36h1M19 36h1M12 37h1M19 37h1M12 38h1M19 38h1M22 38h1M12 39h1M19 39h1M22 39h1M29 39h2M12 40h1M19 40h1M12 41h1M19 41h1M12 42h1M19 42h1M12 43h1M19 43h1M12 44h1M19 44h1M12 45h1M19 45h1M12 46h3M19 46h1" />
<path stroke="#fcb744" d="M15 35h4M18 36h1M18 37h1M18 38h1M23 38h2M18 39h1M23 39h2M31 39h4M18 40h1M18 41h1M18 42h1M18 43h1M18 44h1M18 45h1M15 46h4" />
<path stroke="#b0a59a" d="M13 36h2M13 37h2M22 37h1M24 37h1M13 38h2M23 40h1M13 42h1M13 43h2M13 44h2M13 45h2" />
<path stroke="#a17564" d="M30 37h2M31 38h1" />
<path stroke="#472424" d="M27 38h1M27 39h2M27 40h3M27 41h3M27 42h3M20 43h1M28 43h2M20 44h1M28 44h2M20 45h4M28 45h2M20 46h4" />
<path stroke="#8b8b8b" d="M30 40h1M30 41h1M30 42h1M30 43h1M30 44h1M30 45h1M30 46h1M31 47h1" />
<path stroke="#b3b3b3" d="M31 40h1M33 40h1" />
<path stroke="#e0e0e0" d="M32 40h1M31 41h1M33 41h1M31 42h1M33 42h1M31 43h1M33 43h1M31 44h1M33 44h1M31 45h1M33 45h1M31 46h1M33 46h1" />
</svg>