<svg xmlns="http://www.w3.org/2000/svg" viewBox="0 -0.5 45 64" shape-rendering="crispEdges">
<metadata>Made with Pixels to Svg https://codepen.io/shshaw/pen/XbxvNj</metadata>
<path stroke="#f1ebe5" d="M0 0h45M0 1h45M0 2h2M6 2h39M0 3h2M3 3h2M6 3h39M0 4h2M6 4h39M0 5h2M3 5h2M6 5h39M0 6h2M3 6h2M6 6h39M0 7h45M0 8h3M5 8h40M0 9h2M6 9h39M0 10h2M6 10h39M0 11h45M0 12h3M5 12h40M0 13h45M0 14h45M0 15h45M0 16h45M0 17h45M0 18h14M17 18h10M30 18h15M0 19h13M17 19h10M31 19h14M0 20h13M17 20h10M31 20h14M0 21h13M31 21h14M0 22h13M31 22h14M0 23h13M31 23h14M0 24h13M31 24h14M0 25h16M28 25h17M0 26h16M28 26h17M0 27h16M28 27h17M0 28h16M28 28h17M0 29h16M28 29h17M0 30h16M28 30h17M0 31h16M28 31h17M0 32h13M30 32h15M0 33h13M30 33h15M0 34h13M31 34h14M0 35h12M31 35h14M0 36h12M31 36h14M0 37h12M31 37h14M0 38h12M31 38h14M0 39h12M31 39h14M0 40h12M31 40h14M0 41h12M31 41h14M0 42h12M31 42h14M0 43h12M31 43h14M0 44h12M31 44h14M0 45h12M31 45h14M0 46h12M28 46h17M0 47h15M20 47h4M29 47h16M0 48h45M0 49h45M0 50h45M0 51h40M42 51h3M0 52h45M0 53h39M43 53h2M0 54h39M43 54h2M0 55h40M42 55h3M0 56h45M0 57h39M40 57h2M43 57h2M0 58h39M40 58h2M43 58h2M0 59h39M43 59h2M0 60h39M40 60h2M43 60h2M0 61h40M42 61h3M0 62h45M0 63h45" />
<path stroke="#110f0f" d="M2 2h4M2 3h1M5 3h1M2 4h4M2 5h1M5 5h1M2 6h1M5 6h1M3 8h2M2 9h4M2 10h4M3 12h2M40 51h2M39 53h4M39 54h4M40 55h2M39 57h1M42 57h1M39 58h1M42 58h1M39 59h4M39 60h1M42 60h1M40 61h2" />
<path stroke="#141931" d="M14 18h2M27 18h2M13 19h2M27 19h2M13 20h2M27 20h2M13 21h2M28 21h1M13 22h2M29 39h1M29 40h1M27 41h3M22 42h2M27 42h3M22 43h2M27 43h3M21 44h3M27 44h3M20 45h4M28 45h2M20 46h4" />
<path stroke="#374daa" d="M16 18h1M29 18h1M15 19h2M29 19h2M15 20h2M29 20h2M15 21h2M29 21h2M15 22h3M28 22h3M15 23h3M28 23h3M15 24h3M28 24h3M17 32h4M27 32h3M17 33h4M27 33h3M17 34h3M27 34h4M28 35h3M15 38h1M21 38h1M25 38h2M15 39h2M21 39h1M25 39h2M15 40h3M15 41h3M15 42h1M15 43h2" />
<path stroke="#9ea8b2" d="M17 21h2M18 22h1M18 23h1M18 24h1M16 25h3M27 25h1M16 26h3M26 26h1M16 27h3M24 27h1M16 28h3M24 28h1M16 29h3M24 29h1M16 30h3M24 30h1M16 31h3M24 31h1M20 34h1M20 35h1M27 35h1M20 36h1M27 36h2M20 37h1M27 37h1M20 40h1M20 41h1M24 46h4M19 47h1M24 47h1" />
<path stroke="#e6fafa" d="M19 21h6M27 21h1M19 22h6M27 22h1M19 23h6M27 23h1M19 24h6M27 24h1M19 26h1M27 26h1M19 27h3M25 27h3M19 28h3M25 28h3M19 29h3M25 29h3M19 30h3M25 30h3M19 31h3M25 31h3M21 34h3M26 34h1M21 35h3M26 35h1M21 36h3M26 36h1M29 36h2M21 37h3M26 37h1M28 37h3M27 38h3M21 40h3M26 40h1M21 41h3M26 41h1M24 45h4M15 47h4M25 47h4" />
<path stroke="#ffffff" d="M25 21h2M25 22h2M25 23h2M25 24h2M24 34h2M24 35h2M15 36h3M24 36h2M15 37h3M24 37h2M16 38h2M17 39h1M24 40h2M24 41h2M16 42h2M17 43h1M15 44h3M15 45h3" />
<path stroke="#212f68" d="M13 23h2M13 24h2M13 32h4M26 32h1M13 33h4M26 33h1M13 34h4M20 38h1M30 38h1M14 39h1M20 39h1M30 39h1M13 40h2M30 40h1M13 41h2M30 41h1M30 42h1M14 43h1M30 43h1M30 44h1M30 45h1" />
<path stroke="#2e2d2d" d="M19 25h8M20 26h6M22 27h2M22 28h2M22 29h2M22 30h2M22 31h2M21 32h5M21 33h5M20 42h2M24 42h3M20 43h2M24 43h3M20 44h1M24 44h3" />
<path stroke="#c65e03" d="M12 35h3M19 35h1M12 36h1M19 36h1M12 37h1M19 37h1M12 38h1M19 38h1M22 38h1M12 39h1M19 39h1M22 39h1M12 40h1M19 40h1M12 41h1M19 41h1M12 42h1M19 42h1M12 43h1M19 43h1M12 44h1M19 44h1M12 45h1M19 45h1M12 46h3M19 46h1" />
<path stroke="#fcb744" d="M15 35h4M18 36h1M18 37h1M18 38h1M23 38h2M18 39h1M23 39h2M18 40h1M18 41h1M18 42h1M18 43h1M18 44h1M18 45h1M15 46h4" />
<path stroke="#b0a59a" d="M13 36h2M13 37h2M13 38h2M13 39h1M13 42h2M13 43h1M13 44h2M13 45h2" />
<path stroke="#f6d5aa" d="M27 39h2M27 40h2" />
</svg>