<svg xmlns="http://www.w3.org/2000/svg" viewBox="0 -0.5 45 64" shape-rendering="crispEdges">
<metadata>Made with Pixels to Svg https://codepen.io/shshaw/pen/XbxvNj</metadata>
<path stroke="#f1ebe5" d="M0 0h45M0 1h45M0 2h2M6 2h39M0 3h4M5 3h40M0 4h4M5 4h40M0 5h2M3 5h1M5 5h40M0 6h2M5 6h40M0 7h45M0 8h3M5 8h40M0 9h2M6 9h39M0 10h2M6 10h39M0 11h2M6 11h39M0 12h3M5 12h40M0 13h45M0 14h45M0 15h45M0 16h45M0 17h16M28 17h17M0 18h15M29 18h16M0 19h15M29 19h16M0 20h15M29 20h16M0 21h15M29 21h16M0 22h15M29 22h16M0 23h15M29 23h16M0 24h15M29 24h16M0 25h15M29 25h16M0 26h15M29 26h16M0 27h15M29 27h16M0 28h14M29 28h16M0 29h14M29 29h16M0 30h14M29 30h16M0 31h14M29 31h16M0 32h14M29 32h16M0 33h14M29 33h16M0 34h15M29 34h16M0 35h15M30 35h15M0 36h15M30 36h15M0 37h15M30 37h15M0 38h15M30 38h15M0 39h15M30 39h15M0 40h15M29 40h16M0 41h16M29 41h16M0 42h16M29 42h16M0 43h16M21 43h2M28 43h17M0 44h16M21 44h2M28 44h17M0 45h16M21 45h2M28 45h17M0 46h16M21 46h2M28 46h17M0 47h16M22 47h1M29 47h16M0 48h45M0 49h45M0 50h45M0 51h40M42 51h3M0 52h39M43 52h2M0 53h39M43 53h2M0 54h39M43 54h2M0 55h40M42 55h3M0 56h45M0 57h40M43 57h2M0 58h40M41 58h1M43 58h2M0 59h40M41 59h4M0 60h40M41 60h4M0 61h39M43 61h2M0 62h45M0 63h45" />
<path stroke="#bd1111" d="M2 2h4M4 3h1M4 4h1M2 5h1M4 5h1M2 6h3M3 8h2M2 9h4M2 10h4M2 11h4M3 12h2M40 51h2M39 52h4M39 53h4M39 54h4M40 55h2M40 57h3M40 58h1M42 58h1M40 59h1M40 60h1M39 61h4" />
<path stroke="#7c3333" d="M16 17h2M19 17h1M15 18h2M18 18h2M15 19h2M18 19h2M15 20h2M18 20h2M15 21h2M18 21h2M15 35h2M15 36h2M19 36h1M28 36h1M15 37h2M19 37h3M25 37h4M15 38h2M17 41h3M25 41h1M28 41h1M17 42h3M25 42h1M28 42h1" />
<path stroke="#a59999" d="M18 17h1M17 21h1M14 31h5M14 32h5M14 33h5M15 34h4" />
<path stroke="#ae2727" d="M20 17h1M26 17h2M20 18h2M27 18h2M20 19h2M27 19h2M20 20h2M27 20h2M20 21h2M27 21h2M17 35h5M26 35h4M17 36h2M20 36h2M26 36h2M29 36h1M17 37h2M22 37h1M29 37h1M17 38h5M26 38h4M17 39h5M26 39h4M20 41h3M26 41h2M20 42h3M26 42h2" />
<path stroke="#d2cccc" d="M21 17h1M25 17h1M17 18h1M17 19h1M17 20h1M22 21h1M26 21h1" />
<path stroke="#c65e03" d="M22 17h3M23 21h3M15 22h5M22 35h1M22 36h2M23 37h2" />
<path stroke="#ffffff" d="M22 18h1M26 18h1M22 19h1M26 19h1M22 20h1M26 20h1M20 26h1M27 26h1M19 31h2M26 31h3M19 32h10M19 33h10M19 34h4M25 34h4M24 35h1" />
<path stroke="#fcb744" d="M23 18h3M23 19h3M23 20h3M20 22h9M23 34h2M23 35h1M25 35h1M24 36h2" />
<path stroke="#572420" d="M15 23h4M15 24h5M25 24h1M15 25h4M15 26h2M18 26h1M15 27h2M18 27h1M14 28h3M21 28h1M14 29h4M21 29h1M28 29h1M14 30h4M21 30h1M28 30h1M21 31h1" />
<path stroke="#923e23" d="M19 23h1M28 23h1M20 24h3M26 24h3M28 25h1M28 26h1M28 27h1M22 28h4M28 28h1M22 29h1M25 29h1M22 30h4M22 31h4" />
<path stroke="#f6d5aa" d="M20 23h8M23 24h2M19 27h9M19 28h2M26 28h2M19 29h2M23 29h2M26 29h2M19 30h2M26 30h1M23 38h3M23 39h3M24 40h2" />
<path stroke="#cda48a" d="M19 25h9M17 26h1M19 26h1M23 26h2M17 27h1M17 28h2M18 29h1M18 30h1M27 30h1M22 38h1M22 39h1M23 40h1" />
<path stroke="#372117" d="M21 26h2M25 26h2" />
<path stroke="#471c2a" d="M15 39h2M15 40h8M26 40h3M16 41h1M16 42h1" />
<path stroke="#622f1a" d="M23 41h2M23 42h1M23 43h1M23 44h1M16 45h2M23 45h1M16 46h5M23 46h1M25 46h3M16 47h2M23 47h1" />
<path stroke="#9a583e" d="M24 42h1M24 43h1M24 44h1M18 45h3M24 45h4M24 46h1M18 47h4M24 47h5" />
<path stroke="#262931" d="M16 43h2M16 44h2" />
<path stroke="#414c68" d="M18 43h3M25 43h3M18 44h3M25 44h3" />
</svg>