<svg xmlns="http://www.w3.org/2000/svg" viewBox="0 -0.5 45 64" shape-rendering="crispEdges">
<metadata>Made with Pixels to Svg https://codepen.io/shshaw/pen/XbxvNj</metadata>
<path stroke="#f1ebe5" d="M0 0h45M0 1h45M0 2h2M6 2h39M0 3h4M5 3h40M0 4h4M5 4h40M0 5h2M3 5h1M5 5h40M0 6h2M5 6h40M0 7h45M0 8h2M3 8h2M6 8h39M0 9h2M6 9h39M0 10h2M6 10h39M0 11h3M5 11h40M0 12h45M0 13h45M0 14h45M0 15h45M0 16h45M0 17h16M28 17h17M0 18h15M29 18h16M0 19h15M29 19h16M0 20h15M29 20h16M0 21h15M29 21h16M0 22h16M28 22h17M0 23h16M28 23h17M0 24h16M28 24h17M0 25h16M28 25h17M0 26h16M28 26h17M0 27h16M28 27h17M0 28h16M28 28h5M35 28h10M0 29h16M28 29h4M36 29h9M0 30h17M28 30h4M36 30h9M0 31h14M29 31h4M35 31h10M0 32h14M29 32h2M35 32h10M0 33h14M35 33h10M0 34h14M35 34h10M0 35h15M35 35h10M0 36h14M35 36h10M0 37h14M32 37h1M35 37h10M0 38h14M30 38h3M35 38h10M0 39h14M29 39h4M35 39h10M0 40h14M29 40h4M35 40h10M0 41h14M29 41h4M35 41h10M0 42h14M29 42h16M0 43h16M21 43h2M28 43h17M0 44h16M21 44h2M28 44h17M0 45h16M21 45h2M28 45h17M0 46h16M21 46h2M28 46h17M0 47h16M22 47h1M29 47h16M0 48h45M0 49h45M0 50h45M0 51h45M0 52h40M42 52h3M0 53h39M43 53h2M0 54h39M43 54h2M0 55h39M40 55h2M43 55h2M0 56h45M0 57h40M43 57h2M0 58h40M41 58h1M43 58h2M0 59h40M41 59h4M0 60h40M41 60h4M0 61h39M43 61h2M0 62h45M0 63h45" />
<path stroke="#bd1111" d="M2 2h4M4 3h1M4 4h1M2 5h1M4 5h1M2 6h3M2 8h1M5 8h1M2 9h4M2 10h4M3 11h2M40 52h2M39 53h4M39 54h4M39 55h1M42 55h1M40 57h3M40 58h1M42 58h1M40 59h1M40 60h1M39 61h4" />
<path stroke="#7c3333" d="M16 17h4M15 18h5M15 19h5M15 20h5M15 21h5M29 33h2M29 34h2M15 35h3M25 35h1M28 35h4M14 36h3M19 36h1M25 36h1M28 36h5M14 37h3M19 37h1M25 37h1M28 37h4M14 38h3M28 38h2M14 39h3M28 39h1M19 40h1M25 40h1M28 40h1M19 41h1M25 41h1M28 41h1M19 42h1M25 42h1M28 42h1" />
<path stroke="#ae2727" d="M20 17h8M20 18h9M20 19h4M25 19h4M20 20h4M25 20h4M20 21h9M33 29h1M33 30h2M18 35h5M26 35h2M17 36h2M20 36h3M26 36h2M17 37h2M20 37h3M26 37h2M17 38h2M17 39h2M20 40h3M26 40h2M20 41h3M26 41h2M20 42h3M26 42h2" />
<path stroke="#fcb744" d="M24 19h1M24 20h1M20 22h8M33 28h2M35 29h1M35 30h1M21 38h6M21 39h6" />
<path stroke="#c65e03" d="M16 22h4M32 29h1M32 30h1M33 31h2M19 38h2M27 38h1M19 39h2M27 39h1" />
<path stroke="#a56d2f" d="M16 23h3M16 24h3M20 24h1M25 24h1M16 25h3M16 26h1M18 26h1M16 27h1M16 28h1M21 28h1M16 29h2M21 29h1M17 30h1M21 30h1" />
<path stroke="#e0aa3f" d="M19 23h1M19 24h1M21 24h2M26 24h2M19 25h1M22 28h4M22 29h1M25 29h1M22 30h1M25 30h1" />
<path stroke="#f6d5aa" d="M20 23h8M23 24h2M20 25h2M26 25h2M19 26h1M19 27h9M19 28h2M26 28h2M19 29h2M23 29h2M26 29h2M19 30h2M23 30h2M26 30h2M33 32h2M33 33h2M33 34h2M17 41h2M17 42h2" />
<path stroke="#cda48a" d="M22 25h4M17 26h1M23 26h2M17 27h2M17 28h2M18 29h1M18 30h1M32 32h1M32 33h1M32 34h1M14 41h3M14 42h3" />
<path stroke="#ffffff" d="M20 26h1M27 26h1M34 29h1M19 31h10M19 32h10M19 33h10M19 34h10M16 40h3" />
<path stroke="#372117" d="M21 26h2M25 26h2" />
<path stroke="#a59999" d="M14 31h5M14 32h5M14 33h5M14 34h5" />
<path stroke="#d2cccc" d="M31 32h1M31 33h1M31 34h1M32 35h1M14 40h2" />
<path stroke="#517e7e" d="M23 35h2M23 36h2M23 37h2M23 40h2M23 41h2M23 42h2" />
<path stroke="#622f1a" d="M33 35h2M33 36h2M33 37h2M33 38h2M33 39h2M33 40h2M33 41h2M16 45h2M23 45h2M16 46h5M23 46h5M16 47h2M23 47h2" />
<path stroke="#262931" d="M16 43h2M23 43h2M16 44h2M23 44h2" />
<path stroke="#414c68" d="M18 43h3M25 43h3M18 44h3M25 44h3" />
<path stroke="#9a583e" d="M18 45h3M25 45h3M18 47h4M25 47h4" />
</svg>