<svg xmlns="http://www.w3.org/2000/svg" viewBox="0 -0.5 45 64" shape-rendering="crispEdges">
<metadata>Made with Pixels to Svg https://codepen.io/shshaw/pen/XbxvNj</metadata>
<path stroke="#f1ebe5" d="M0 0h45M0 1h45M0 2h2M6 2h39M0 3h4M5 3h40M0 4h4M5 4h40M0 5h2M3 5h1M5 5h40M0 6h2M5 6h40M0 7h45M0 8h3M5 8h40M0 9h2M6 9h39M0 10h2M6 10h39M0 11h45M0 12h3M5 12h40M0 13h45M0 14h45M0 15h45M0 16h45M0 17h16M28 17h17M0 18h15M29 18h16M0 19h15M29 19h16M0 20h15M29 20h16M0 21h15M29 21h16M0 22h16M28 22h17M0 23h16M28 23h17M0 24h16M28 24h17M0 25h16M28 25h17M0 26h16M28 26h17M0 27h16M28 27h17M0 28h16M28 28h17M0 29h16M28 29h17M0 30h16M28 30h17M0 31h14M29 31h16M0 32h14M29 32h16M0 33h14M29 33h16M0 34h14M29 34h1M32 34h13M0 35h15M33 35h12M0 36h14M33 36h12M0 37h14M32 37h13M0 38h14M32 38h13M0 39h14M32 39h13M0 40h14M32 40h13M0 41h14M29 41h1M32 41h13M0 42h14M29 42h1M32 42h13M0 43h16M21 43h2M28 43h2M32 43h13M0 44h16M21 44h2M28 44h2M32 44h13M0 45h16M21 45h2M28 45h2M32 45h13M0 46h16M21 46h2M28 46h2M32 46h13M0 47h16M22 47h1M29 47h1M32 47h13M0 48h45M0 49h45M0 50h45M0 51h40M42 51h3M0 52h45M0 53h39M43 53h2M0 54h39M43 54h2M0 55h40M42 55h3M0 56h45M0 57h40M43 57h2M0 58h40M41 58h1M43 58h2M0 59h40M41 59h4M0 60h40M41 60h4M0 61h39M43 61h2M0 62h45M0 63h45" />
<path stroke="#110f0f" d="M2 2h4M4 3h1M4 4h1M2 5h1M4 5h1M2 6h3M3 8h2M2 9h4M2 10h4M3 12h2M40 51h2M39 53h4M39 54h4M40 55h2M40 57h3M40 58h1M42 58h1M40 59h1M40 60h1M39 61h4" />
<path stroke="#212f68" d="M16 17h4M15 18h5M15 19h5M15 20h5M15 21h5M15 35h3M25 35h1M28 35h1M14 36h3M19 36h1M25 36h1M28 36h1M14 37h3M19 37h1M25 37h1M28 37h2M14 38h3M19 38h1M25 38h1M28 38h1M14 39h3M19 39h1M25 39h1M28 39h1M19 40h1M25 40h1M28 40h1M19 41h1M25 41h1M28 41h1M19 42h1M25 42h1M28 42h1" />
<path stroke="#374daa" d="M20 17h8M20 18h9M20 19h4M25 19h4M20 20h4M25 20h4M20 21h9M18 35h5M26 35h2M17 36h2M20 36h3M26 36h2M17 37h2M20 37h3M26 37h2M17 38h2M20 38h3M26 38h2M17 39h2M20 39h3M26 39h2M20 40h3M26 40h2M20 41h3M26 41h2M20 42h3M26 42h2" />
<path stroke="#fcb744" d="M24 19h1M24 20h1M20 22h8M30 34h2M32 35h1M32 36h1M23 38h2M23 39h2" />
<path stroke="#c65e03" d="M16 22h4M29 35h2M29 36h3M30 37h2" />
<path stroke="#622f1a" d="M16 23h4M16 24h4M25 24h1M16 25h4M16 26h1M18 26h1M21 26h2M25 26h2M16 27h1M16 28h1M22 28h1M16 29h2M21 29h1M16 30h2M22 31h1M22 32h1M23 33h1M23 34h1M30 41h2M30 42h2M30 43h2M30 44h2M16 45h2M23 45h2M30 45h2M16 46h5M23 46h5M30 46h2M16 47h2M23 47h2M30 47h2" />
<path stroke="#f6d5aa" d="M20 23h8M20 25h8M19 26h1M23 26h2M19 27h9M19 28h3M26 28h2M19 29h2M27 29h1M19 30h9M30 38h2M30 39h2M30 40h2M17 41h2M17 42h2" />
<path stroke="#9a583e" d="M20 24h3M26 24h2M23 28h3M22 29h5M23 31h3M23 32h3M24 33h1M24 34h1M18 45h3M25 45h3M18 47h4M25 47h4" />
<path stroke="#cda48a" d="M23 24h2M17 26h1M17 27h2M17 28h2M18 29h1M18 30h1M14 41h3M14 42h3" />
<path stroke="#ffffff" d="M20 26h1M27 26h1M19 31h3M26 31h3M19 32h3M26 32h3M19 33h4M25 33h4M19 34h4M25 34h4M31 35h1M16 40h3" />
<path stroke="#a59999" d="M14 31h5M14 32h5M14 33h5M14 34h5" />
<path stroke="#994db2" d="M23 35h2M23 36h2M23 37h2M23 40h2M23 41h2M23 42h2" />
<path stroke="#d2cccc" d="M29 38h1M29 39h1M14 40h2M29 40h1" />
<path stroke="#262931" d="M16 43h2M23 43h2M16 44h2M23 44h2" />
<path stroke="#414c68" d="M18 43h3M25 43h3M18 44h3M25 44h3" />
</svg>