<svg xmlns="http://www.w3.org/2000/svg" viewBox="0 -0.5 45 64" shape-rendering="crispEdges">
<metadata>Made with Pixels to Svg https://codepen.io/shshaw/pen/XbxvNj</metadata>
<path stroke="#f1ebe5" d="M0 0h45M0 1h45M0 2h2M3 2h2M6 2h39M0 3h2M3 3h1M5 3h40M0 4h2M5 4h40M0 5h2M3 5h2M6 5h39M0 6h2M3 6h2M6 6h39M0 7h45M0 8h3M5 8h40M0 9h2M6 9h39M0 10h2M6 10h39M0 11h3M5 11h40M0 12h2M6 12h39M0 13h45M0 14h45M0 15h45M0 16h16M17 16h3M22 16h4M28 16h17M0 17h16M17 17h3M22 17h1M25 17h1M28 17h17M0 18h16M18 18h1M28 18h17M0 19h16M28 19h17M0 20h16M28 20h17M0 21h16M28 21h17M0 22h16M28 22h17M0 23h16M28 23h17M0 24h16M28 24h17M0 25h15M28 25h17M0 26h15M28 26h17M0 27h15M28 27h17M0 28h15M28 28h17M0 29h16M28 29h4M34 29h11M0 30h16M28 30h3M36 30h9M0 31h15M36 31h9M0 32h14M36 32h9M0 33h13M35 33h10M0 34h13M33 34h12M0 35h12M30 35h15M0 36h12M30 36h15M0 37h12M30 37h15M0 38h12M30 38h15M0 39h12M30 39h15M0 40h12M30 40h15M0 41h12M30 41h15M0 42h12M30 42h15M0 43h12M30 43h15M0 44h12M30 44h15M0 45h12M30 45h15M0 46h12M28 46h17M0 47h15M20 47h4M29 47h16M0 48h45M0 49h45M0 50h45M0 51h39M43 51h2M0 52h40M42 52h3M0 53h39M43 53h2M0 54h39M43 54h2M0 55h40M42 55h3M0 56h45M0 57h39M40 57h2M43 57h2M0 58h39M40 58h2M43 58h2M0 59h40M43 59h2M0 60h40M41 60h1M43 60h2M0 61h39M40 61h2M43 61h2M0 62h45M0 63h45" />
<path stroke="#110f0f" d="M2 2h1M5 2h1M2 3h1M4 3h1M2 4h3M2 5h1M5 5h1M2 6h1M5 6h1M3 8h2M2 9h4M2 10h4M3 11h2M2 12h4M39 51h4M40 52h2M39 53h4M39 54h4M40 55h2M39 57h1M42 57h1M39 58h1M42 58h1M40 59h3M40 60h1M42 60h1M39 61h1M42 61h1" />
<path stroke="#c65e03" d="M16 16h1M20 16h1M26 16h1M16 17h1M20 17h1M23 17h1M26 17h1M16 18h2M19 18h2M23 18h1M25 18h1M16 19h5M16 20h1M18 20h1M20 20h1M16 21h5M24 32h1M30 32h1M21 33h1M23 33h1M30 33h2M31 34h2M21 36h1M24 39h3" />
<path stroke="#fcb744" d="M21 16h1M27 16h1M21 17h1M24 17h1M27 17h1M21 18h2M24 18h1M26 18h2M21 19h7M21 20h1M23 20h1M25 20h1M27 20h1M21 21h7M17 28h1M30 31h1M25 32h1M22 33h1M24 33h1M23 34h1M23 35h1M22 36h1M20 39h4" />
<path stroke="#212f68" d="M17 20h1M19 20h1M16 22h4M15 31h4M14 32h3M19 32h1M13 33h3M19 33h1M13 34h3M21 34h1M12 35h3M21 35h1M12 36h3M12 37h3M12 38h3M12 39h3M12 40h3M18 40h1M12 41h3M12 42h3M17 42h1M12 43h3M12 44h3M16 44h1M12 45h4" />
<path stroke="#374daa" d="M22 20h1M24 20h1M26 20h1M20 22h8M17 32h2M16 33h3M16 34h4M22 34h1M15 35h5M22 35h1M15 36h5M15 37h5M15 38h4M15 39h4M15 40h3M15 41h3M15 42h2M15 43h2M15 44h1" />
<path stroke="#000000" d="M16 23h3M16 24h3M20 24h1M26 24h1M15 25h3M21 25h2M25 25h2M15 26h2M15 27h2M15 28h2M16 29h2M16 30h2M21 31h6" />
<path stroke="#3f3f3f" d="M19 23h1M19 24h1M21 24h1M27 24h1M18 25h2M18 26h1M21 26h2M25 26h2M22 28h4M21 29h1M26 29h1M21 30h1M26 30h1" />
<path stroke="#f6d5aa" d="M20 23h8M23 24h2M19 26h1M19 27h9M19 28h3M26 28h2M19 29h2M22 29h4M27 29h1M33 29h1M20 30h1M22 30h4M32 30h1M35 30h1M35 31h1M35 32h1M34 33h1" />
<path stroke="#cda48a" d="M22 24h1M25 24h1M23 25h2M17 26h1M23 26h2M17 27h2M18 28h1M18 29h1M32 29h1M18 30h2M27 30h1M31 30h1M33 30h2M20 31h1M31 31h4M31 32h4M32 33h2" />
<path stroke="#ffffff" d="M20 25h1M27 25h1M20 26h1M27 26h1M19 31h1M20 32h1M20 33h1M20 34h1M20 35h1M20 36h1M20 37h1M19 38h1M19 39h1M19 40h1M18 41h1M18 42h1M17 43h1M17 44h1M16 45h1M12 46h4" />
<path stroke="#a59999" d="M27 31h1M29 36h1M29 37h1M20 38h1M29 38h1M29 39h1M29 40h1M19 41h1M29 41h1M29 42h1M18 43h1M29 43h1M29 44h1M17 45h1M29 45h1M16 46h1M19 46h5" />
<path stroke="#43934c" d="M28 31h2M27 32h2M23 36h3M21 37h5M21 38h3M21 40h4M20 41h5M20 42h5" />
<path stroke="#3d6951" d="M21 32h3M26 32h1M29 32h1M25 33h5M24 34h7M24 35h6M26 36h1M26 37h1M24 38h3M20 40h1M25 40h2M25 41h2M19 42h1M25 42h2" />
<path stroke="#141931" d="M27 36h2M27 37h2M27 38h2M27 39h2M27 40h2M27 41h2M27 42h2M19 43h5M27 43h2M19 44h5M27 44h2M19 45h5M27 45h2" />
<path stroke="#414c68" d="M24 43h3M18 44h1M24 44h3" />
<path stroke="#9a583e" d="M18 45h1M24 45h3M16 47h4M25 47h4" />
<path stroke="#622f1a" d="M17 46h2M24 46h4M15 47h1M24 47h1" />
</svg>