<svg xmlns="http://www.w3.org/2000/svg" viewBox="0 -0.5 45 64" shape-rendering="crispEdges">
<metadata>Made with Pixels to Svg https://codepen.io/shshaw/pen/XbxvNj</metadata>
<path stroke="#f1ebe5" d="M0 0h45M0 1h45M0 2h2M3 2h2M6 2h39M0 3h2M3 3h1M5 3h40M0 4h2M5 4h40M0 5h2M3 5h2M6 5h39M0 6h2M3 6h2M6 6h39M0 7h45M0 8h3M5 8h40M0 9h2M6 9h39M0 10h2M6 10h39M0 11h2M6 11h39M0 12h3M5 12h40M0 13h45M0 14h45M0 15h45M0 16h16M17 16h3M22 16h4M28 16h17M0 17h16M17 17h3M22 17h1M25 17h1M28 17h17M0 18h16M18 18h1M28 18h17M0 19h16M28 19h17M0 20h16M28 20h17M0 21h16M28 21h17M0 22h16M28 22h17M0 23h16M28 23h17M0 24h16M28 24h17M0 25h16M28 25h17M0 26h15M28 26h17M0 27h15M28 27h17M0 28h15M28 28h17M0 29h15M28 29h17M0 30h15M28 30h17M0 31h15M29 31h16M0 32h14M30 32h15M0 33h13M31 33h14M0 34h13M32 34h13M0 35h12M32 35h13M0 36h12M32 36h13M0 37h12M32 37h13M0 38h12M32 38h13M0 39h12M32 39h13M0 40h12M32 40h13M0 41h12M32 41h13M0 42h12M32 42h13M0 43h12M31 43h14M0 44h12M31 44h14M0 45h13M30 45h15M0 46h14M29 46h16M0 47h17M22 47h2M29 47h16M0 48h45M0 49h45M0 50h45M0 51h40M42 51h3M0 52h39M43 52h2M0 53h39M43 53h2M0 54h39M43 54h2M0 55h40M42 55h3M0 56h45M0 57h39M40 57h2M43 57h2M0 58h39M40 58h2M43 58h2M0 59h40M43 59h2M0 60h40M41 60h1M43 60h2M0 61h39M40 61h2M43 61h2M0 62h45M0 63h45" />
<path stroke="#bd1111" d="M2 2h1M5 2h1M2 3h1M4 3h1M2 4h3M2 5h1M5 5h1M2 6h1M5 6h1M3 8h2M2 9h4M2 10h4M2 11h4M3 12h2M40 51h2M39 52h4M39 53h4M39 54h4M40 55h2M39 57h1M42 57h1M39 58h1M42 58h1M40 59h3M40 60h1M42 60h1M39 61h1M42 61h1" />
<path stroke="#c65e03" d="M16 16h1M20 16h1M26 16h1M16 17h1M20 17h1M23 17h1M26 17h1M16 18h2M19 18h2M23 18h1M25 18h1M16 19h5M16 20h1M18 20h1M20 20h1M16 21h5M21 32h1M22 33h1M21 34h1M21 35h1M22 36h1M15 38h1M19 38h1M27 38h1M30 38h1M15 39h1M30 39h1M15 40h1M30 40h1" />
<path stroke="#fcb744" d="M21 16h1M27 16h1M21 17h1M24 17h1M27 17h1M21 18h2M24 18h1M26 18h2M21 19h7M21 20h1M23 20h1M25 20h1M27 20h1M21 21h7M22 32h1M25 32h1M23 33h2M22 34h1M25 34h1M22 35h1M25 35h1M23 36h2M16 38h3M20 38h7M28 38h2" />
<path stroke="#7c3333" d="M17 20h1M19 20h1M16 22h4M17 31h1M17 32h1M17 33h1M28 33h1M30 33h1M16 34h1M29 34h3M12 35h1M15 35h1M12 36h2M12 37h2M12 38h1M12 39h1M12 40h1M12 41h1" />
<path stroke="#ae2727" d="M22 20h1M24 20h1M26 20h1M20 22h8M15 31h2M14 32h3M28 32h2M13 33h4M29 33h1M13 34h3M23 34h2M13 35h2M23 35h2" />
<path stroke="#572420" d="M16 23h4M16 24h5M25 24h1M16 25h4M15 26h2M18 26h1M15 27h2M15 28h2M22 28h1M15 29h3M21 29h1M15 30h3" />
<path stroke="#f6d5aa" d="M20 23h8M23 24h2M20 25h3M25 25h3M19 26h1M19 27h9M19 28h3M26 28h2M19 29h2M27 29h1M20 30h3M25 30h3M17 39h2M28 39h2M17 40h2M28 40h2" />
<path stroke="#923e23" d="M21 24h2M26 24h2M23 28h3M22 29h5" />
<path stroke="#cda48a" d="M23 25h2M17 26h1M23 26h2M17 27h2M17 28h2M18 29h1M18 30h2M20 31h7M16 39h1M16 40h1" />
<path stroke="#ffffff" d="M20 26h1M27 26h1M18 31h1M28 31h1M19 32h1M27 32h1M19 33h1M27 33h1M18 34h1M28 34h1M17 35h1M29 35h3M15 36h2M14 37h1M14 38h1M14 39h1M13 40h1M13 41h1M13 42h1M12 43h1M12 44h1" />
<path stroke="#372117" d="M21 26h2M25 26h2" />
<path stroke="#ba373c" d="M23 30h2" />
<path stroke="#a59999" d="M19 31h1M27 31h1M18 32h1M18 33h1M17 34h1M27 34h1M16 35h1M28 35h1M14 36h1M13 38h1M31 38h1M13 39h1M31 39h1M31 40h1M31 41h1M12 42h1M31 42h1M30 43h1M30 44h1M13 45h1M29 45h1M14 46h3M21 46h3M28 46h1" />
<path stroke="#5d1e37" d="M20 32h1M19 34h1M18 35h2M18 36h2M28 36h2M15 37h1M19 37h1M28 37h1M19 39h1M19 40h1M17 41h3M17 42h3" />
<path stroke="#954765" d="M23 32h2M26 32h1M20 33h2M25 33h2M20 34h1M26 34h1M20 35h1M26 35h2M17 36h1M20 36h2M25 36h3M30 36h2M16 37h3M20 37h8M29 37h3M20 39h8M20 40h8M20 41h8M20 42h8" />
<path stroke="#472424" d="M14 40h1M14 41h3M28 41h3M14 42h3M28 42h3M13 43h4M21 43h3M28 43h2M13 44h4M21 44h3M28 44h2M14 45h3M21 45h3M28 45h1" />
<path stroke="#292d37" d="M17 43h2M24 43h2M17 44h2M24 44h2" />
<path stroke="#414c68" d="M19 43h2M26 43h2M19 44h2M26 44h2" />
<path stroke="#9a583e" d="M17 45h4M24 45h4M18 47h4M25 47h4" />
<path stroke="#622f1a" d="M17 46h4M24 46h4M17 47h1M24 47h1" />
</svg>