<svg xmlns="http://www.w3.org/2000/svg" viewBox="0 -0.5 45 64" shape-rendering="crispEdges">
<metadata>Made with Pixels to Svg https://codepen.io/shshaw/pen/XbxvNj</metadata>
<path stroke="#f1ebe5" d="M0 0h45M0 1h45M0 2h2M3 2h2M6 2h39M0 3h2M3 3h1M5 3h40M0 4h2M5 4h40M0 5h2M3 5h2M6 5h39M0 6h2M3 6h2M6 6h39M0 7h45M0 8h3M5 8h40M0 9h2M6 9h39M0 10h2M6 10h39M0 11h45M0 12h3M5 12h40M0 13h45M0 14h45M0 15h45M0 16h45M0 17h16M17 17h1M19 17h1M22 17h1M24 17h1M26 17h1M28 17h17M0 18h16M28 18h17M0 19h16M28 19h17M0 20h16M28 20h17M0 21h16M28 21h17M0 22h16M28 22h17M0 23h16M28 23h17M0 24h16M28 24h17M0 25h16M28 25h17M0 26h15M28 26h17M0 27h15M28 27h17M0 28h15M28 28h17M0 29h14M28 29h17M0 30h14M28 30h17M0 31h14M29 31h16M0 32h14M30 32h15M0 33h13M31 33h14M0 34h13M32 34h13M0 35h12M32 35h13M0 36h12M32 36h13M0 37h12M32 37h13M0 38h12M32 38h13M0 39h12M32 39h13M0 40h12M32 40h13M0 41h12M32 41h13M0 42h12M32 42h13M0 43h12M31 43h14M0 44h12M31 44h14M0 45h12M30 45h15M0 46h12M28 46h17M0 47h15M20 47h4M29 47h16M0 48h45M0 49h45M0 50h45M0 51h40M42 51h3M0 52h45M0 53h39M43 53h2M0 54h39M43 54h2M0 55h40M42 55h3M0 56h45M0 57h39M40 57h2M43 57h2M0 58h39M40 58h2M43 58h2M0 59h40M43 59h2M0 60h40M41 60h1M43 60h2M0 61h39M40 61h2M43 61h2M0 62h45M0 63h45" />
<path stroke="#110f0f" d="M2 2h1M5 2h1M2 3h1M4 3h1M2 4h3M2 5h1M5 5h1M2 6h1M5 6h1M3 8h2M2 9h4M2 10h4M3 12h2M40 51h2M39 53h4M39 54h4M40 55h2M39 57h1M42 57h1M39 58h1M42 58h1M40 59h3M40 60h1M42 60h1M39 61h1M42 61h1" />
<path stroke="#c65e03" d="M16 17h1M18 17h1M20 17h1M16 18h5M16 19h5M16 20h5M22 33h1M23 34h1M22 35h1M23 36h1" />
<path stroke="#fcb744" d="M21 17h1M23 17h1M25 17h1M27 17h1M21 18h3M25 18h3M21 19h2M26 19h2M21 20h3M25 20h3M23 33h1M25 33h1M24 34h1M23 35h1M25 35h1M24 36h1" />
<path stroke="#374daa" d="M24 18h1M23 19h3M24 20h1M20 21h8M20 22h8M17 32h2M28 32h2M16 33h3M29 33h1M16 34h3M15 35h4M24 35h1M15 36h4M15 37h3M15 38h3M15 39h3M15 40h3M15 41h2M15 42h2M15 43h2M15 44h1" />
<path stroke="#212f68" d="M16 21h4M16 22h4M15 31h4M14 32h3M19 32h1M13 33h3M19 33h1M28 33h1M30 33h1M13 34h3M19 34h1M29 34h3M12 35h3M19 35h1M12 36h3M12 37h3M18 37h1M12 38h3M18 38h1M12 39h3M18 39h1M12 40h3M12 41h3M17 41h1M12 42h3M17 42h1M12 43h3M12 44h3M16 44h1M12 45h4" />
<path stroke="#622f1a" d="M16 23h4M16 24h4M25 24h1M16 25h4M25 25h1M15 26h2M18 26h1M21 26h2M25 26h2M15 27h2M15 28h2M21 28h1M14 29h4M20 29h1M14 30h4M20 30h1M14 31h1M20 31h1M21 32h1M20 38h8M20 39h8M17 46h2M24 46h4M15 47h1M24 47h1" />
<path stroke="#f6d5aa" d="M20 23h8M19 26h1M23 26h2M19 27h9M19 28h2M27 28h1M19 29h1M23 29h3M28 39h2M28 40h2" />
<path stroke="#9a583e" d="M20 24h3M26 24h2M20 25h3M26 25h2M22 28h5M21 29h2M26 29h2M21 30h7M21 31h7M22 32h5M18 45h1M24 45h4M16 47h4M25 47h4" />
<path stroke="#cda48a" d="M23 24h2M23 25h2M17 26h1M17 27h2M17 28h2M18 29h1M18 30h2" />
<path stroke="#ffffff" d="M20 26h1M27 26h1M19 31h1M28 31h1M20 32h1M27 32h1M20 33h1M27 33h1M20 34h1M28 34h1M20 35h1M29 35h3M19 36h1M19 37h1M19 38h1M19 39h1M18 40h1M18 41h1M18 42h1M17 43h1M17 44h1M16 45h1M12 46h4" />
<path stroke="#633d7e" d="M21 33h1M24 33h1M26 33h1M21 34h2M25 34h2M21 35h1M27 35h1M28 36h2M20 37h1M28 37h1M20 40h1M27 40h1M19 41h1M19 42h1" />
<path stroke="#a59999" d="M27 34h1M28 35h1M20 36h1M31 38h1M31 39h1M19 40h1M31 40h1M31 41h1M31 42h1M18 43h1M30 43h1M30 44h1M17 45h1M28 45h2M16 46h1M19 46h5" />
<path stroke="#994db2" d="M26 35h1M21 36h2M25 36h3M30 36h2M21 37h7M29 37h3M28 38h3M21 40h6M20 41h8M20 42h8" />
<path stroke="#141931" d="M30 39h1M30 40h1M28 41h3M28 42h3M19 43h5M28 43h2M19 44h5M28 44h2M19 45h5" />
<path stroke="#414c68" d="M24 43h4M18 44h1M24 44h4" />
</svg>