<svg xmlns="http://www.w3.org/2000/svg" viewBox="0 -0.5 45 64" shape-rendering="crispEdges">
<metadata>Made with Pixels to Svg https://codepen.io/shshaw/pen/XbxvNj</metadata>
<path stroke="#f1ebe5" d="M0 0h45M0 1h45M0 2h2M6 2h39M0 3h2M3 3h2M6 3h39M0 4h2M3 4h2M6 4h39M0 5h2M3 5h1M6 5h39M0 6h2M7 6h38M0 7h45M0 8h3M5 8h40M0 9h2M6 9h39M0 10h2M6 10h39M0 11h2M6 11h39M0 12h3M5 12h40M0 13h45M0 14h45M0 15h45M0 16h23M25 16h20M0 17h15M16 17h1M18 17h1M21 17h1M26 17h1M28 17h17M0 18h15M28 18h17M0 19h15M28 19h17M0 20h15M28 20h17M0 21h15M28 21h17M0 22h15M28 22h17M0 23h15M29 23h16M0 24h15M29 24h16M0 25h15M29 25h16M0 26h14M29 26h16M0 27h14M29 27h16M0 28h14M29 28h16M0 29h13M29 29h16M0 30h13M29 30h16M0 31h13M30 31h15M0 32h13M30 32h15M0 33h13M30 33h15M0 34h13M29 34h16M0 35h13M30 35h15M0 36h15M31 36h14M0 37h15M31 37h14M0 38h15M31 38h14M0 39h14M29 39h16M0 40h13M30 40h15M0 41h13M31 41h14M0 42h13M31 42h14M0 43h13M31 43h14M0 44h13M31 44h14M0 45h13M31 45h14M0 46h13M31 46h14M0 47h13M31 47h14M0 48h45M0 49h45M0 50h45M0 51h40M42 51h3M0 52h39M43 52h2M0 53h39M43 53h2M0 54h39M43 54h2M0 55h40M42 55h3M0 56h45M0 57h38M43 57h2M0 58h39M41 58h1M43 58h2M0 59h39M40 59h2M43 59h2M0 60h39M40 60h2M43 60h2M0 61h39M43 61h2M0 62h45M0 63h45" />
<path stroke="#bd1111" d="M2 2h4M2 3h1M5 3h1M2 4h1M5 4h1M2 5h1M4 5h2M2 6h5M3 8h2M2 9h4M2 10h4M2 11h4M3 12h2M40 51h2M39 52h4M39 53h4M39 54h4M40 55h2M38 57h5M39 58h2M42 58h1M39 59h1M42 59h1M39 60h1M42 60h1M39 61h4" />
<path stroke="#fcb744" d="M23 16h2M20 17h1M22 17h4M27 17h1M20 18h3M25 18h3M20 19h1M22 19h1M25 19h1M27 19h1M20 20h8M20 41h2M25 41h2M20 42h1M26 42h1M20 43h1M26 43h1M20 44h1M26 44h1M20 45h1M26 45h1M20 46h1M26 46h1M20 47h1M26 47h1" />
<path stroke="#c65e03" d="M15 17h1M17 17h1M19 17h1M15 18h5M15 19h1M17 19h1M19 19h1M15 20h5M22 36h2M19 41h1M19 42h1M19 43h1M19 44h1M19 45h1M19 46h1M19 47h1" />
<path stroke="#ae2727" d="M23 18h2M21 19h1M23 19h2M26 19h1M20 21h8M20 22h8M16 31h3M27 31h3M16 32h4M27 32h3M16 33h4M27 33h3M16 34h3M26 35h3M17 36h3M26 36h4M17 37h1M28 37h2M25 38h1M25 39h4M16 40h2M25 40h5M16 41h3M27 41h3M16 42h3M27 42h3M16 43h3M27 43h3M16 44h3M27 44h3M16 45h3M27 45h3M16 46h3M27 46h3M16 47h3M27 47h3" />
<path stroke="#7c3333" d="M16 19h1M18 19h1M15 21h5M15 22h5M13 31h3M19 31h8M13 32h3M20 32h3M26 32h1M13 33h3M13 34h3M19 34h1M27 34h2M13 35h1M19 35h1M29 35h1M30 36h1M25 37h1M30 37h1M17 38h1M26 38h1M14 39h3M13 40h3M18 40h3M13 41h3M30 41h1M13 42h3M30 42h1M13 43h3M30 43h1M13 44h3M30 44h1M13 45h3M30 45h1M13 46h3M30 46h1M13 47h3M30 47h1" />
<path stroke="#572420" d="M15 23h4M28 23h1M15 24h5M25 24h1M28 24h1M15 25h2M18 25h1M28 25h1M14 26h3M19 26h3M26 26h3M14 27h3M19 27h1M28 27h1M14 28h4M28 28h1M13 29h5M28 29h1M13 30h5M28 30h1" />
<path stroke="#f6d5aa" d="M19 23h9M22 24h3M19 25h9M19 28h9M19 29h3M26 29h2M20 30h3M25 30h2M23 32h3M23 33h3M22 37h2M21 38h4M21 39h3" />
<path stroke="#923e23" d="M20 24h2M26 24h2" />
<path stroke="#cda48a" d="M17 25h1M17 26h2M22 26h4M17 27h2M23 27h2M18 28h1M18 29h1M25 29h1M18 30h2M27 30h1M22 33h1M22 34h3M24 37h1M24 39h1" />
<path stroke="#ffffff" d="M20 27h1M27 27h1M26 33h1M25 34h1M18 37h3M18 38h2" />
<path stroke="#372117" d="M21 27h2M25 27h2" />
<path stroke="#ba373c" d="M22 29h3M23 30h2" />
<path stroke="#954765" d="M20 33h2M20 34h2M22 35h1M22 42h3M21 43h5M21 44h5M21 45h5M21 46h5M21 47h5" />
<path stroke="#d2cccc" d="M26 34h1M23 35h3M18 39h2" />
<path stroke="#471c2a" d="M14 35h5M15 36h2M20 36h2M24 36h2M15 37h2M26 37h2M15 38h2M27 38h4M17 39h1" />
<path stroke="#5d1e37" d="M20 35h2M22 41h3M21 42h1M25 42h1" />
<path stroke="#a68068" d="M21 37h1M21 40h4" />
<path stroke="#a59999" d="M20 38h1M20 39h1" />
</svg>