<svg xmlns="http://www.w3.org/2000/svg" viewBox="0 -0.5 45 64" shape-rendering="crispEdges">
<metadata>Made with Pixels to Svg https://codepen.io/shshaw/pen/XbxvNj</metadata>
<path stroke="#f1ebe5" d="M0 0h45M0 1h45M0 2h2M6 2h39M0 3h2M3 3h2M6 3h39M0 4h2M3 4h2M6 4h39M0 5h2M3 5h1M6 5h39M0 6h2M7 6h38M0 7h45M0 8h2M3 8h2M6 8h39M0 9h2M6 9h39M0 10h2M6 10h39M0 11h3M5 11h40M0 12h45M0 13h45M0 14h21M23 14h22M0 15h20M24 15h21M0 16h16M27 16h18M0 17h15M28 17h17M0 18h15M28 18h17M0 19h15M28 19h17M0 20h15M28 20h17M0 21h15M28 21h17M0 22h15M28 22h17M0 23h12M29 23h16M0 24h12M29 24h16M0 25h12M29 25h16M0 26h12M29 26h16M0 27h14M29 27h16M0 28h14M29 28h16M0 29h14M29 29h16M0 30h15M29 30h3M34 30h11M0 31h14M36 31h9M0 32h14M36 32h9M0 33h14M36 33h9M0 34h14M35 34h10M0 35h14M33 35h12M0 36h16M29 36h16M0 37h16M28 37h17M0 38h15M28 38h17M0 39h15M29 39h16M0 40h14M30 40h15M0 41h13M31 41h14M0 42h13M31 42h14M0 43h13M31 43h14M0 44h13M31 44h14M0 45h13M31 45h14M0 46h13M31 46h14M0 47h13M31 47h14M0 48h45M0 49h45M0 50h45M0 51h45M0 52h40M42 52h3M0 53h39M43 53h2M0 54h39M43 54h2M0 55h39M40 55h2M43 55h2M0 56h45M0 57h38M43 57h2M0 58h39M41 58h1M43 58h2M0 59h39M40 59h2M43 59h2M0 60h39M40 60h2M43 60h2M0 61h39M43 61h2M0 62h45M0 63h45" />
<path stroke="#bd1111" d="M2 2h4M2 3h1M5 3h1M2 4h1M5 4h1M2 5h1M4 5h2M2 6h5M2 8h1M5 8h1M2 9h4M2 10h4M3 11h2M40 52h2M39 53h4M39 54h4M39 55h1M42 55h1M38 57h5M39 58h2M42 58h1M39 59h1M42 59h1M39 60h1M42 60h1M39 61h4" />
<path stroke="#7c3333" d="M21 14h1M20 15h1M16 17h1M18 17h1M16 18h1M18 18h1M16 19h1M18 19h1M15 21h5M15 22h5M14 31h2M19 31h3M24 31h3M29 31h1M14 32h2M20 32h1M25 32h1M14 33h2M27 33h3M14 34h2M19 34h1M27 34h3M14 35h2M19 35h1M27 35h4M16 36h1M17 38h1M14 40h2M13 41h3M30 41h1M13 42h3M30 42h1M13 43h3M30 43h1M13 44h3M30 44h1M13 45h3M30 45h1M13 46h3M30 46h1M13 47h3M30 47h1" />
<path stroke="#ae2727" d="M22 14h1M21 15h3M21 17h2M25 17h2M21 18h2M25 18h2M21 19h2M25 19h2M20 21h8M20 22h8M16 31h3M22 31h2M27 31h2M16 32h4M26 32h4M16 33h4M26 33h1M16 34h3M26 34h1M26 35h1M17 36h4M25 36h2M17 37h2M16 40h4M26 40h3M16 41h3M27 41h3M16 42h3M27 42h3M16 43h3M27 43h3M16 44h3M27 44h3M16 45h3M27 45h3M16 46h3M27 46h3M16 47h3M27 47h3" />
<path stroke="#c65e03" d="M16 16h5M15 17h1M17 17h1M19 17h1M15 18h1M17 18h1M19 18h1M15 19h1M17 19h1M19 19h1M15 20h5M24 37h2M15 38h1M25 38h1M15 39h2M25 39h3M20 40h1M25 40h1" />
<path stroke="#fcb744" d="M21 16h6M20 17h1M23 17h2M27 17h1M20 18h1M23 18h2M27 18h1M20 19h1M23 19h2M27 19h1M20 20h8M26 37h2M26 38h2" />
<path stroke="#a56d2f" d="M12 23h6M12 24h6M12 25h5M20 25h1M25 25h1M28 25h1M12 26h5M28 26h1M14 27h3M28 27h1M14 28h4M28 28h1M14 29h4M28 29h1M15 30h3M28 30h1" />
<path stroke="#e0aa3f" d="M18 23h1M28 23h1M18 24h1M28 24h1M18 25h1M21 25h2M26 25h2" />
<path stroke="#f6d5aa" d="M19 23h9M19 24h9M19 26h1M19 27h9M19 28h9M19 29h2M22 29h1M25 29h1M27 29h1M20 30h1M22 30h4M33 30h1M32 31h1M35 31h1M35 32h1M35 33h1M34 34h1M22 37h2M21 38h4M21 39h4" />
<path stroke="#cda48a" d="M17 25h1M19 25h1M23 25h2M17 26h2M23 26h2M17 27h2M18 28h1M18 29h1M21 29h1M26 29h1M18 30h2M21 30h1M26 30h2M32 30h1M31 31h1M33 31h2M21 32h4M31 32h4M31 33h4M32 34h2" />
<path stroke="#ffffff" d="M20 26h1M27 26h1M30 31h1M19 37h2M18 38h2M20 41h2M25 41h2M20 42h1M26 42h1M20 43h1M26 43h1M20 44h1M26 44h1M20 45h1M26 45h1M20 46h1M26 46h1M20 47h1M26 47h1" />
<path stroke="#372117" d="M21 26h2M25 26h2" />
<path stroke="#9a583e" d="M23 29h2" />
<path stroke="#a59999" d="M30 32h1M30 33h1M30 34h2M31 35h2M20 38h1M18 39h3M19 41h1M19 42h1M19 43h1M19 44h1M19 45h1M19 46h1M19 47h1" />
<path stroke="#517e7e" d="M20 33h6M20 34h6M22 42h3M21 43h5M21 44h5M21 45h5M21 46h5M21 47h5" />
<path stroke="#471c2a" d="M16 35h3M27 36h2M16 37h1M16 38h1M17 39h1M28 39h1M29 40h1" />
<path stroke="#344f4f" d="M20 35h6M21 36h4M22 41h3M21 42h1M25 42h1" />
<path stroke="#a68068" d="M21 37h1M21 40h4" />
</svg>