<svg xmlns="http://www.w3.org/2000/svg" viewBox="0 -0.5 45 64" shape-rendering="crispEdges">
<metadata>Made with Pixels to Svg https://codepen.io/shshaw/pen/XbxvNj</metadata>
<path stroke="#f1ebe5" d="M0 0h45M0 1h45M0 2h2M3 2h1M7 2h38M0 3h2M3 3h1M5 3h1M7 3h38M0 4h2M3 4h1M5 4h1M7 4h38M0 5h2M3 5h1M5 5h1M7 5h38M0 6h2M3 6h1M7 6h38M0 7h45M0 8h3M5 8h40M0 9h2M6 9h39M0 10h2M6 10h39M0 11h3M5 11h40M0 12h2M6 12h39M0 13h45M0 14h20M23 14h1M26 14h1M28 14h17M0 15h17M29 15h16M0 16h16M30 16h15M0 17h15M31 17h14M0 18h14M31 18h14M0 19h14M31 19h14M0 20h14M31 20h14M0 21h14M31 21h14M0 22h14M31 22h14M0 23h14M31 23h14M0 24h14M32 24h13M0 25h14M32 25h13M0 26h14M32 26h13M0 27h14M32 27h13M0 28h15M30 28h15M0 29h16M30 29h15M0 30h17M30 30h15M0 31h17M29 31h16M0 32h16M28 32h17M0 33h15M28 33h17M0 34h14M29 34h16M0 35h14M29 35h16M0 36h14M29 36h16M0 37h14M29 37h16M0 38h14M29 38h16M0 39h14M29 39h16M0 40h17M29 40h16M0 41h17M29 41h16M0 42h17M29 42h16M0 43h17M21 43h2M27 43h18M0 44h17M21 44h2M27 44h18M0 45h17M21 45h2M27 45h18M0 46h17M21 46h2M27 46h18M0 47h17M22 47h1M28 47h17M0 48h45M0 49h45M0 50h45M0 51h39M43 51h2M0 52h40M42 52h3M0 53h39M43 53h2M0 54h39M43 54h2M0 55h40M42 55h3M0 56h45M0 57h38M41 57h1M43 57h2M0 58h38M39 58h1M41 58h1M43 58h2M0 59h38M39 59h1M41 59h1M43 59h2M0 60h38M39 60h1M41 60h1M43 60h2M0 61h38M41 61h1M43 61h2M0 62h45M0 63h45" />
<path stroke="#110f0f" d="M2 2h1M4 2h3M2 3h1M4 3h1M6 3h1M2 4h1M4 4h1M6 4h1M2 5h1M4 5h1M6 5h1M2 6h1M4 6h3M3 8h2M2 9h4M2 10h4M3 11h2M2 12h4M39 51h4M40 52h2M39 53h4M39 54h4M40 55h2M38 57h3M42 57h1M38 58h1M40 58h1M42 58h1M38 59h1M40 59h1M42 59h1M38 60h1M40 60h1M42 60h1M38 61h3M42 61h1" />
<path stroke="#6d361f" d="M20 14h2M17 15h5M23 15h1M16 16h4M15 17h3M14 18h4M14 19h4M14 20h4M21 20h1M23 20h1M27 20h1M14 21h3M21 21h1M27 21h1M14 22h3M14 23h3M15 28h2M16 29h1" />
<path stroke="#96562b" d="M22 14h1M24 14h2M27 14h1M22 15h1M24 15h5M20 16h10M18 17h13M18 18h13M18 19h13M22 20h1M24 20h2M28 20h1M30 20h1M22 21h1M24 21h1M30 21h1M30 22h1M30 23h1" />
<path stroke="#da997d" d="M18 20h1M17 21h2M17 22h1M17 23h1M14 24h1M17 24h1M20 24h1M23 24h1M26 24h1M29 24h3M14 25h1M17 25h1M30 25h2M14 26h1M17 26h1M23 26h1M26 26h1M30 26h2M14 27h1M17 27h1M22 27h1M27 27h1M30 27h2M17 28h2M24 28h2M17 29h2M22 29h1M27 29h1M17 30h3M23 30h4M29 30h1M28 31h1M20 32h2M26 32h2M22 33h4M17 34h2M16 35h3M16 36h3M27 36h2M16 37h1M27 37h2M27 38h2M27 39h2M27 40h2M27 41h2M27 42h2" />
<path stroke="#ffcea1" d="M19 20h2M26 20h1M29 20h1M19 21h2M23 21h1M25 21h2M28 21h2M18 22h12M18 23h12M15 24h2M18 24h2M24 24h2M15 25h2M18 25h2M24 25h2M15 26h2M18 26h5M24 26h2M27 26h3M15 27h2M18 27h4M23 27h4M28 27h2M19 28h5M26 28h4M19 29h3M28 29h2M20 30h3M27 30h2M20 31h8M22 32h4M19 34h2M19 35h2M19 36h2" />
<path stroke="#9a583e" d="M21 24h2M27 24h2M20 25h1M23 25h1M26 25h1M29 25h1M20 47h2M26 47h2" />
<path stroke="#ffffff" d="M21 25h1M28 25h1M23 29h4" />
<path stroke="#93a2c5" d="M22 25h1M27 25h1M20 33h1M26 33h1M25 34h2M21 35h1M26 35h1M21 36h2M20 37h4M20 38h5M19 39h7M19 40h8M19 41h8" />
<path stroke="#6b5b9a" d="M17 31h1M16 32h1M15 33h1M27 33h1M27 34h2M14 35h2M27 35h2M14 36h2M14 37h2M14 38h2M17 39h2M17 40h2M17 41h2" />
<path stroke="#969497" d="M18 31h2M18 32h2" />
<path stroke="#4e4c4f" d="M17 32h1M17 33h1" />
<path stroke="#3b3858" d="M16 33h1M14 34h3M16 38h1M14 39h3" />
<path stroke="#454048" d="M18 33h2M18 37h2M18 38h2M19 43h2M25 43h2M19 44h2M25 44h2M19 45h2M25 45h2M19 46h2M25 46h2" />
<path stroke="#76b6cd" d="M21 33h1M22 34h1M23 35h1M24 36h1M25 37h1M26 38h1" />
<path stroke="#c74ad0" d="M21 34h1M22 35h1M23 36h1M24 37h1M25 38h1M26 39h1" />
<path stroke="#ffd372" d="M23 34h1M24 35h1M25 36h1M26 37h1" />
<path stroke="#ef3864" d="M24 34h1M25 35h1M26 36h1" />
<path stroke="#29262a" d="M17 37h1M17 38h1M17 42h10M17 43h2M23 43h2M17 44h2M23 44h2M17 45h2M23 45h2M17 46h2M23 46h2" />
<path stroke="#622f1a" d="M17 47h3M23 47h3" />
</svg>