<svg xmlns="http://www.w3.org/2000/svg" viewBox="0 -0.5 45 64" shape-rendering="crispEdges">
<metadata>Made with Pixels to Svg https://codepen.io/shshaw/pen/XbxvNj</metadata>
<path stroke="#f1ebe5" d="M0 0h45M0 1h45M0 2h2M3 2h1M7 2h38M0 3h2M3 3h1M5 3h1M7 3h38M0 4h2M3 4h1M5 4h1M7 4h38M0 5h2M3 5h1M5 5h1M7 5h38M0 6h2M3 6h1M7 6h38M0 7h45M0 8h3M5 8h40M0 9h2M6 9h39M0 10h2M6 10h39M0 11h2M6 11h39M0 12h3M5 12h40M0 13h45M0 14h45M0 15h45M0 16h45M0 17h45M0 18h12M15 18h3M32 18h13M0 19h12M16 19h1M23 19h1M32 19h13M0 20h12M32 20h13M0 21h12M32 21h13M0 22h13M32 22h13M0 23h13M32 23h13M0 24h13M31 24h14M0 25h13M31 25h14M0 26h13M32 26h13M0 27h13M33 27h12M0 28h13M36 28h9M0 29h13M37 29h8M0 30h13M37 30h8M0 31h14M37 31h8M0 32h15M37 32h8M0 33h14M37 33h8M0 34h13M38 34h7M0 35h13M26 35h3M39 35h6M0 36h13M26 36h3M40 36h5M0 37h13M26 37h2M40 37h5M0 38h13M26 38h1M40 38h5M0 39h13M26 39h1M37 39h8M0 40h13M26 40h1M36 40h9M0 41h13M26 41h3M35 41h10M0 42h13M26 42h6M34 42h11M0 43h16M20 43h2M26 43h6M33 43h12M0 44h16M20 44h2M26 44h19M0 45h16M20 45h2M26 45h6M33 45h12M0 46h16M20 46h2M26 46h19M0 47h16M21 47h1M27 47h3M35 47h10M0 48h29M38 48h7M0 49h45M0 50h45M0 51h40M42 51h3M0 52h39M43 52h2M0 53h39M43 53h2M0 54h39M43 54h2M0 55h40M42 55h3M0 56h45M0 57h38M41 57h1M43 57h2M0 58h38M39 58h1M41 58h1M43 58h2M0 59h38M39 59h1M41 59h1M43 59h2M0 60h38M39 60h1M41 60h1M43 60h2M0 61h38M41 61h1M43 61h2M0 62h45M0 63h45" />
<path stroke="#bd1111" d="M2 2h1M4 2h3M2 3h1M4 3h1M6 3h1M2 4h1M4 4h1M6 4h1M2 5h1M4 5h1M6 5h1M2 6h1M4 6h3M3 8h2M2 9h4M2 10h4M2 11h4M3 12h2M40 51h2M39 52h4M39 53h4M39 54h4M40 55h2M38 57h3M42 57h1M38 58h1M40 58h1M42 58h1M38 59h1M40 59h1M42 59h1M38 60h1M40 60h1M42 60h1M38 61h3M42 61h1" />
<path stroke="#414345" d="M12 18h1M18 18h2M12 19h2M17 19h3M12 20h3M16 20h4M12 21h8M13 22h7M13 23h7M13 24h4M13 25h4M13 26h4M13 27h4M13 28h4M13 29h4M33 29h1M13 30h4M33 30h2M14 31h3M34 31h3M15 32h13M14 33h2M26 33h2M13 34h2M22 34h1M26 34h3M13 35h2M17 35h1M22 35h1M13 36h2M17 36h9M13 37h2M17 37h1M13 38h2M17 38h1M13 39h2M17 39h1M13 40h2M13 41h2M13 42h2M16 44h2M22 44h2M16 45h2M22 45h2M16 46h2M22 46h2M16 47h3M22 47h3" />
<path stroke="#5e6268" d="M13 18h2M20 18h12M14 19h2M20 19h2M24 19h8M15 20h1M20 20h2M24 20h8M20 21h12M20 22h12M20 23h12M34 28h2M34 29h3M35 30h2M28 32h1M16 33h10M28 33h1M15 34h7M23 34h3M15 35h2M18 35h4M23 35h3M15 36h2M15 37h2M18 37h8M15 38h2M18 38h8M15 39h2M18 39h8M15 40h2M15 41h2M15 42h2M18 44h2M24 44h2M18 45h2M24 45h2M18 46h2M24 46h2M19 47h2M25 47h2" />
<path stroke="#000000" d="M22 19h1M22 20h2" />
<path stroke="#64645e" d="M17 24h3M17 25h3M17 26h3M17 27h3M17 28h3M17 29h3M17 30h3M17 31h3" />
<path stroke="#aaa997" d="M20 24h11M20 25h2M20 26h1M20 27h1M20 31h9" />
<path stroke="#b86758" d="M22 25h1M21 26h1M20 28h1M20 29h1M20 30h1" />
<path stroke="#c6261a" d="M23 25h3M21 27h1M21 28h1M21 29h1M21 30h4M30 37h1M38 37h1M33 38h1M35 38h1M37 38h2M28 39h2M32 39h1M35 39h1M18 40h8M30 40h1M33 40h2M18 41h8M31 41h1M33 41h1M18 42h2M24 42h2M18 43h2M24 43h2M32 43h1M32 45h1M31 47h3" />
<path stroke="#4f211e" d="M26 25h5M22 26h4M31 26h1M22 27h2M32 27h1M22 28h1M33 28h1M22 29h3M25 30h4M29 31h1M29 32h1M36 32h1M29 33h1M36 33h1M29 34h1M37 34h1M29 35h1M38 35h1M29 36h1M36 36h1M39 36h1M36 37h1M39 37h1M27 38h1M30 38h1M36 38h1M39 38h1M27 39h1M30 39h1M33 39h1M36 39h1M17 40h1M27 40h3M32 40h1M35 40h1M17 41h1M29 41h2M32 41h1M34 41h1M17 42h1M20 42h4M32 42h2M16 43h2M22 43h2M29 48h3M36 48h2" />
<path stroke="#f87b5f" d="M26 26h3M25 27h2M25 28h1M26 29h2M29 30h1M30 32h1M30 33h1M30 34h2M33 34h1M30 35h2M33 35h1M36 35h2M30 36h4M37 36h2M31 37h1M33 37h3M37 37h1M29 38h1M31 38h1M34 38h1M31 39h1M34 39h1" />
<path stroke="#ffc36d" d="M29 26h2M27 27h5M26 28h7M28 29h5M30 30h3M30 31h4M31 32h5M31 33h5M32 34h1M34 34h3M32 35h1M34 35h2M34 36h2" />
<path stroke="#e35742" d="M24 27h1M23 28h2M25 29h1M29 37h1M32 37h1M28 38h1M32 38h1M31 40h1" />
<path stroke="#5d1d09" d="M28 37h1" />
<path stroke="#98251b" d="M30 47h1M34 47h1M32 48h4" />
</svg>