<svg xmlns="http://www.w3.org/2000/svg" viewBox="0 -0.5 45 64" shape-rendering="crispEdges">
<metadata>Made with Pixels to Svg https://codepen.io/shshaw/pen/XbxvNj</metadata>
<path stroke="#f1ebe5" d="M0 0h45M0 1h45M0 2h2M3 2h1M7 2h38M0 3h2M3 3h1M5 3h1M7 3h38M0 4h2M3 4h1M5 4h1M7 4h38M0 5h2M3 5h1M5 5h1M7 5h38M0 6h2M3 6h1M7 6h38M0 7h45M0 8h2M3 8h2M6 8h39M0 9h2M6 9h39M0 10h2M6 10h39M0 11h3M5 11h40M0 12h45M0 13h45M0 14h45M0 15h17M18 15h3M22 15h4M27 15h18M0 16h17M19 16h2M23 16h2M27 16h18M0 17h13M16 17h1M20 17h1M24 17h1M28 17h17M0 18h13M33 18h12M0 19h14M32 19h13M0 20h14M31 20h14M0 21h11M30 21h15M0 22h12M29 22h16M0 23h13M32 23h13M0 24h14M32 24h13M0 25h11M20 25h1M22 25h1M25 25h1M27 25h1M31 25h14M0 26h12M34 26h11M0 27h13M34 27h11M0 28h14M36 28h9M0 29h13M36 29h9M0 30h12M36 30h9M0 31h14M35 31h10M0 32h14M34 32h11M0 33h14M34 33h11M0 34h14M34 34h11M0 35h15M33 35h12M0 36h15M32 36h13M0 37h15M30 37h15M0 38h15M27 38h18M0 39h15M27 39h18M0 40h15M27 40h18M0 41h15M27 41h18M0 42h15M27 42h18M0 43h17M22 43h1M27 43h18M0 44h17M21 44h2M27 44h18M0 45h17M21 45h2M27 45h18M0 46h17M21 46h2M27 46h18M0 47h17M22 47h1M28 47h17M0 48h45M0 49h45M0 50h45M0 51h45M0 52h40M42 52h3M0 53h39M43 53h2M0 54h39M43 54h2M0 55h39M40 55h2M43 55h2M0 56h45M0 57h38M41 57h1M43 57h2M0 58h38M39 58h1M41 58h1M43 58h2M0 59h38M39 59h1M41 59h1M43 59h2M0 60h38M39 60h1M41 60h1M43 60h2M0 61h38M41 61h1M43 61h2M0 62h45M0 63h45" />
<path stroke="#bd1111" d="M2 2h1M4 2h3M2 3h1M4 3h1M6 3h1M2 4h1M4 4h1M6 4h1M2 5h1M4 5h1M6 5h1M2 6h1M4 6h3M2 8h1M5 8h1M2 9h4M2 10h4M3 11h2M40 52h2M39 53h4M39 54h4M39 55h1M42 55h1M38 57h3M42 57h1M38 58h1M40 58h1M42 58h1M38 59h1M40 59h1M42 59h1M38 60h1M40 60h1M42 60h1M38 61h3M42 61h1" />
<path stroke="#9adbee" d="M17 15h1M21 15h1M26 15h1M17 16h2M21 16h2M25 16h2M13 17h3M17 17h3M21 17h3M25 17h2M14 18h13M29 18h4M15 19h17M17 20h14M29 21h1M29 23h3M29 24h2M29 25h1M24 30h1M24 31h1" />
<path stroke="#4394ac" d="M27 17h1M13 18h1M27 18h2M14 19h1M14 20h3M11 21h8M28 21h1M12 22h6M13 23h4M14 24h3M31 24h1M11 25h4M16 25h1M30 25h1M12 26h3M16 26h1M13 27h2M16 27h1M14 28h3M13 29h4M12 30h6M14 31h4M24 32h1M28 32h1" />
<path stroke="#da997d" d="M19 21h1M27 21h1M18 22h1M28 22h1M17 23h1M17 24h1M15 25h1M15 26h1M15 27h1M23 27h2M17 28h1M17 29h1M18 31h2M28 31h1M22 32h2M25 32h1" />
<path stroke="#ffcea1" d="M20 21h7M19 22h9M18 23h1M21 23h6M28 23h1M18 24h2M23 24h2M28 24h1M17 25h2M23 25h2M28 25h1M17 26h12M17 27h1M23 28h2M18 29h4M25 29h4M18 30h6M25 30h4M20 31h4M25 31h3" />
<path stroke="#454048" d="M19 23h2M27 23h1M21 24h2M25 24h2M19 25h1M21 25h1M26 25h1M17 34h1M17 35h2M17 36h2M17 37h2M20 37h2M25 37h2M17 38h2M20 38h2M25 38h2M17 39h2M20 39h2M25 39h2M20 41h7M20 42h2M25 42h2M19 44h2M25 44h2" />
<path stroke="#997266" d="M20 24h1M27 24h1M22 29h3" />
<path stroke="#836c44" d="M29 26h1M29 27h1M29 28h1M34 28h1M29 29h1M29 30h1M35 30h1M29 31h1M34 31h1M20 32h2M26 32h2M14 33h4M22 33h4M28 33h1M14 34h1M18 34h1M28 34h2M19 35h1M27 35h1M29 35h1M20 36h1M26 36h1M30 36h2M22 37h3M15 40h2M19 40h1M15 41h2M15 42h2M17 43h2M17 45h2M23 45h2M17 46h4M23 46h4M17 47h3M23 47h3" />
<path stroke="#dea53f" d="M30 26h1M32 26h1M30 28h1M32 28h1M35 28h1M30 29h1M34 29h1M34 30h1M30 32h4M19 33h3M26 33h2M30 33h4M19 34h4M24 34h4M20 35h3M24 35h3M22 36h1M24 36h1M22 38h3M22 39h3M17 40h2M20 40h7M17 41h2M17 42h2M22 42h3M19 43h3M25 43h2M19 45h2M25 45h2M20 47h2M26 47h2" />
<path stroke="#b88222" d="M31 26h1M33 26h1M31 28h1M33 28h1M31 29h1M33 29h1M30 30h2M33 30h1M30 31h4M14 32h6M29 32h1M18 33h1M29 33h1M23 34h1M30 34h4M23 35h1M30 35h3M21 36h1M23 36h1M25 36h1" />
<path stroke="#f6a88a" d="M18 27h5M25 27h4M18 28h5M25 28h4" />
<path stroke="#ffb035" d="M30 27h1" />
<path stroke="#d3310f" d="M31 27h1" />
<path stroke="#0fbcd3" d="M32 27h1" />
<path stroke="#b750c5" d="M33 27h1" />
<path stroke="#fbff24" d="M32 29h1" />
<path stroke="#c5ff37" d="M35 29h1" />
<path stroke="#bea54b" d="M32 30h1" />
<path stroke="#29262a" d="M15 34h2M15 35h2M28 35h1M15 36h2M19 36h1M27 36h3M15 37h2M19 37h1M27 37h3M15 38h2M19 38h1M15 39h2M19 39h1M19 41h1M19 42h1M23 43h2M23 44h2" />
<path stroke="#1d1f2a" d="M17 44h2" />
</svg>