<svg xmlns="http://www.w3.org/2000/svg" viewBox="0 -0.5 45 64" shape-rendering="crispEdges">
<metadata>Made with Pixels to Svg https://codepen.io/shshaw/pen/XbxvNj</metadata>
<path stroke="#f1ebe5" d="M0 0h45M0 1h45M0 2h2M3 2h1M7 2h38M0 3h2M3 3h1M5 3h1M7 3h38M0 4h2M3 4h1M5 4h1M7 4h38M0 5h2M3 5h1M5 5h1M7 5h38M0 6h2M3 6h1M7 6h38M0 7h45M0 8h3M5 8h40M0 9h2M6 9h39M0 10h2M6 10h39M0 11h45M0 12h3M5 12h40M0 13h45M0 14h45M0 15h45M0 16h45M0 17h45M0 18h17M29 18h16M0 19h16M30 19h15M0 20h15M31 20h14M0 21h15M31 21h14M0 22h15M31 22h14M0 23h15M31 23h14M0 24h15M31 24h14M0 25h15M31 25h14M0 26h15M31 26h14M0 27h15M31 27h14M0 28h15M31 28h14M0 29h15M31 29h14M0 30h15M31 30h14M0 31h15M31 31h14M0 32h15M31 32h14M0 33h15M31 33h14M0 34h15M31 34h14M0 35h15M31 35h14M0 36h16M30 36h15M0 37h16M30 37h15M0 38h16M30 38h15M0 39h16M31 39h14M0 40h16M31 40h14M0 41h16M31 41h14M0 42h16M31 42h14M0 43h17M29 43h16M0 44h17M29 44h16M0 45h17M29 45h16M0 46h17M21 46h4M29 46h16M0 47h17M21 47h4M29 47h16M0 48h45M0 49h45M0 50h45M0 51h40M42 51h3M0 52h45M0 53h39M43 53h2M0 54h39M43 54h2M0 55h40M42 55h3M0 56h45M0 57h38M41 57h1M43 57h2M0 58h38M39 58h1M41 58h1M43 58h2M0 59h38M39 59h1M41 59h1M43 59h2M0 60h38M39 60h1M41 60h1M43 60h2M0 61h38M41 61h1M43 61h2M0 62h45M0 63h45" />
<path stroke="#110f0f" d="M2 2h1M4 2h3M2 3h1M4 3h1M6 3h1M2 4h1M4 4h1M6 4h1M2 5h1M4 5h1M6 5h1M2 6h1M4 6h3M3 8h2M2 9h4M2 10h4M3 12h2M40 51h2M39 53h4M39 54h4M40 55h2M38 57h3M42 57h1M38 58h1M40 58h1M42 58h1M38 59h1M40 59h1M42 59h1M38 60h1M40 60h1M42 60h1M38 61h3M42 61h1" />
<path stroke="#422222" d="M17 18h4M16 19h4M15 20h4M15 21h4M15 22h4M21 22h1M15 23h4M20 23h1M15 24h4M24 24h4M15 25h4M15 26h3M15 27h3M15 28h3M15 29h4M15 30h4M20 30h1M29 30h1M15 31h4M20 31h3M26 31h4M15 32h1M18 32h1M29 32h1M15 33h1M18 33h1M15 34h1M18 34h1M15 35h1M18 35h1" />
<path stroke="#7e5050" d="M21 18h8M20 19h10M19 20h2M29 20h2M19 21h1M30 21h1M19 22h1M22 22h7M30 22h1M19 23h1M21 23h10M19 24h1M19 25h1M19 26h1M19 27h1M19 28h1M30 28h1M19 29h1M30 29h1M19 30h1M30 30h1M19 31h1M30 31h1M19 32h1M30 32h1M19 33h1M30 33h1M19 34h1M30 34h1M19 35h1M30 35h1" />
<path stroke="#a59999" d="M21 20h2M20 21h2M20 22h1M23 31h3M22 35h5M16 39h2M29 39h2M16 40h2M21 40h7M29 40h2M22 41h1M24 41h1M26 41h1M17 46h2M25 46h2" />
<path stroke="#ffffff" d="M23 20h6M22 21h8M29 22h1M21 25h1M23 25h1M28 25h1M30 25h1M21 26h1M30 26h1M21 27h1M30 27h1M21 32h2M26 32h2M21 33h2M24 33h1M26 33h2M21 34h7M22 36h5M22 37h5M21 38h7M18 39h2M21 39h7M18 40h2M21 41h1M23 41h1M25 41h1M27 41h1M19 46h2M27 46h2" />
<path stroke="#000000" d="M20 24h4M28 24h3M20 25h1M20 26h1M20 27h1M16 32h2M24 32h1M28 32h1M16 33h2M28 33h2M16 34h2M20 34h1M28 34h2M16 35h2M20 35h2M27 35h3M16 36h2M20 36h2M27 36h3M16 37h2M20 37h2M27 37h3M16 38h2M20 38h1M28 38h2M17 43h3M17 44h3M17 45h3M17 47h2M25 47h2" />
<path stroke="#352c3a" d="M22 25h1M24 25h1M27 25h1M29 25h1M22 26h3M27 26h3" />
<path stroke="#f9e7d0" d="M25 25h2M25 26h2M25 27h2M24 28h4M22 30h3M27 30h2M18 41h2M18 42h2" />
<path stroke="#bb887b" d="M18 26h1M18 27h1M18 28h1M20 28h1M20 29h1M24 29h3M21 30h1M16 41h2M29 41h2M16 42h2M29 42h2" />
<path stroke="#766a8b" d="M22 27h3M27 27h3" />
<path stroke="#f9d8d0" d="M21 28h3M28 28h2M21 29h3M28 29h2" />
<path stroke="#e7baa3" d="M27 29h1M25 30h2" />
<path stroke="#3f3f3f" d="M20 32h1M23 32h1M25 32h1M20 33h1M23 33h1M25 33h1M18 36h2M18 37h2M18 38h2M20 39h1M28 39h1M20 40h1M28 40h1M20 41h1M28 41h1M20 42h9M20 43h9M20 44h9M20 45h9M19 47h2M27 47h2" />
</svg>