<svg xmlns="http://www.w3.org/2000/svg" viewBox="0 -0.5 45 64" shape-rendering="crispEdges">
<metadata>Made with Pixels to Svg https://codepen.io/shshaw/pen/XbxvNj</metadata>
<path stroke="#f1ebe5" d="M0 0h45M0 1h45M0 2h2M6 2h39M0 3h4M5 3h40M0 4h4M5 4h40M0 5h2M3 5h1M5 5h40M0 6h2M5 6h40M0 7h45M0 8h2M6 8h39M0 9h2M3 9h2M6 9h39M0 10h2M3 10h2M6 10h39M0 11h2M3 11h2M6 11h39M0 12h2M6 12h39M0 13h45M0 14h2M3 14h2M6 14h22M30 14h15M0 15h2M3 15h1M5 15h17M30 15h15M0 16h2M5 16h16M27 16h18M0 17h2M3 17h2M6 17h7M19 17h1M26 17h1M32 17h13M0 18h2M3 18h2M6 18h6M33 18h12M0 19h11M13 19h1M30 19h2M35 19h10M0 20h2M6 20h5M13 20h2M29 20h4M35 20h10M0 21h2M3 21h12M29 21h16M0 22h2M6 22h9M29 22h16M0 23h2M3 23h12M29 23h16M0 24h2M6 24h9M29 24h16M0 25h15M29 25h16M0 26h2M6 26h9M29 26h16M0 27h2M3 27h2M6 27h9M29 27h16M0 28h2M5 28h10M29 28h16M0 29h2M3 29h2M6 29h8M30 29h15M0 30h2M3 30h2M6 30h8M30 30h15M0 31h14M30 31h15M0 32h15M29 32h16M0 33h14M30 33h9M40 33h2M43 33h2M0 34h14M30 34h9M40 34h2M43 34h2M0 35h14M30 35h10M43 35h2M0 36h14M30 36h9M40 36h2M43 36h2M0 37h14M30 37h9M43 37h2M0 38h14M30 38h15M0 39h15M29 39h10M43 39h2M0 40h17M28 40h14M43 40h2M0 41h17M28 41h11M43 41h2M0 42h17M21 42h2M28 42h14M43 42h2M0 43h17M21 43h3M28 43h11M43 43h2M0 44h17M21 44h3M28 44h17M0 45h17M21 45h3M28 45h11M40 45h2M43 45h2M0 46h17M21 46h3M28 46h11M40 46h2M43 46h2M0 47h17M22 47h2M29 47h11M43 47h2M0 48h40M41 48h1M43 48h2M0 49h39M40 49h2M43 49h2M0 50h45M0 51h39M43 51h2M0 52h39M40 52h2M43 52h2M0 53h39M40 53h2M43 53h2M0 54h39M40 54h2M43 54h2M0 55h39M43 55h2M0 56h45M0 57h40M43 57h2M0 58h40M41 58h1M43 58h2M0 59h40M41 59h4M0 60h40M41 60h4M0 61h39M43 61h2M0 62h45M0 63h45" />
<path stroke="#110f0f" d="M2 2h4M4 3h1M4 4h1M2 5h1M4 5h1M2 6h3M2 8h4M2 9h1M5 9h1M2 10h1M5 10h1M2 11h1M5 11h1M2 12h4M2 14h1M5 14h1M2 15h1M4 15h1M2 16h3M2 17h1M5 17h1M2 18h1M5 18h1M2 20h4M2 21h1M2 22h4M2 23h1M2 24h4M2 26h4M2 27h1M5 27h1M2 28h3M2 29h1M5 29h1M2 30h1M5 30h1M39 33h1M42 33h1M39 34h1M42 34h1M40 35h3M39 36h1M42 36h1M39 37h4M39 39h4M42 40h1M39 41h4M42 42h1M39 43h4M39 45h1M42 45h1M39 46h1M42 46h1M40 47h3M40 48h1M42 48h1M39 49h1M42 49h1M39 51h4M39 52h1M42 52h1M39 53h1M42 53h1M39 54h1M42 54h1M39 55h4M40 57h3M40 58h1M42 58h1M40 59h1M40 60h1M39 61h4" />
<path stroke="#fcb744" d="M28 14h2M28 15h2M11 19h2M33 19h2M11 20h2M33 20h2M24 21h2M24 22h2M21 25h7M21 26h1M25 26h1M21 27h3M25 27h3M23 33h2M23 34h2M23 38h2M16 39h2" />
<path stroke="#212f68" d="M22 15h3M21 16h3M13 17h2M20 17h3M27 17h2M12 18h2M15 18h2M20 18h2M26 18h2M14 19h4M21 19h1M26 19h1M32 19h1M15 20h4M15 21h4M15 22h4M15 25h4M15 26h4M15 27h4M15 28h4M14 29h4M28 29h1M14 30h4M27 30h2M14 31h4M26 31h3M18 32h1M22 32h1M25 32h1M18 33h1M18 34h1M18 35h5M25 35h3M18 38h1M18 39h1" />
<path stroke="#374daa" d="M25 15h3M24 16h3M15 17h4M23 17h3M29 17h3M14 18h1M17 18h3M22 18h4M28 18h5M18 19h3M22 19h4M27 19h3M19 20h10M19 21h5M26 21h3M19 22h5M26 22h3M19 25h1M28 25h1M19 26h1M28 26h1M19 27h1M28 27h1M19 28h1M28 28h1M18 29h2M29 29h1M18 30h2M29 30h1M18 31h1M29 31h1M19 32h3M26 32h2M19 33h4M25 33h3M19 34h4M25 34h3M19 38h4M25 38h3M19 39h4M25 39h3" />
<path stroke="#7c3333" d="M15 23h4M15 24h4" />
<path stroke="#ae2727" d="M19 23h10M19 24h10" />
<path stroke="#c65e03" d="M20 25h1M20 26h1M24 26h1M20 27h1M24 27h1M24 28h2M23 35h2M15 39h1M28 39h1" />
<path stroke="#2e2d2d" d="M22 26h2M26 26h2M20 30h1M19 31h7M15 32h2M23 32h2M28 32h1M14 33h2M28 33h2M14 34h2M28 34h2M14 35h2M28 35h2M14 36h2M28 36h2M17 40h2M17 41h2M22 41h3M17 42h4M23 42h5M17 44h1M24 44h1" />
<path stroke="#a59999" d="M20 28h1M20 29h1M21 30h1M14 37h2M28 37h2M14 38h2M28 38h2M17 43h1M24 43h1M17 45h1M24 45h1" />
<path stroke="#ffffff" d="M21 28h3M26 28h2M21 29h7M22 30h5M16 37h2M16 38h2M18 43h3M25 43h3M18 45h3M25 45h3" />
<path stroke="#4f4b4b" d="M17 32h1M16 33h2M16 34h2M16 35h2M16 36h2M23 39h2M19 40h9M19 41h3M25 41h3M18 44h3M25 44h3" />
<path stroke="#622f1a" d="M18 36h1M18 37h1M17 46h4M24 46h4M17 47h1M24 47h1" />
<path stroke="#9a583e" d="M19 36h3M26 36h2M19 37h3M26 37h2M18 47h4M25 47h4" />
<path stroke="#9ea8b2" d="M22 36h1M22 37h1" />
<path stroke="#e6fafa" d="M23 36h3M23 37h3" />
</svg>